<svg width="61" height="34" viewBox="0 0 61 34" fill="none" xmlns="http://www.w3.org/2000/svg">
<path d="M19.2266 0.616211C22.2932 5.84926 25.266 10.9201 28.3097 16.1126H10.1504C13.1689 10.9584 16.1532 5.86053 19.2266 0.616211Z" fill="#EC1B1B"/>
<path d="M17.2309 33.0955H0C2.87449 28.1913 5.69181 23.3818 8.61203 18.401C11.5094 23.3389 14.3359 28.1553 17.2332 33.0955H17.2309Z" fill="#EC1B1B"/>
<path d="M19.1875 33.3838C16.1598 28.2183 13.2281 23.2218 10.2324 18.1127H28.1357C25.1628 23.1858 22.2197 28.2071 19.1875 33.3838Z" fill="#EC1B1B"/>
<path d="M21.1367 33.1349C24.0569 28.1519 26.8788 23.3401 29.7991 18.3616C32.7284 23.3581 35.564 28.1947 38.4614 33.1349H21.1367Z" fill="#EC1B1B"/>
<path d="M31.0913 15.6826C28.1825 10.7221 25.356 5.90134 22.4609 0.967896H39.717C36.8402 5.87431 34.0023 10.7154 31.089 15.6826H31.0913Z" fill="#EC1B1B"/>
<path d="M41.4816 0.646851C44.3995 5.62084 47.2237 10.4507 50.0707 15.2692C50.4481 15.9067 50.24 16.0059 49.6019 16.0036C44.196 15.9901 38.7877 15.9901 33.3818 16.0036C32.7666 16.0036 32.5151 15.927 32.8993 15.2782C35.7417 10.4574 38.5636 5.6276 41.4839 0.646851H41.4816Z" fill="#EC1B1B"/>
<path d="M43.2598 0.984741H60.4724C57.5979 5.89115 54.7852 10.6894 51.8672 15.6657C48.9539 10.6962 46.1411 5.90016 43.2598 0.984741Z" fill="#EC1B1B"/>
<path d="M32.6074 18.0212C37.0529 18.0212 41.2675 18.0212 45.4797 18.0212C46.8106 18.0212 48.1438 18.0617 49.4747 18.0077C50.3757 17.9716 50.5404 18.1699 50.0647 18.9673C48.1187 22.2225 46.2115 25.5002 44.2929 28.7689C43.4216 30.2512 42.5504 31.7357 41.5991 33.3532C38.5919 28.2237 35.6626 23.2295 32.6074 18.0212Z" fill="#EC1B1B"/>
</svg>
