<svg width="1440" height="1158" viewBox="0 0 1440 1158" fill="none" xmlns="http://www.w3.org/2000/svg">
<rect x="-2" y="4.45338" width="1437" height="470" fill="#A7D6E8"/>
<g filter="url(#filter0_f_1_36)">
<path d="M1435.42 745.681H-10.4471C-10.4471 745.681 -33.3642 664.642 -32.9956 568.427C-32.9751 557.92 -32.6474 547.23 -31.9921 536.457C-27.4046 460.907 -6.24871 380.645 52.2217 325.227C191.65 193.028 324.872 275.03 324.872 275.03C324.872 275.03 360.2 109.06 519.596 79.016C679.258 48.9309 753.375 159.584 753.375 159.584C753.375 159.584 847.46 4.61214 1051.95 49.6681C1190.97 80.3062 1222.08 194.912 1227.75 265.138C1230.42 298.234 1227.45 321.479 1227.45 321.479C1227.45 321.479 1312.6 299.565 1391.61 366.514C1394.64 369.095 1397.55 371.819 1400.32 374.706C1495.59 473.666 1435.42 745.681 1435.42 745.681Z" fill="url(#paint0_linear_1_36)"/>
<path opacity="0.2" d="M200.388 745.685C200.388 745.685 143.411 544.238 244.732 448.172C343.388 354.632 437.649 412.647 437.649 412.647C437.649 412.647 462.647 295.215 575.439 273.961C688.41 252.674 740.86 330.961 740.86 330.961C740.86 330.961 807.434 221.309 952.131 253.19C1096.83 285.071 1076.3 445.52 1076.3 445.52C1076.3 445.52 1136.57 430.019 1192.47 477.387C1268.55 541.85 1223.47 745.683 1223.47 745.683L200.388 745.685Z" fill="#4A6C8F"/>
<path d="M152.486 286.614C191.545 276.38 197.394 319.824 197.394 319.824C197.394 319.824 210.344 318.571 219.117 326.509C227.889 334.447 223.295 350.112 223.295 350.112C223.295 350.112 233.32 347.396 240.005 351.783C246.69 356.17 244.183 363.27 244.183 363.27C244.183 363.27 268.273 363.131 275.513 365.638C282.755 368.144 320.352 377.057 320.352 377.057C320.352 377.057 239.169 383.324 158.544 384.16C77.9179 384.995 6.48369 380.817 6.48369 380.817L73.5332 369.33C73.5332 369.33 74.3688 354.918 84.1848 350.949C94.0029 346.98 101.103 355.336 101.103 355.336C101.103 355.336 97.1343 339.849 107.997 334.015C118.86 328.182 125.96 334.866 125.96 334.866C125.96 334.866 112.812 297.009 152.486 286.614Z" fill="#E9E9E9" fill-opacity="0.74"/>
<path d="M904.771 61.6018C956.811 47.9662 964.604 105.849 964.604 105.849C964.604 105.849 981.858 104.18 993.546 114.754C1005.23 125.329 999.112 146.201 999.112 146.201C999.112 146.201 1012.47 142.582 1021.38 148.427C1030.28 154.272 1026.94 163.734 1026.94 163.734C1026.94 163.734 1059.04 163.547 1068.69 166.887C1078.34 170.228 1128.43 182.1 1128.43 182.1C1128.43 182.1 1020.27 190.448 912.847 191.562C805.427 192.676 710.252 187.109 710.252 187.109L799.582 171.803C799.582 171.803 800.696 152.601 813.775 147.313C826.855 142.025 836.317 153.158 836.317 153.158C836.317 153.158 831.029 132.522 845.5 124.752C859.971 116.98 869.433 125.886 869.433 125.886C869.433 125.886 851.912 75.4525 904.771 61.6018Z" fill="#E9E9E9" fill-opacity="0.74"/>
<path d="M1175.65 195.979C1149.93 189.239 1146.07 217.852 1146.07 217.852C1146.07 217.852 1137.55 217.027 1131.77 222.253C1125.99 227.48 1129.02 237.797 1129.02 237.797C1129.02 237.797 1122.42 236.01 1118.01 238.897C1113.61 241.785 1115.26 246.463 1115.26 246.463C1115.26 246.463 1099.4 246.37 1094.63 248.021C1089.86 249.672 1065.1 255.541 1065.1 255.541C1065.1 255.541 1118.56 259.668 1171.66 260.219C1224.76 260.77 1271.81 258.017 1271.81 258.017L1227.65 250.452C1227.65 250.452 1227.1 240.96 1220.64 238.346C1214.17 235.733 1209.49 241.236 1209.49 241.236C1209.49 241.236 1212.11 231.037 1204.95 227.195C1197.8 223.353 1193.13 227.756 1193.13 227.756C1193.13 227.756 1201.78 202.826 1175.65 195.979Z" fill="#E9E9E9" fill-opacity="0.74"/>
<path d="M451.889 122.546C484.585 113.101 493.547 144.343 493.547 144.343C493.547 144.343 508.442 140.347 520.067 147.249C531.693 154.151 532.783 166.504 532.783 166.504C532.783 166.504 547.678 160.328 558.94 166.504C570.202 172.681 573.835 182.127 573.835 182.127L659.21 198.474L636.321 202.469C636.321 202.469 624.697 204.286 598.538 204.286C572.381 204.286 513.528 197.747 519.702 199.926C525.879 202.105 475.449 211.733 408.232 215.896C331.09 220.674 273.389 206.103 280.654 201.742C287.92 197.382 373.233 184.304 373.233 184.304C373.233 184.304 380.438 168.319 393.033 165.896C405.629 163.473 413.378 167.592 413.378 167.592C413.378 167.592 411.986 156.027 417.618 149.67C423.248 143.313 433.965 143.614 433.965 143.614C433.965 143.614 437.733 126.636 451.889 122.546Z" fill="#E9E9E9" fill-opacity="0.74"/>
<path d="M914.348 515.381V489.091H860.074V515.381H843.531V594.171H817.05V745.449H929.569V515.381H914.348Z" fill="#3B1819"/>
<path opacity="0.3" d="M929.569 683.133V745.449H817.05V622.964C835.628 639.279 879.868 673.936 929.569 683.133Z" fill="#3B1819"/>
<path d="M169.034 616.44H55.6854V745.449H169.034V616.44Z" fill="#3B1819"/>
<path opacity="0.3" d="M169.034 691.397V745.449H71.2935C68.0495 738.649 66.1964 732.342 67.1764 727.944C70.4504 713.36 115.867 645.5 115.867 645.5C115.867 645.5 126.547 678.156 169.034 691.397Z" fill="#8E4A4B"/>
<path d="M115.867 548.788V745.449H-10V548.788H12.4044L12.7939 500.149H92.6066L92.5125 548.788H115.867Z" fill="#3B1819"/>
<path opacity="0.3" d="M115.867 621.509V745.449H-10V695.109C58.3516 680.616 97.0661 644.904 115.867 621.509Z" fill="#8E4A4B"/>
<path d="M365.9 649.97H282.011V745.449H365.9V649.97Z" fill="#3B1819"/>
<path opacity="0.3" d="M365.898 705.444V745.449H293.559C291.159 740.417 289.787 735.749 290.512 732.493C292.935 721.7 326.55 671.476 326.55 671.476C326.55 671.476 334.454 695.646 365.898 705.444Z" fill="#8E4A4B"/>
<path d="M326.55 599.9V745.449H233.395V599.9H249.977L250.266 563.902H309.334L309.264 599.9H326.55Z" fill="#3B1819"/>
<path opacity="0.3" d="M326.55 653.721V745.449H233.395V708.193C283.984 697.467 312.634 671.036 326.55 653.721Z" fill="#8E4A4B"/>
<path d="M257.141 476.538V745.449H155.801V540.739H204.883V476.538H257.141Z" fill="#C55A5C"/>
<path opacity="0.3" d="M257.141 606.655V738.313C252.791 740.448 247.758 742.863 242.301 745.449H155.801V674.517C221.059 662.101 246.878 626.41 257.141 606.655Z" fill="#8E4A4B"/>
<path opacity="0.3" d="M563.198 556.692V616.855H454.407C450.797 609.287 448.732 602.267 449.825 597.37C453.47 581.139 504.022 505.607 504.022 505.607C504.022 505.607 515.909 541.955 563.198 556.692Z" fill="#3B1819"/>
<path d="M504.022 397.96V616.855H363.923V397.96H388.861L389.295 343.822H478.129L478.025 397.96H504.022Z" fill="#3B1819"/>
<path opacity="0.3" d="M504.022 478.902V616.855H363.925V560.824C440.003 544.693 483.092 504.944 504.022 478.902Z" fill="#3B1819"/>
<path d="M729.835 330.378V616.855H621.877V398.773H674.165V330.378H729.835Z" fill="#3B1819"/>
<path opacity="0.3" d="M729.835 468.995V609.254C725.203 611.528 719.84 614.1 714.026 616.855H621.877V541.29C691.397 528.063 718.903 490.039 729.835 468.995Z" fill="#3B1819"/>
<path d="M506.35 561.972H356.386V745.453H506.35V561.972Z" fill="#D47274"/>
<path d="M486.468 700.391H376.265V723.245H486.468V700.391Z" fill="#A53739"/>
<path d="M486.468 661.17H376.265V684.023H486.468V661.17Z" fill="#A53739"/>
<path d="M486.468 621.951H376.265V644.804H486.468V621.951Z" fill="#A53739"/>
<path d="M486.468 582.729H376.265V605.583H486.468V582.729Z" fill="#A53739"/>
<path d="M804.194 474.86H448.248V745.449H804.194V474.86Z" fill="#C55A5C"/>
<path d="M604.966 495.401H482.993V539.878H604.966V495.401Z" fill="#A53739"/>
<path d="M769.455 495.401H647.483V539.878H769.455V495.401Z" fill="#A53739"/>
<path d="M604.966 560.49H482.993V604.967H604.966V560.49Z" fill="#A53739"/>
<path d="M769.455 560.49H647.483V604.967H769.455V560.49Z" fill="#A53739"/>
<path d="M769.455 625.581H482.993V670.058H769.455V625.581Z" fill="#A53739"/>
<path d="M769.455 690.67H482.993V735.147H769.455V690.67Z" fill="#A53739"/>
<path d="M480.068 377.925H459.382V474.852H480.068V377.925Z" fill="#C55A5C"/>
<path d="M793.681 377.925H772.994V474.852H793.681V377.925Z" fill="#C55A5C"/>
<path d="M772.994 435.383H480.068V447.437H772.994V435.383Z" fill="#D47274"/>
<path d="M772.994 396.97H480.068V409.024H772.994V396.97Z" fill="#D47274"/>
<path d="M636.875 377.925H616.189V474.852H636.875V377.925Z" fill="#C55A5C"/>
<path d="M472.446 401.624C472.446 403.001 471.277 404.118 469.837 404.118C468.397 404.118 467.229 403.001 467.229 401.624C467.229 400.246 468.397 399.129 469.837 399.129C471.277 399.129 472.446 400.246 472.446 401.624Z" fill="#D47274"/>
<path d="M472.446 441.41C472.446 442.787 471.277 443.904 469.837 443.904C468.397 443.904 467.229 442.787 467.229 441.41C467.229 440.033 468.397 438.915 469.837 438.915C471.277 438.915 472.446 440.033 472.446 441.41Z" fill="#D47274"/>
<path d="M629.14 401.624C629.14 403.001 627.971 404.118 626.531 404.118C625.091 404.118 623.923 403.001 623.923 401.624C623.923 400.246 625.091 399.129 626.531 399.129C627.971 399.129 629.14 400.246 629.14 401.624Z" fill="#D47274"/>
<path d="M629.14 441.41C629.14 442.787 627.971 443.904 626.531 443.904C625.091 443.904 623.923 442.787 623.923 441.41C623.923 440.033 625.091 438.915 626.531 438.915C627.971 438.915 629.14 440.033 629.14 441.41Z" fill="#D47274"/>
<path d="M785.834 401.624C785.834 403.001 784.665 404.118 783.225 404.118C781.785 404.118 780.617 403.001 780.617 401.624C780.617 400.246 781.785 399.129 783.225 399.129C784.665 399.129 785.834 400.246 785.834 401.624Z" fill="#D47274"/>
<path d="M785.834 441.41C785.834 442.787 784.665 443.904 783.225 443.904C781.785 443.904 780.617 442.787 780.617 441.41C780.617 440.033 781.785 438.915 783.225 438.915C784.665 438.915 785.834 440.033 785.834 441.41Z" fill="#D47274"/>
<path d="M1025.57 290.74V745.449H926.575V344.913L1025.57 290.74Z" fill="#C55A5C"/>
<path opacity="0.3" d="M1025.57 577.38V745.449H926.577V631.25C981.993 612.721 1010.87 592.059 1025.57 577.38Z" fill="#4C2122"/>
<path d="M1122.4 395.378H1046.07V499.531H1122.4V395.378Z" fill="#C55A5C"/>
<path d="M1152.1 425.813H1025.56V745.453H1152.1V425.813Z" fill="#D47274"/>
<path d="M1327.92 448.022H1152.11V745.449H1327.92V448.022Z" fill="#D47274"/>
<path opacity="0.3" d="M1327.92 585.623V745.449H1152.11V683.772C1267.59 657.282 1327.92 585.623 1327.92 585.623Z" fill="#8E4A4B"/>
<path d="M1436.77 424.448H1368.81V504.248H1436.77V424.448Z" fill="#3B1819"/>
<path d="M1455.83 457.366V745.449H1314.93V556.025H1348.09V457.366H1455.83Z" fill="#3B1819"/>
<path opacity="0.3" d="M1455.83 667.42V745.449H1314.93V592.078C1338.2 612.506 1393.59 655.902 1455.83 667.42Z" fill="#8E4A4B"/>
<path opacity="0.3" d="M1397.66 471.739H1360.52V485.477H1397.66V471.739Z" fill="#8E4A4B"/>
<path opacity="0.3" d="M1397.66 500.142H1360.52V513.881H1397.66V500.142Z" fill="#8E4A4B"/>
<path opacity="0.3" d="M1397.66 528.544H1360.52V542.282H1397.66V528.544Z" fill="#8E4A4B"/>
<path opacity="0.3" d="M1397.66 556.945H1360.52V570.684H1397.66V556.945Z" fill="#8E4A4B"/>
<path opacity="0.3" d="M1397.66 585.347H1360.52V599.085H1397.66V585.347Z" fill="#8E4A4B"/>
<path opacity="0.3" d="M1397.66 613.748H1360.52V627.487H1397.66V613.748Z" fill="#8E4A4B"/>
<path opacity="0.3" d="M1409.58 485.479H1446.71V471.741H1409.58V485.479Z" fill="#8E4A4B"/>
<path opacity="0.3" d="M1409.58 513.879H1446.71V500.141H1409.58V513.879Z" fill="#8E4A4B"/>
<path opacity="0.3" d="M1409.58 542.281H1446.71V528.542H1409.58V542.281Z" fill="#8E4A4B"/>
<path opacity="0.3" d="M1409.58 570.682H1446.71V556.944H1409.58V570.682Z" fill="#8E4A4B"/>
<path opacity="0.3" d="M1409.58 599.084H1446.71V585.346H1409.58V599.084Z" fill="#8E4A4B"/>
<path opacity="0.3" d="M1409.58 627.486H1446.71V613.748H1409.58V627.486Z" fill="#8E4A4B"/>
<path d="M67.7086 746.793C67.7086 746.793 67.5878 738.832 73.271 735.205C78.9563 731.576 81.9791 732.908 81.9791 732.908C81.9791 732.908 81.4958 727.101 85.8498 723.354C90.2039 719.604 97.2183 720.452 97.2183 720.452C97.2183 720.452 95.928 699.367 113.828 696.304C131.727 693.24 134.791 713.558 134.791 713.558C134.791 713.558 145.596 709.929 152.287 715.414C160.082 721.799 158.496 733.878 158.496 733.878C158.496 733.878 165.269 732.267 169.14 735.33C173.011 738.394 172.849 746.797 172.849 746.797H67.7086V746.793Z" fill="#C55A5C"/>
<path d="M90.6381 746.793C90.6381 746.793 90.5705 742.306 93.7756 740.26C96.9807 738.214 98.6847 738.964 98.6847 738.964C98.6847 738.964 98.4123 735.691 100.866 733.577C103.321 731.464 107.276 731.941 107.276 731.941C107.276 731.941 106.549 720.052 116.642 718.326C126.734 716.597 128.463 728.054 128.463 728.054C128.463 728.054 134.555 726.008 138.328 729.1C142.723 732.701 141.828 739.51 141.828 739.51C141.828 739.51 145.647 738.601 147.828 740.33C150.01 742.058 149.919 746.795 149.919 746.795H90.6381V746.793Z" fill="#D47274"/>
<path d="M181.248 746.793C181.248 746.793 178.89 717.701 198.031 707.512C213.797 699.122 224.016 707.512 224.016 707.512C224.016 707.512 218.671 680.72 234.1 671.511C249.53 662.301 260.696 673.985 260.696 673.985C260.696 673.985 257.313 642.13 287.088 635.3C316.864 628.47 322.82 669.014 322.82 669.014C322.82 669.014 328.098 660.439 341.903 661.508C355.709 662.577 353.272 682.068 353.272 682.068C353.272 682.068 363.559 676.264 377.497 685.662C391.438 695.06 383.723 711.033 383.723 711.033C383.723 711.033 396.445 708.055 404.295 716.988C412.145 725.922 411.062 746.795 411.062 746.795H181.248V746.793Z" fill="#C55A5C"/>
<path d="M221.413 746.793C221.413 746.793 219.879 727.872 232.329 721.246C242.583 715.788 249.229 721.246 249.229 721.246C249.229 721.246 245.752 703.82 255.787 697.831C265.822 691.841 273.084 699.441 273.084 699.441C273.084 699.441 270.883 678.724 290.25 674.281C309.616 669.839 313.489 696.207 313.489 696.207C313.489 696.207 316.922 690.631 325.902 691.325C334.883 692.019 333.297 704.696 333.297 704.696C333.297 704.696 339.988 700.922 349.055 707.033C358.121 713.146 353.104 723.534 353.104 723.534C353.104 723.534 361.377 721.596 366.483 727.407C371.589 733.217 370.884 746.793 370.884 746.793H221.413Z" fill="#D47274"/>
<path d="M1088.83 746.793C1088.83 746.793 1089.06 731.458 1078.11 724.468C1067.16 717.478 1061.33 720.04 1061.33 720.04C1061.33 720.04 1062.27 708.856 1053.88 701.633C1045.49 694.409 1031.98 696.041 1031.98 696.041C1031.98 696.041 1034.46 655.421 999.979 649.519C965.494 643.617 959.592 682.76 959.592 682.76C959.592 682.76 938.778 675.77 925.886 686.334C910.87 698.636 913.926 721.906 913.926 721.906C913.926 721.906 900.878 718.799 893.421 724.701C885.965 730.604 886.276 746.793 886.276 746.793H1088.83Z" fill="#C55A5C"/>
<path d="M1054.7 746.793C1054.7 746.793 1054.85 736.627 1047.59 731.992C1040.33 727.357 1036.47 729.057 1036.47 729.057C1036.47 729.057 1037.09 721.641 1031.53 716.853C1025.97 712.065 1017.01 713.146 1017.01 713.146C1017.01 713.146 1018.65 686.215 995.791 682.301C972.927 678.388 969.013 704.34 969.013 704.34C969.013 704.34 955.212 699.705 946.665 706.71C936.71 714.865 938.735 730.294 938.735 730.294C938.735 730.294 930.085 728.234 925.141 732.148C920.197 736.061 920.404 746.795 920.404 746.795H1054.7V746.793Z" fill="#D47274"/>
<path d="M1372.93 746.793C1372.93 746.793 1374.85 723.116 1359.27 714.824C1346.44 707.994 1338.13 714.824 1338.13 714.824C1338.13 714.824 1342.48 693.019 1329.92 685.523C1317.36 678.027 1308.27 687.536 1308.27 687.536C1308.27 687.536 1311.03 661.611 1286.79 656.052C1262.56 650.494 1257.72 683.489 1257.72 683.489C1257.72 683.489 1253.42 676.51 1242.18 677.38C1230.95 678.251 1232.93 694.112 1232.93 694.112C1232.93 694.112 1224.56 689.388 1213.21 697.037C1201.87 704.686 1208.15 717.685 1208.15 717.685C1208.15 717.685 1197.79 715.262 1191.4 722.532C1185.01 729.803 1185.9 746.791 1185.9 746.791H1372.93V746.793Z" fill="#D47274"/>
<path d="M1344.81 746.793C1344.81 746.793 1346.15 730.237 1335.26 724.439C1326.29 719.663 1320.47 724.439 1320.47 724.439C1320.47 724.439 1323.52 709.192 1314.73 703.953C1305.95 698.712 1299.6 705.362 1299.6 705.362C1299.6 705.362 1301.52 687.235 1284.58 683.348C1267.64 679.461 1264.25 702.534 1264.25 702.534C1264.25 702.534 1261.24 697.653 1253.39 698.262C1245.53 698.87 1246.92 709.962 1246.92 709.962C1246.92 709.962 1241.07 706.658 1233.13 712.008C1225.2 717.357 1229.59 726.444 1229.59 726.444C1229.59 726.444 1222.35 724.75 1217.88 729.834C1213.42 734.917 1214.03 746.795 1214.03 746.795H1344.81V746.793Z" fill="#D67F80"/>
<path d="M561.672 746.793C561.672 746.793 555.729 713.832 573.61 700.094C588.261 688.837 601.827 697.928 601.827 697.928C601.827 697.928 596.4 673.814 613.222 657.639C626.313 645.05 647.952 652.9 647.952 652.9C647.952 652.9 648.222 636.877 658.262 629.823C668.301 622.768 675.627 626.44 675.627 626.44C675.627 626.44 685.564 596.722 717.359 595.907C749.156 595.093 757.567 627.653 757.567 627.653C757.567 627.653 776.831 629.281 788.498 637.692C800.166 646.103 800.436 659.126 800.436 659.126C800.436 659.126 815.042 658.854 826.325 672.692C837.607 686.531 833.81 700.639 833.81 700.639C833.81 700.639 847.649 701.725 855.245 709.323C862.843 716.921 862.3 731.843 862.3 731.843C862.3 731.843 868.54 727.773 874.51 734.013C880.48 740.254 882.108 746.795 882.108 746.795H561.672V746.793Z" fill="#C55A5C"/>
<path d="M615.323 746.793C615.323 746.793 611.377 724.902 623.251 715.778C632.981 708.301 641.992 714.338 641.992 714.338C641.992 714.338 638.388 698.325 649.562 687.581C658.256 679.221 672.629 684.433 672.629 684.433C672.629 684.433 672.809 673.792 679.477 669.106C686.145 664.42 691.009 666.86 691.009 666.86C691.009 666.86 697.608 647.121 718.727 646.58C739.846 646.04 745.431 667.664 745.431 667.664C745.431 667.664 758.225 668.746 765.974 674.333C773.724 679.92 773.902 688.568 773.902 688.568C773.902 688.568 783.604 688.388 791.097 697.58C798.591 706.771 796.068 716.141 796.068 716.141C796.068 716.141 805.259 716.861 810.303 721.908C815.35 726.954 814.989 736.864 814.989 736.864C814.989 736.864 819.134 734.161 823.099 738.306C827.064 742.451 828.145 746.795 828.145 746.795H615.323V746.793Z" fill="#D47274"/>
</g>
<path opacity="0.2" d="M1049.38 971.952C1128.99 971.952 1193.53 960.681 1193.53 946.778C1193.53 932.875 1128.99 921.604 1049.38 921.604C969.775 921.604 905.238 932.875 905.238 946.778C905.238 960.681 969.775 971.952 1049.38 971.952Z" fill="#DADCDC"/>
<path d="M1053 497.73C1053 497.73 1044.68 504.508 1034.03 512.209C1020.07 522.306 1002.08 534 993.708 534C979.904 534 927.086 472.56 924.403 467.685C924.301 467.501 924.26 467.399 924.301 467.378C924.322 467.358 924.342 467.337 924.383 467.317C925.817 466.19 936.855 454.824 936.855 454.824C936.855 454.824 939.006 456.278 942.446 458.633C942.446 458.633 942.467 458.654 942.508 458.674C942.59 458.715 942.651 458.777 942.733 458.838C942.795 458.899 942.876 458.94 942.958 459.002C957.11 468.546 991.086 491.381 993.011 491.094C993.667 491.012 996.104 489.435 999.319 487.203C999.647 486.978 999.995 486.732 1000.34 486.486C1005.48 482.902 1012.18 477.925 1016.75 474.485C1019.84 472.15 1021.97 470.532 1021.97 470.532L1053 497.73Z" fill="#82435C"/>
<path opacity="0.3" d="M1000.83 486.916C1000.83 486.916 991.719 498.694 989.036 497.281C986.517 495.95 947.996 462.627 942.958 459.002C957.11 468.546 991.086 491.381 993.011 491.094C993.667 491.012 996.104 489.435 999.319 487.203C999.647 486.978 999.995 486.732 1000.34 486.486C1000.67 486.752 1000.83 486.916 1000.83 486.916Z" fill="#E9E9E9"/>
<path opacity="0.3" d="M1036.8 492.036C1036.8 492.036 1035.61 501.293 1034.03 512.209C1020.07 522.306 1002.08 534 993.708 534C979.904 534 927.086 472.56 924.403 467.685C924.403 467.563 924.383 467.44 924.383 467.317C925.817 466.19 936.855 454.824 936.855 454.824C936.855 454.824 939.006 456.278 942.446 458.633C941.975 463.303 941.75 469.467 943.347 472.785C946.174 478.622 981.502 519.438 994.302 519.049C1007.1 518.66 1006.08 516.858 1003.52 508.052C1001.39 500.699 999.954 491.074 999.319 487.203C1004.56 483.578 1011.87 478.151 1016.75 474.485L1036.8 492.036Z" fill="#4A6C8E"/>
<path d="M939.436 459.76C939.395 460.046 939.313 460.313 939.251 460.599C939.108 461.152 938.965 461.705 938.78 462.258C938.084 464.45 937.142 466.579 935.811 468.423C930.056 476.451 926.042 477.495 926.042 477.495L919.079 467.563L910.518 464.941C910.518 464.941 898.496 473.666 895.179 472.621C891.861 471.556 892.209 469.815 893.09 467.726C893.95 465.637 898.66 458.654 898.66 458.654C898.66 458.654 897.452 457.957 894.994 457.957C892.557 457.957 884.365 467.726 881.58 469.651C878.774 471.556 874.432 473.338 871.975 470.532C870.541 468.873 872.896 463.63 876.091 458.613C876.378 458.142 876.685 457.691 876.992 457.241C878.999 454.23 881.232 451.465 882.972 449.765C887.847 445.055 895.527 437.723 899.541 437.027C903.555 436.331 914.02 442.085 921.516 443.826C929.011 445.587 940.337 447.144 940.337 447.144C940.337 447.144 940.91 453.308 939.436 459.76Z" fill="#6D799A"/>
<path opacity="0.3" d="M939.436 459.76C940.03 455.991 939.518 448.741 939.518 448.741C939.518 448.741 937.47 447.758 934.664 447.492C931.838 447.226 921.987 445.444 915.577 443.519C909.187 441.614 903.678 438.153 899.705 439.423C895.752 440.713 876.992 457.241 876.992 457.241C878.999 454.23 881.232 451.465 882.972 449.765C887.847 445.055 895.527 437.723 899.541 437.027C903.555 436.331 914.02 442.085 921.516 443.826C929.011 445.587 940.337 447.144 940.337 447.144C940.337 447.144 940.91 453.308 939.436 459.76Z" fill="#E9E9E9"/>
<path opacity="0.3" d="M938.781 462.258C938.084 464.45 937.142 466.579 935.811 468.423C930.056 476.451 926.042 477.495 926.042 477.495L919.079 467.563L910.518 464.941C910.518 464.941 898.496 473.666 895.179 472.621C891.861 471.556 892.209 469.815 893.09 467.726C893.95 465.637 898.66 458.654 898.66 458.654C898.66 458.654 897.452 457.957 894.994 457.957C892.557 457.957 884.365 467.726 881.58 469.652C878.774 471.556 874.432 473.338 871.975 470.532C870.541 468.873 872.896 463.63 876.091 458.613C878.119 458.94 880.802 458.797 884.058 457.241C891.554 453.636 898.21 447.328 902.654 449.028C907.098 450.728 902.183 457.22 906.013 458.756C909.822 460.292 913.058 454.353 920.062 457.241C927.066 460.128 930.65 463.794 937.634 462.381C938.043 462.299 938.432 462.258 938.781 462.258Z" fill="#4A6C8E"/>
<path d="M1078.35 470.86C1074.28 478.376 1063.09 489.988 1052.73 499.921C1041.79 510.386 1031.74 518.967 1031.74 518.967C1031.74 518.967 1025.96 515.629 1019.25 509.178C1017.01 507.027 1014.68 504.529 1012.41 501.703C1010.48 499.286 1008.8 497.074 1007.37 495.047C1007.37 495.026 1007.35 494.985 1007.33 494.965C1000.73 485.646 999.033 480.363 999.033 478.458C999.033 477.086 1038.07 437.17 1046.01 429.06C1046.91 428.139 1047.43 427.627 1047.43 427.627C1047.43 427.627 1065.47 423.428 1074.62 432.071C1083.78 440.693 1086.73 455.438 1078.35 470.86Z" fill="#D6DD40"/>
<path opacity="0.3" d="M1002.49 482.472C1001.94 484.336 1004.83 490.316 1007.33 494.965C1000.73 485.646 999.033 480.363 999.033 478.458C999.033 477.086 1038.07 437.17 1046.01 429.06C1046.85 429.838 1047.39 430.35 1047.39 430.35L1045.6 431.866C1045.6 431.866 1003.46 479.298 1002.49 482.472Z" fill="#E9E9E9"/>
<path opacity="0.3" d="M1066.43 443.273L1052.73 499.921C1041.79 510.386 1031.74 518.967 1031.74 518.967C1031.74 518.967 1025.96 515.629 1019.25 509.178C1020.95 506.597 1022.52 503.935 1023.49 501.764C1026.29 495.354 1025.02 491.258 1020.93 490.234C1016.83 489.21 1025.53 482.82 1030.8 472.785C1036.04 462.75 1045.6 431.866 1045.6 431.866L1066.43 443.273Z" fill="#4A6C8E"/>
<path d="M966.557 825.174C974.981 819.649 1027.52 821.434 1034.03 829.829C1034.03 829.829 1020.5 835.502 998.822 833.651C977.148 831.801 966.557 825.174 966.557 825.174Z" fill="#276761"/>
<path d="M1089.64 630.501C1082 653.5 1037.82 732.512 1037.82 732.512C1037.82 732.512 1039.4 747.319 1035.84 766.243C1032.25 785.146 1021.09 846.381 1021.09 846.381L976.341 843.698C976.341 843.698 976.341 834.441 976.382 820.658C976.546 784.47 977.098 717.091 979.249 704.496C981.215 693.027 1004.11 645.616 1019.57 614.507V614.486C1019.59 614.466 1019.59 614.466 1019.59 614.466C1020.93 611.762 1022.22 609.202 1023.42 606.786C1029.45 594.723 1033.62 586.572 1033.62 586.572L1099.96 580.694C1099.96 580.694 1097.28 607.502 1089.64 630.501Z" fill="#18203B"/>
<path opacity="0.3" d="M1019.57 614.507C1018.71 616.595 991.271 683.033 984.574 704.578C977.774 726.491 976.382 820.658 976.382 820.658C976.546 784.47 977.099 717.091 979.249 704.496C981.215 693.027 1004.11 645.616 1019.57 614.507Z" fill="#E9E9E9"/>
<path opacity="0.3" d="M1089.64 630.501C1082 653.5 1037.82 732.512 1037.82 732.512C1037.82 732.512 1039.4 747.319 1035.84 766.243C1032.25 785.146 1021.09 846.381 1021.09 846.381L976.341 843.698C976.341 843.698 976.341 834.441 976.382 820.658C988.772 819.327 1001.9 816.685 1004.09 811.422C1008.41 801.059 1012.06 756.904 1016.79 725.221C1021.54 693.518 1039.87 677.38 1047.55 666.956C1055.23 656.532 1060.86 641.54 1045.6 643.138C1030.33 644.735 1041.41 641.54 1053 630.276C1064.59 619.012 1064.24 617.108 1053 614.998C1045.28 613.564 1031.6 609.223 1023.42 606.786C1029.45 594.723 1033.62 586.572 1033.62 586.572L1099.96 580.694C1099.96 580.694 1097.28 607.502 1089.64 630.501Z" fill="#21394C"/>
<path d="M1034.03 829.833C1034.03 829.833 1026.07 869.012 1024.24 891.335C1022.77 909.419 1023.63 930.042 1022.48 938.848C1022.2 940.917 1021.83 942.35 1021.27 942.924C1018.39 945.975 990.902 947.962 971.753 947.982C951.949 948.003 923.564 948.556 920.041 946.672C918.915 946.057 918.3 943.763 918.198 940.732C918.075 937.189 918.649 932.643 919.959 928.69C920.983 925.516 922.478 922.731 924.424 921.133C930.875 915.829 964.544 910.402 970.156 904.626C975.767 898.851 966.551 825.184 966.551 825.184C966.551 825.184 973.105 829.26 998.09 830.632C999.053 830.693 1000.04 830.734 1001.04 830.775C1028.48 831.963 1034.03 829.833 1034.03 829.833Z" fill="#8F5551"/>
<path opacity="0.3" d="M1034.03 829.833C1034.03 829.833 1026.07 869.011 1024.24 891.335C1022.77 909.419 1023.63 930.042 1022.48 938.848C1022.2 940.917 1021.83 942.35 1021.27 942.924C1018.39 945.975 990.902 947.962 971.753 947.982C951.949 948.003 923.564 948.556 920.041 946.672C918.915 946.057 918.3 943.763 918.198 940.732C918.075 937.189 918.649 932.643 919.959 928.69C921.966 928.588 923.994 928.67 926.042 928.936C951.97 932.356 997.026 926.212 1001.2 909.152C1004.87 894.14 999.442 842.838 998.09 830.632C999.053 830.693 1000.04 830.734 1001.04 830.775C1028.48 831.963 1034.03 829.833 1034.03 829.833Z" fill="#F15E39"/>
<path d="M978.745 942.842C1000.41 942.248 1013.99 940.61 1022.49 938.848C1022.2 940.917 1021.84 942.35 1021.28 942.924C1018.39 945.975 990.91 947.962 971.761 947.982C951.957 948.003 923.572 948.556 920.049 946.672C918.923 946.057 918.309 943.764 918.206 940.733C927.566 942.166 945.834 943.764 978.745 942.842Z" fill="#276761"/>
<path d="M1096.64 822.092C1096.64 822.092 1108.73 814.725 1131.37 812.233C1154 809.74 1166.37 813.74 1166.37 813.74C1166.37 813.74 1164.33 824.263 1134.05 825.797C1103.78 827.327 1096.64 822.092 1096.64 822.092Z" fill="#276761"/>
<path d="M1157.24 859.57L1115.91 864.875C1115.91 864.875 1115.79 864.465 1115.54 863.707C1112.16 852.812 1086.13 768.557 1079.09 729.481C1072.43 692.494 1079.38 585.568 1079.38 585.568L1153.53 590.77C1153.74 611.885 1152.65 636.564 1151.24 658.989C1149.17 692.167 1146.43 720.47 1146.16 725.221C1145.77 732.164 1148.48 742.691 1152.3 771.076C1153.88 782.647 1154.99 799.502 1155.75 815.395C1156.05 821.846 1156.32 828.133 1156.52 833.827C1157.06 848.613 1157.24 859.57 1157.24 859.57Z" fill="#18203B"/>
<path opacity="0.3" d="M1156.52 833.827C1143.56 845.152 1126.03 859.427 1115.54 863.707C1112.16 852.812 1086.13 768.557 1079.09 729.481C1072.43 692.494 1079.38 585.568 1079.38 585.568L1153.53 590.77C1153.74 611.885 1152.65 636.564 1151.24 658.989C1143.72 663.495 1135.78 667.017 1129.33 666.956C1111.71 666.792 1095.41 657.801 1093.67 662.635C1091.93 667.488 1096.58 685.572 1096.64 690.856C1096.7 696.16 1116.67 786.948 1126.48 800.608C1131.74 807.92 1144.79 812.61 1155.75 815.395C1156.05 821.846 1156.32 828.133 1156.52 833.827Z" fill="#21394C"/>
<path d="M1068.92 586.637C1068.92 586.637 1061.73 624.74 1063.9 632.504C1066.07 640.268 1076.11 643.14 1076.11 643.14L1086.48 587.33L1068.92 586.637Z" fill="#18203B"/>
<path d="M1164.61 942.268C1164.72 944.46 1164.65 946.078 1164.37 946.856C1163.08 950.276 1124.64 951.484 1098.16 951.177C1088.63 951.075 1081.14 950.972 1075.36 950.87C1065.02 950.645 1060.17 950.317 1059.08 949.641C1058.59 949.334 1058.02 947.634 1057.75 945.177C1057.03 939.094 1058.14 928.363 1066.82 922.71C1079.03 914.764 1107 915.378 1112.49 907.903C1117.98 900.448 1096.62 822.092 1096.62 822.092C1096.62 822.092 1104.07 826.024 1131.25 823.464C1131.93 823.403 1132.58 823.341 1133.22 823.28C1158.82 820.535 1166.35 813.736 1166.35 813.736C1166.35 813.736 1161.97 898.626 1162.16 910.852C1162.28 920.334 1164.31 934.711 1164.61 942.268Z" fill="#8F5C51"/>
<path opacity="0.3" d="M1136.13 913.412C1130.68 930.226 1119.99 946.897 1075.36 950.87C1065.02 950.645 1060.17 950.317 1059.08 949.641C1058.59 949.334 1058.02 947.634 1057.75 945.177C1057.03 939.094 1058.14 928.363 1066.82 922.71C1079.03 914.764 1107 915.378 1112.49 907.903C1117.98 900.448 1096.62 822.092 1096.62 822.092C1096.62 822.092 1104.07 826.024 1131.25 823.464C1131.93 823.403 1132.58 823.341 1133.22 823.28C1135.88 849.863 1140.24 900.715 1136.13 913.412Z" fill="#F15E39"/>
<path d="M1164.38 946.856C1163.09 950.276 1124.64 951.485 1098.16 951.177C1071.66 950.891 1060.79 950.706 1059.09 949.641C1058.6 949.334 1058.02 947.634 1057.76 945.177C1074.37 945.709 1127.84 946.918 1164.62 942.269C1164.72 944.46 1164.66 946.078 1164.38 946.856Z" fill="#276761"/>
<path d="M1153.66 503.792C1150.03 543.707 1154.99 594.866 1154.99 594.866C1154.99 594.866 1117.35 596.095 1086.46 593.863C1081.75 593.514 1077.2 593.105 1072.97 592.593C1072.8 592.572 1072.66 592.552 1072.49 592.531C1049.64 589.705 1038.23 588.394 1033.58 587.882C1031.7 587.678 1030.92 587.596 1030.92 587.596C1030.92 587.596 1034.3 501.068 1038.01 473.338C1041.73 445.628 1045.69 428.548 1048.41 424.595C1051.13 420.643 1076.67 404.115 1086.28 400.347C1103.83 393.425 1112.43 393.65 1115.73 394.162C1119.02 394.654 1154.58 407.433 1161.99 415.195C1167.09 420.52 1163 441.41 1158.74 466.907C1156.79 478.581 1154.8 491.237 1153.66 503.792Z" fill="#D6DD40"/>
<path opacity="0.3" d="M1072.92 528.962C1072.72 549.523 1072.88 578.503 1072.97 592.593C1072.8 592.572 1072.66 592.552 1072.49 592.532C1049.64 589.705 1038.23 588.395 1033.58 587.883C1037 551.469 1044.13 477.475 1045.6 475.816C1047.55 473.604 1072.92 416.014 1072.92 416.014C1072.92 416.014 1073.19 500.843 1072.92 528.962Z" fill="#4A6C8E"/>
<path opacity="0.3" d="M1154.99 594.866C1154.99 594.866 1117.35 596.095 1086.46 593.863C1086.5 560.48 1087.22 476.799 1093.04 454.824C1100.35 427.196 1133.69 420.889 1133.69 420.889L1158.74 466.907C1156.79 478.581 1154.8 491.237 1153.66 503.792C1150.03 543.707 1154.99 594.866 1154.99 594.866Z" fill="#4A6C8E"/>
<path d="M1166.25 419.476C1165.88 419.68 1165.27 419.639 1164.37 419.271C1159.35 417.264 1131.23 415.134 1127.93 447.451C1127.93 447.451 1127.93 447.472 1127.93 447.492C1127.75 449.315 1127.65 451.26 1127.63 453.308C1127.59 458.367 1128.22 462.811 1129.37 466.743C1135.74 489.005 1157.59 494.391 1157.59 494.391L1157.79 508.072L1157.96 518.967L1158.1 528.122L1158.26 539.488L1159.29 607.011C1129.92 609.346 1100.29 605.127 1093.67 604.103C1092.77 603.959 1092.3 603.877 1092.3 603.877C1092.3 603.877 1091.46 496.46 1092.69 469.488C1093.94 442.556 1101.37 419.885 1109.79 406.778C1113.78 400.572 1115.38 396.804 1115.93 394.551C1116.53 392.258 1116.06 391.561 1115.97 391.459C1116.38 391.602 1121.26 393.63 1127.61 396.272C1130.56 397.5 1133.77 398.832 1137.05 400.204H1137.07C1145.53 403.767 1154.07 407.413 1157.4 408.99C1163.69 411.98 1167.99 418.533 1166.25 419.476Z" fill="#C8424E"/>
<path d="M1157.97 518.967L1101.13 515.621C1101.13 515.621 1097.65 467.395 1108.04 430.533C1112.59 414.458 1121.58 402.737 1127.6 396.263C1130.55 397.49 1133.78 398.838 1137.04 400.204C1132.92 404.638 1124.35 415.429 1119.34 433.166C1110.02 466.168 1112.42 505.764 1112.42 505.764L1157.79 508.08L1157.97 518.967Z" fill="#F0D9DF"/>
<path opacity="0.3" d="M1166.25 419.476C1165.1 418.329 1159.24 417.258 1157.54 415.537C1150.83 408.779 1122.33 400.157 1114.75 397.535C1115.35 395.242 1116.06 391.561 1115.97 391.459C1116.38 391.602 1121.26 393.63 1127.61 396.272C1130.56 397.5 1133.77 398.832 1137.05 400.204H1137.07C1145.53 403.767 1154.07 407.413 1157.4 408.99C1163.69 411.98 1167.99 418.533 1166.25 419.476Z" fill="#E9E9E9"/>
<path opacity="0.3" d="M1159.29 607.011C1129.92 609.346 1100.29 605.127 1093.67 604.103C1110.42 599.618 1134.88 583.868 1117.67 580.694C1098.69 577.171 1137.15 568.324 1141.25 557.654C1145.34 547.004 1139.2 543.236 1135 517.616C1132.58 502.891 1130.62 481.919 1129.37 466.743C1135.74 489.005 1157.59 494.391 1157.59 494.391L1157.79 508.072L1157.96 518.967L1158.1 528.122L1158.26 539.488L1159.29 607.011Z" fill="#4A6C8E"/>
<path d="M1158.26 539.497L1101.25 535.597V524.569L1158.1 528.114L1158.26 539.497Z" fill="#F0D9DF"/>
<path d="M1112.77 395.145C1112.66 396.702 1107.05 404.054 1095.58 408.171C1085.81 411.693 1077.85 411.795 1076.62 409.379C1076.52 409.174 1076.5 405.426 1076.5 400.818C1076.52 393.077 1076.62 382.898 1076.62 382.898L1113.26 356.512C1113.26 356.512 1113.24 357.413 1113.18 358.806C1113.08 361.98 1112.34 377.737 1112.17 380.953C1111.93 385.581 1112.85 393.568 1112.77 395.145Z" fill="#82435C"/>
<path d="M1113.26 356.512C1113.26 356.512 1106.94 363.039 1106.88 364.431L1104.37 369.596C1104.37 369.596 1101.07 386.238 1076.5 400.82C1076.52 393.079 1076.62 382.9 1076.62 382.9L1113.26 356.512Z" fill="#18203B"/>
<path d="M1133.22 329.63C1131.31 319.165 1127.83 308.023 1121.81 305.177C1120.83 307.368 1120.23 308.822 1120.23 308.822C1122.45 329.384 1117.04 369.136 1090.41 381.321C1090.39 381.342 1090.37 381.342 1090.35 381.342C1085.74 382.98 1081.1 384.168 1076.69 384.823C1075.61 384.987 1074.54 385.11 1073.52 385.213H1073.4C1072.39 385.294 1071.41 385.356 1070.45 385.376C1070.43 385.376 1070.43 385.376 1070.43 385.376C1064.83 385.52 1060.04 384.496 1056.81 382.038C1051.93 378.331 1049.5 355.025 1054.39 332.436C1054.78 330.613 1055.23 328.77 1055.72 326.967C1057.13 321.786 1058.98 316.727 1061.29 312.038C1064.2 306.16 1067.89 300.896 1072.43 296.739C1080.65 289.202 1091.75 285.311 1106.43 287.994C1114.89 289.55 1121.07 293.073 1125.37 297.845C1132.77 306.016 1134.69 317.833 1133.22 329.63Z" fill="#82435C"/>
<path opacity="0.3" d="M1070.43 385.376C1064.84 385.52 1060.05 384.496 1056.81 382.038C1051.94 378.331 1049.5 355.025 1054.4 332.436C1054.23 334.791 1051.63 369.934 1057.08 377.86C1061.32 384.025 1067.59 385.192 1070.43 385.376Z" fill="#E9E9E9"/>
<path opacity="0.3" d="M1120.23 308.822C1122.45 329.384 1117.04 369.136 1090.41 381.321C1090.39 381.342 1090.37 381.342 1090.35 381.342C1085.74 382.98 1081.1 384.168 1076.69 384.823C1089.29 371.634 1090.91 336.941 1087.51 334.217C1084.91 332.128 1067.66 329.2 1055.72 326.967C1057.13 321.786 1058.98 316.727 1061.29 312.037C1064.2 306.16 1067.89 300.896 1072.43 296.739C1087.44 298.971 1111.86 302.74 1120.32 304.644C1120.83 304.767 1121.32 304.931 1121.81 305.177C1120.83 307.368 1120.23 308.822 1120.23 308.822Z" fill="#4A6C8E"/>
<path d="M1117.46 365.201C1115.76 366.944 1113.8 368.626 1111.64 370.229C1108.43 368.189 1103.33 361.935 1103.19 359.598C1103.01 356.946 1113.16 346.145 1106.56 342.186C1099.97 338.227 1096.75 347.542 1091.96 346.728C1087.17 345.897 1094.44 323.961 1090.64 320.16C1087.43 316.932 1067.26 313.113 1061.3 312.044C1069.47 295.553 1083.61 283.812 1106.43 287.99C1146.35 295.318 1135.52 346.63 1117.46 365.201Z" fill="#18203D"/>
<path d="M1107.47 356.295C1107.33 356.561 1107.19 356.807 1107.02 357.052C1103.6 362.316 1096.87 363.831 1094.63 362.889C1092.3 361.906 1092.71 354.595 1094.63 346.567C1094.82 345.768 1095.19 344.724 1095.74 343.679C1097.34 340.607 1100.51 337.392 1105.49 339.296C1110.32 341.14 1111.18 349.536 1107.47 356.295Z" fill="#82435C"/>
<path d="M1098.37 357.239C1098.37 357.239 1098.41 357.13 1098.49 356.911C1098.76 356.149 1099.52 354.159 1100.7 352.115C1101.88 350.067 1103.5 347.99 1105.32 347.001C1105.81 346.726 1105.99 346.104 1105.72 345.61C1105.44 345.115 1104.82 344.937 1104.33 345.209C1101.63 346.722 1099.73 349.573 1098.41 352.027C1097.11 354.484 1096.44 356.575 1096.43 356.61C1096.25 357.149 1096.55 357.726 1097.08 357.9C1097.62 358.074 1098.2 357.777 1098.37 357.239Z" fill="#18203D"/>
<path d="M1105.09 355.332C1105.08 355.248 1105 354.349 1104.46 353.176C1103.92 352.006 1102.9 350.556 1101.06 349.493C1100.57 349.211 1099.94 349.379 1099.66 349.868C1099.37 350.358 1099.54 350.984 1100.03 351.267C1101.46 352.092 1102.19 353.159 1102.6 354.034C1102.8 354.47 1102.92 354.855 1102.98 355.121L1103.04 355.422L1103.04 355.49V355.492C1103.09 356.055 1103.58 356.477 1104.15 356.432C1104.71 356.389 1105.13 355.895 1105.09 355.332Z" fill="#18203D"/>
<path opacity="0.3" d="M1107.47 356.295C1107.33 356.561 1107.19 356.807 1107.02 357.052C1111.02 340.197 1100.92 340.402 1095.74 343.679C1097.34 340.607 1100.51 337.392 1105.49 339.296C1110.32 341.14 1111.18 349.536 1107.47 356.295Z" fill="#E9E9E9"/>
<path d="M1137.87 310.481C1137.56 318.837 1135.55 325.227 1135.55 325.227L1134.45 325.001L1133.3 324.776L1069.24 312.631L1066.8 312.16L1056.15 310.133C1056.15 310.133 1057.03 303.436 1060.92 295.694C1066.78 284.103 1079.4 270.217 1105.98 273.105C1133.98 276.156 1138.4 296.165 1137.87 310.481Z" fill="#DA9432"/>
<path opacity="0.3" d="M1137.87 310.481C1137.56 318.837 1135.55 325.227 1135.55 325.227L1134.45 325.001L1133.3 324.776C1133.79 314.27 1133.05 284.983 1109.77 282.894C1083.33 280.498 1070.84 308.699 1069.24 312.631L1066.8 312.16L1056.15 310.133C1056.15 310.133 1057.03 303.436 1060.92 295.694C1066.78 284.103 1079.4 270.217 1105.98 273.105C1133.98 276.156 1138.4 296.165 1137.87 310.481Z" fill="#CE8742"/>
<path opacity="0.3" d="M1137.87 310.481C1137.56 318.837 1135.55 325.227 1135.55 325.227L1134.45 325.001L1066.8 312.16L1056.15 310.133C1056.15 310.133 1057.03 303.436 1060.92 295.694C1077.51 301.777 1106.53 310.419 1137.87 310.481Z" fill="#CE8742"/>
<path d="M1137.89 309.723C1137.87 310.501 1137.83 311.28 1137.78 312.017C1137.31 319.595 1135.55 325.227 1135.55 325.227L1134.45 325.001C1134.59 323.875 1135.41 317.178 1135.02 309.58C1134.67 303.251 1133.5 296.309 1130.41 291.414C1123.2 280.048 1106.47 275.112 1088.98 281.481C1080.01 284.717 1074.4 292.684 1071.08 299.688C1067.91 306.364 1066.8 312.16 1066.8 312.16L1056.15 310.133C1056.15 310.133 1056.95 304.071 1060.37 296.821C1060.37 296.821 1060.39 296.8 1060.41 296.759C1060.39 296.739 1060.41 296.718 1060.43 296.677C1066.06 284.922 1078.62 270.135 1105.98 273.105C1133.48 276.095 1138.24 295.469 1137.89 309.723Z" fill="#E5A759"/>
<path opacity="0.3" d="M1137.89 309.723C1137.87 310.501 1137.83 311.28 1137.78 312.017C1137.72 309.58 1136.47 278.245 1106.94 274.313C1077.12 270.34 1061.31 295.305 1060.41 296.759C1060.39 296.739 1060.41 296.718 1060.43 296.677C1066.06 284.922 1078.62 270.135 1105.98 273.105C1133.48 276.095 1138.24 295.469 1137.89 309.723Z" fill="#E9E9E9"/>
<path opacity="0.3" d="M1060.37 296.821C1062.64 298.172 1066.06 299.401 1071.08 299.688C1067.91 306.364 1066.8 312.16 1066.8 312.16L1056.15 310.133C1056.15 310.133 1056.95 304.071 1060.37 296.821Z" fill="#CE8742"/>
<path opacity="0.3" d="M1137.89 309.723C1137.68 318.427 1135.55 325.227 1135.55 325.227L1134.45 325.001C1134.59 323.875 1135.41 317.178 1135.02 309.58C1136.02 309.662 1136.99 309.703 1137.89 309.723Z" fill="#CE8742"/>
<path d="M1142.95 329.855L1142.88 330.285L1142.54 332.415C1142.13 334.955 1139.71 336.654 1137.17 336.183L1046.79 319.41C1044.23 318.919 1042.57 316.4 1043.17 313.84L1043.54 312.263L1044.03 310.215C1044.17 309.621 1044.44 309.068 1044.78 308.597C1045.79 307.184 1047.59 306.426 1049.39 306.774L1139.32 324.633C1140.77 324.919 1141.92 325.861 1142.52 327.09C1142.95 327.909 1143.11 328.872 1142.95 329.855Z" fill="#DA9432"/>
<path opacity="0.3" d="M1142.52 327.09L1044.79 308.597C1045.79 307.184 1047.59 306.426 1049.39 306.774L1139.32 324.633C1140.77 324.919 1141.92 325.861 1142.52 327.09Z" fill="#E9E9E9"/>
<path opacity="0.3" d="M1142.88 330.285L1142.54 332.415C1142.13 334.955 1139.71 336.654 1137.17 336.183L1046.79 319.41C1044.23 318.919 1042.57 316.4 1043.17 313.84L1043.54 312.263L1142.88 330.285Z" fill="#CE8742"/>
<path d="M1217.74 621.47L1012.77 666.956L1010.81 660.136L1006.71 645.964L1005.77 642.708L1212.5 603.12C1212.5 603.12 1213.52 604.185 1214.69 605.741C1215.85 607.298 1217.17 609.387 1217.74 611.373C1218 612.315 1218.19 613.196 1218.29 614.015C1219.05 618.725 1217.74 621.47 1217.74 621.47Z" fill="#D6D2D1"/>
<path opacity="0.3" d="M1214.69 605.741C1195.33 608.465 1147.51 615.387 1131.56 620.016C1115.05 624.808 1035.34 640.414 1006.71 645.964L1005.77 642.708L1212.5 603.12C1212.5 603.12 1213.52 604.185 1214.69 605.741Z" fill="#E9E9E9"/>
<path opacity="0.3" d="M1217.74 621.47L1012.77 666.956L1010.81 660.136L1016.79 654.75L1218.29 614.015C1219.05 618.725 1217.74 621.47 1217.74 621.47Z" fill="#4A6C8E"/>
<path opacity="0.3" d="M1016.8 654.74C1016.8 654.74 1185.78 617.167 1218.54 614.335L1016.8 654.74Z" fill="#E9E9E9"/>
<path d="M1005.76 642.712C995.954 646.177 1003.69 668.981 1012.78 666.964C1021.88 664.945 1015.58 639.246 1005.76 642.712Z" fill="#E9E9E9"/>
<path opacity="0.3" d="M1007 647.047C1000.73 649.263 1005.67 663.851 1011.49 662.559C1017.3 661.269 1013.28 644.831 1007 647.047Z" fill="#4A6C8E"/>
<path opacity="0.3" d="M1008.03 650.643C1004.69 651.823 1007.32 659.593 1010.42 658.905C1013.51 658.217 1011.37 649.464 1008.03 650.643Z" fill="#4A6C8E"/>
<path d="M1222.55 520.626C1223.21 528.88 1208.03 553.947 1193.18 571.437C1178.33 588.927 1155.23 614.343 1155.23 614.343L1137.09 602.137C1137.09 602.137 1138.26 599.925 1140.18 596.361C1141 594.907 1141.92 593.207 1142.93 591.364C1147.39 583.131 1153.76 571.519 1159.49 561.525C1159.49 561.525 1159.49 561.525 1159.51 561.504C1163.92 553.824 1167.93 547.107 1170.41 543.564C1172.05 541.229 1173.5 539.12 1174.79 537.215C1179.97 529.596 1182.29 525.582 1182.29 525.582L1158.26 487.633L1196.21 472.785C1196.21 472.785 1202.42 482.349 1208.81 493.06C1215.42 504.14 1222.22 516.428 1222.55 520.626Z" fill="#82435C"/>
<path opacity="0.3" d="M1222.55 520.626C1223.21 528.88 1208.03 553.947 1193.18 571.437C1178.33 588.927 1155.23 614.343 1155.23 614.343L1137.09 602.137C1137.09 602.137 1139.42 597.754 1142.93 591.364C1150.67 592.327 1160.7 592.245 1165.47 586.633C1173.83 576.782 1222.55 520.626 1222.55 520.626Z" fill="#4A6C8E"/>
<path opacity="0.3" d="M1208.81 493.06C1204.55 496.501 1195.21 504.365 1193.63 508.051C1191.59 512.864 1191.95 522.285 1190.91 524.579C1189.91 526.811 1160.44 560.439 1159.51 561.504C1163.92 553.824 1167.93 547.107 1170.41 543.564C1178.66 531.849 1182.29 525.582 1182.29 525.582L1158.26 487.633L1196.21 472.785C1196.21 472.785 1202.42 482.349 1208.81 493.06Z" fill="#4A6C8E"/>
<path opacity="0.3" d="M1174.79 537.215L1142.1 603.14L1140.18 596.361C1141 594.907 1141.92 593.207 1142.93 591.364C1147.39 583.131 1153.76 571.519 1159.49 561.525C1159.49 561.525 1159.49 561.525 1159.51 561.504C1163.92 553.824 1167.93 547.107 1170.41 543.564C1172.05 541.229 1173.5 539.12 1174.79 537.215Z" fill="#E9E9E9"/>
<path d="M1165.47 611.045C1165.47 611.045 1156.73 623.579 1155.75 626.549C1154.74 629.518 1153.76 640.229 1151.12 645.841C1148.48 651.452 1142.21 656.818 1139.36 657.31C1136.51 657.801 1133.42 657.678 1131.56 657.31C1129.72 656.941 1123.53 658.948 1120.32 657.637C1117.1 656.327 1115.24 654.217 1112.51 653.48C1109.79 652.743 1101.13 650.387 1099.77 648.032C1098.4 645.677 1108.31 633.184 1109.05 629.6C1109.79 626.016 1105.59 623.538 1105.59 623.538C1105.59 623.538 1106.74 617.21 1110.34 615.285C1110.63 615.1 1110.96 614.978 1111.28 614.875C1115.6 613.626 1121.42 612.397 1125.01 610.165C1127.75 608.465 1133.4 599.331 1135.86 595.173C1136.64 593.904 1137.09 593.105 1137.09 593.105C1137.09 593.105 1142.7 599.269 1148.39 602.382C1157.14 607.154 1165.47 611.045 1165.47 611.045Z" fill="#6D799A"/>
<path opacity="0.3" d="M1165.47 611.045C1165.47 611.045 1156.73 623.579 1155.75 626.549C1154.74 629.518 1153.76 640.229 1151.12 645.841C1148.48 651.452 1142.21 656.818 1139.36 657.31C1136.51 657.801 1133.42 657.678 1131.56 657.31C1129.72 656.941 1123.53 658.948 1120.32 657.637C1117.1 656.327 1115.24 654.217 1112.51 653.48C1109.79 652.743 1101.13 650.387 1099.77 648.032C1098.4 645.677 1108.31 633.184 1109.05 629.6C1109.79 626.016 1105.59 623.538 1105.59 623.538C1105.59 623.538 1106.74 617.21 1110.34 615.285C1111.61 616.718 1112.82 618.377 1113.6 620.118C1115.91 625.34 1107.45 640.762 1109.24 642.4C1111.04 644.018 1125.89 647.438 1132.56 642.4C1139.22 637.362 1149.95 616.452 1144.32 610.82C1138.69 605.188 1135.86 595.173 1135.86 595.173C1136.64 593.904 1137.09 593.105 1137.09 593.105C1137.09 593.105 1142.7 599.269 1148.39 602.382C1157.14 607.154 1165.47 611.045 1165.47 611.045Z" fill="#4A6C8E"/>
<path d="M1210.92 483.824C1210.92 483.824 1204.2 491.647 1189.84 499.696C1189.78 499.737 1189.7 499.778 1189.64 499.819C1177.86 506.372 1165.7 509.731 1165.7 509.731C1165.7 509.731 1139.44 475.734 1133.69 465.187C1127.93 454.619 1125.31 434.201 1140.47 422.937C1141.47 422.199 1142.43 421.544 1143.4 420.971C1149.44 417.305 1154.78 416.629 1159.31 417.509C1164.27 418.513 1168.26 421.38 1171.15 424.268C1177.09 430.207 1210.92 483.824 1210.92 483.824Z" fill="#D6DD40"/>
<path opacity="0.3" d="M1210.92 483.824C1210.92 483.824 1204.2 491.647 1189.84 499.696C1189.78 499.737 1189.7 499.778 1189.64 499.819C1189.64 499.819 1207.81 484.52 1207.29 482.82C1206.78 481.12 1185.79 448.68 1175.39 434.344C1164.96 420.008 1159.29 417.53 1159.29 417.53L1159.31 417.509C1164.27 418.513 1168.26 421.38 1171.15 424.268C1177.09 430.207 1210.92 483.824 1210.92 483.824Z" fill="#E9E9E9"/>
<path opacity="0.3" d="M1189.84 499.696C1189.78 499.737 1189.7 499.778 1189.64 499.819C1177.86 506.372 1165.7 509.731 1165.7 509.731C1165.7 509.731 1139.44 475.734 1133.69 465.187C1127.93 454.619 1125.31 434.201 1140.47 422.937C1141.47 422.199 1142.43 421.544 1143.4 420.971C1146.67 430.268 1152.39 445.751 1157.24 454.824C1166.35 471.884 1178.09 472.662 1183.74 476.164C1186.57 477.905 1172.33 477.024 1173.85 480.772C1175.61 485.196 1183.66 493.613 1189.84 499.696Z" fill="#4A6C8E"/>
<path d="M1072.92 404.566C1072.92 404.566 1072.9 405.57 1072.86 407.249C1072.66 413.925 1072.17 431.211 1072.17 437.805C1072.17 446.038 1067.56 482.001 1067.21 509.731C1066.9 536.048 1064.61 595.911 1064.38 601.809C1064.36 602.116 1064.36 602.28 1064.36 602.28C1064.36 602.28 1045.44 602.526 1027.62 597.324C1027.62 597.324 1029.26 563.429 1030.8 532.668C1030.96 529.166 1031.15 525.726 1031.31 522.347C1031.45 519.397 1031.6 516.53 1031.74 513.765C1031.9 510.468 1032.05 507.355 1032.19 504.427C1032.48 498.999 1032.72 494.309 1032.91 490.746C1033.58 477.905 1036.63 461.009 1039.95 447.062C1041.71 439.546 1043.56 432.89 1045.15 428.18C1046.36 424.677 1047.39 422.261 1048.16 421.38C1049.97 419.373 1055.78 415.359 1061.31 411.775C1064.06 410.014 1066.72 408.355 1068.81 407.065C1071.25 405.549 1072.92 404.566 1072.92 404.566Z" fill="#C8424E"/>
<path d="M1067.55 434.827C1065.57 449.675 1063.26 466.504 1062.42 477.213C1061.61 487.942 1060.82 513.679 1060.82 513.679L1031.74 513.759C1031.9 510.472 1032.06 507.345 1032.19 504.435L1051.28 503.82C1051.28 503.82 1052.21 481.905 1053.69 469.492C1055.18 457.099 1058.96 437.123 1059.95 431.026C1060.66 426.611 1061.12 416.852 1061.32 411.783C1064.05 410.022 1066.72 408.359 1068.8 407.071C1068.94 412.041 1069.06 423.602 1067.55 434.827Z" fill="#F0D9DF"/>
<path opacity="0.3" d="M1072.92 404.566C1072.92 404.566 1072.9 405.57 1072.86 407.249C1068.87 409.358 1061.66 417.083 1058.09 420.258C1053.36 424.477 1045.15 428.18 1045.15 428.18C1046.36 424.677 1047.39 422.261 1048.16 421.38C1049.97 419.373 1055.78 415.359 1061.31 411.775C1064.06 410.014 1066.72 408.355 1068.81 407.065C1071.25 405.549 1072.92 404.566 1072.92 404.566Z" fill="#E9E9E9"/>
<path d="M1060.41 522.353V532.034L1030.79 532.666C1030.97 529.162 1031.15 525.718 1031.3 522.353H1060.41Z" fill="#F0D9DF"/>
<path opacity="0.3" d="M1044.95 585.568C1047.9 586.674 1057.24 597.918 1064.38 601.809C1064.36 602.116 1064.36 602.28 1064.36 602.28C1064.36 602.28 1045.44 602.526 1027.62 597.324C1027.62 597.324 1029.26 563.429 1030.8 532.668C1030.96 529.166 1031.15 525.726 1031.31 522.347C1031.45 519.397 1031.6 516.53 1031.74 513.765C1031.9 510.468 1032.05 507.355 1032.19 504.427C1032.48 498.999 1032.72 494.309 1032.91 490.746C1033.58 477.905 1036.63 461.009 1039.95 447.062C1040.71 447.861 1041.16 448.741 1041.16 448.741C1041.16 448.741 1035.61 541.188 1036.8 557.92C1037.99 574.632 1041.32 584.217 1044.95 585.568Z" fill="#4A6C8E"/>
<path d="M1073.52 385.212C1074.5 385.049 1075.55 384.926 1076.69 384.823C1075.61 384.987 1074.54 385.11 1073.52 385.212Z" fill="#CE8742"/>
<path opacity="0.2" d="M747.608 971.952C827.218 971.952 891.754 960.681 891.754 946.778C891.754 932.875 827.218 921.604 747.608 921.604C667.998 921.604 603.461 932.875 603.461 946.778C603.461 960.681 667.998 971.952 747.608 971.952Z" fill="#9FAAA9"/>
<path d="M813.34 450.83C807.401 455.52 773.568 465.269 748.337 461.541C723.085 457.835 697.936 455.582 692.242 449.643C686.549 443.703 678.951 425.824 684.644 410.485C690.337 395.145 705.923 391.438 709.896 381.035C713.849 370.651 711.37 364.22 715.098 360.739C718.805 357.278 721.385 344.662 722.942 336.982C724.498 329.323 732.403 313.225 756.16 313.737C777.541 314.167 782.887 326.844 786.368 338.969C789.543 350.069 786.901 357.544 789.297 362.009C789.297 362.05 789.317 362.091 789.358 362.131C789.379 362.172 789.42 362.254 789.461 362.336C789.645 362.623 789.85 362.91 790.075 363.176C793.782 367.436 797.489 374.604 797.735 380.543C797.98 386.482 803.182 393.159 805.66 396.128C808.138 399.098 808.138 399.589 807.893 404.054C807.647 408.355 817.17 418.042 818.645 427.401C818.645 427.422 818.645 427.422 818.645 427.422C818.706 427.729 818.747 428.016 818.768 428.302C819.771 437.948 819.28 446.12 813.34 450.83Z" fill="#80455D"/>
<path opacity="0.5" d="M724.025 385.112C724.025 385.112 724.537 394.115 724.025 401.605C723.513 409.092 718.606 411.908 716.325 417.284C714.041 422.66 713.636 431.987 714.991 436.795C716.345 441.604 772.639 451.844 780.333 449.028C788.027 446.212 803.131 439.3 800.315 431.364C797.499 423.428 789.051 422.148 787.259 411.908C785.467 401.668 787.259 400.388 785.723 393.22C784.187 386.052 776.855 373.252 776.855 373.252L724.025 385.112Z" fill="#4A6C8E"/>
<path d="M676.395 815.927C676.395 815.927 680.855 812.48 701.972 813.375C723.089 814.27 732.5 817.828 732.5 817.828C732.5 817.828 714.51 823.509 698.837 822.766C683.165 822.024 676.395 815.927 676.395 815.927Z" fill="#4F5F80"/>
<path d="M753.948 625.586C752.945 639.021 736.622 707.199 736.131 715.616C735.619 724.034 734.636 737.878 733.735 761.635C733.079 779.063 726.423 812.978 722.921 829.833C721.631 835.977 720.771 839.848 720.771 839.848H685.381C685.381 839.848 685.074 836.284 684.603 830.386C684.234 825.819 683.763 819.819 683.231 812.999C683.19 812.282 683.129 811.545 683.067 810.807C680.712 780.19 677.497 734.458 678.131 720.06C678.582 709.698 682.002 679.019 685.545 649.179C686.446 641.479 687.368 633.819 688.249 626.59C691.239 601.645 693.758 581.718 693.758 581.718L752.146 575.943C752.146 575.943 754.931 612.172 753.948 625.586Z" fill="#18203B"/>
<path opacity="0.3" d="M683.661 728.355C684.726 739.414 683.743 790.327 683.231 812.999C683.19 812.282 683.129 811.545 683.067 810.807C680.712 780.19 677.497 734.458 678.131 720.06C678.582 709.698 682.002 679.019 685.545 649.179C684.419 674.574 682.698 718.32 683.661 728.355Z" fill="#E9E9E9"/>
<path opacity="0.3" d="M753.948 625.586C752.945 639.021 736.622 707.199 736.131 715.616C735.619 724.034 734.636 737.878 733.735 761.635C733.079 779.063 726.423 812.978 722.921 829.833C721.979 830.325 721.058 830.714 720.136 830.98C707.705 834.605 695.355 833.438 684.603 830.386C684.194 825.328 683.661 818.549 683.067 810.807C697.055 809.128 710.674 806.343 712.497 801.796C716.368 792.068 718.846 719.876 718.416 713.241C717.986 706.605 731.134 666.116 733.735 650.756C736.356 635.396 724.99 655.876 718.416 657.576C711.842 659.296 725.338 629.252 720.136 629.252C716.634 629.252 699.185 627.634 688.249 626.59C691.239 601.645 693.758 581.718 693.758 581.718L752.146 575.943C752.146 575.943 754.931 612.172 753.948 625.586Z" fill="#21394C"/>
<path d="M726.218 901.718C726.382 904.155 726.423 906.265 726.218 907.882C725.481 914.088 709.896 929.182 702.707 938.562C695.539 948.003 693.225 960.25 673.421 964.448C658.512 967.602 648.374 962.359 644.278 955.13C642.947 952.754 642.25 950.174 642.25 947.614C642.25 946.098 643.09 944.03 644.565 941.593C644.565 941.572 644.565 941.572 644.565 941.572C645.445 940.098 646.469 938.582 647.596 937.005C647.616 937.005 647.637 936.985 647.637 936.964C657.385 923.468 675.223 906.879 676.739 900.489C678.705 892.051 676.391 815.927 676.391 815.927C676.391 815.927 677.435 816.521 679.708 817.238C683.927 818.569 692.365 820.331 706.087 819.552C706.803 819.511 707.52 819.47 708.217 819.429C727.57 818.323 732.506 817.832 732.506 817.832C732.506 817.832 726.218 861.127 725.235 874.992C724.498 885.191 725.788 894.857 726.218 901.718Z" fill="#6D799A"/>
<path opacity="0.3" d="M676.739 900.489C678.705 892.051 676.391 815.927 676.391 815.927C676.391 815.927 677.435 816.521 679.708 817.238C679.114 837.718 682.739 894.591 684.009 898.359C685.525 902.906 697.977 902.517 697.977 902.517C697.977 902.517 665.782 919.228 647.637 936.964C657.385 923.468 675.223 906.879 676.739 900.489Z" fill="#E9E9E9"/>
<path opacity="0.3" d="M726.218 901.718C726.382 904.155 726.423 906.265 726.218 907.882C725.481 914.088 709.896 929.182 702.707 938.562C695.539 948.003 693.225 960.25 673.421 964.448C658.512 967.602 648.374 962.359 644.278 955.13C646.736 954.372 649.562 953.922 652.757 953.86C681.695 953.307 702.933 915.624 707.377 894.12C710.469 879.067 709.241 840.954 708.217 819.429C727.57 818.323 732.506 817.832 732.506 817.832C732.506 817.832 726.218 861.127 725.235 874.992C724.498 885.191 725.788 894.857 726.218 901.718Z" fill="#4A6C8E"/>
<path d="M726.225 907.885C725.473 914.082 709.892 929.186 702.705 938.57C695.539 947.993 693.219 960.244 673.421 964.44C653.623 968.636 642.24 958.005 642.24 947.612C642.24 946.088 643.092 944.028 644.557 941.593C644.458 942.148 642.676 953.768 659.8 957.886C677.38 962.083 687.618 954.407 695.042 944.271C702.466 934.136 715.333 919.03 719.788 912.833C722.38 909.23 724.738 904.794 726.223 901.706C726.382 904.163 726.423 906.262 726.225 907.885Z" fill="#4F5F80"/>
<path d="M773.402 817.828C773.402 817.828 785.123 814.766 802.445 813.611C819.767 812.456 829.507 815.927 829.507 815.927C829.507 815.927 825.376 821.86 803.27 822.684C781.162 823.509 773.402 817.828 773.402 817.828Z" fill="#4F5F80"/>
<path d="M822.905 809.619C822.618 813.449 822.331 817.074 822.085 820.392C821.184 832.066 820.529 839.848 820.529 839.848H785.119C785.119 839.848 774.306 788.361 773.404 764.604C772.503 740.848 770.271 724.034 769.779 715.616C769.288 707.199 752.945 639.021 751.962 625.586C751.225 615.408 751.716 592.142 751.982 581.472C752.085 578.073 752.146 575.943 752.146 575.943L766.564 577.335L812.153 581.718C812.153 581.718 814.794 602.505 817.928 628.085C819.669 642.277 821.532 657.945 823.191 672.362V672.444C825.546 693.027 827.451 711.07 827.779 718.586C828.414 732.84 825.26 778.592 822.905 809.619Z" fill="#18203B"/>
<path opacity="0.3" d="M822.905 809.62C822.618 813.449 822.331 817.074 822.085 820.392C821.328 821.805 820.897 822.563 820.897 822.563C820.897 822.563 822.249 749.511 822.945 733.823C823.294 725.815 823.273 697.86 823.191 672.444C825.546 693.027 827.451 711.07 827.779 718.586C828.414 732.84 825.26 778.592 822.905 809.62Z" fill="#E9E9E9"/>
<path opacity="0.3" d="M822.905 809.62C821.594 827.048 820.529 839.848 820.529 839.848H785.119C785.119 839.848 774.306 788.361 773.404 764.604C772.503 740.848 770.271 724.034 769.779 715.616C769.288 707.199 752.945 639.021 751.962 625.586C751.225 615.408 751.716 592.142 751.982 581.472C756.345 580.244 761.26 578.851 766.564 577.335L812.153 581.718C812.153 581.718 814.794 602.505 817.928 628.085C805.312 630.03 788.068 632.345 782.538 631.3C773.466 629.6 784.382 653.152 783.358 653.152C782.334 653.152 762.693 631.648 768.94 644.96C775.166 658.272 789.891 705.704 793.106 723.46C795.994 739.373 787.863 798.478 822.905 809.62Z" fill="#21394C"/>
<path d="M862.677 944.89C862.677 948.085 861.591 951.3 859.523 954.106C854.874 960.414 845.187 964.612 831.486 961.704C811.702 957.526 810.371 948.003 803.203 938.562C796.014 929.182 780.429 914.088 779.671 907.882C779.487 906.265 779.528 904.155 779.671 901.718C780.122 894.857 781.392 885.191 780.675 874.992C779.671 861.127 773.404 817.832 773.404 817.832C773.404 817.832 780.04 820.883 800.561 820.412H800.704C809.777 820.208 816.351 819.347 820.897 818.446C827.001 817.218 829.499 815.927 829.499 815.927C829.499 815.927 827.185 892.051 829.171 900.489C830.851 907.637 851.945 924.779 860.362 938.848C860.362 938.869 860.362 938.869 860.362 938.869C861.817 941.306 862.677 943.354 862.677 944.89Z" fill="#6D799A"/>
<path opacity="0.3" d="M860.362 938.848C860.362 938.869 860.362 938.869 860.362 938.869C860.362 938.869 833.104 907.432 824.031 906.285C814.979 905.159 811.21 907.801 810.064 908.558C808.937 909.316 822.905 892.338 822.536 858.73C822.249 834.666 824.318 823.955 820.897 818.446C827 817.218 829.499 815.927 829.499 815.927C829.499 815.927 827.185 892.051 829.171 900.489C830.851 907.637 851.945 924.779 860.362 938.848Z" fill="#E9E9E9"/>
<path opacity="0.3" d="M859.523 954.106C854.874 960.414 845.187 964.612 831.486 961.704C811.702 957.526 810.371 948.003 803.203 938.562C796.014 929.182 780.429 914.088 779.671 907.882C779.487 906.265 779.528 904.155 779.671 901.718C780.122 894.857 781.392 885.191 780.675 874.992C779.671 861.127 773.404 817.832 773.404 817.832C773.404 817.832 780.04 820.883 800.561 820.412C799.557 842.101 798.39 879.292 801.462 894.12C805.886 915.624 827.123 953.307 856.062 953.86C857.27 953.881 858.437 953.962 859.523 954.106Z" fill="#4A6C8E"/>
<path d="M779.677 907.884C780.429 914.082 796.01 929.186 803.197 938.57C810.363 947.993 811.694 957.516 831.492 961.712C851.29 965.908 862.673 955.277 862.673 944.884C862.673 943.36 861.821 941.3 860.356 938.865C860.455 939.42 862.236 951.04 845.113 955.158C827.533 959.355 818.282 954.407 810.858 944.269C803.434 934.132 790.567 919.028 786.112 912.83C783.519 909.228 781.162 904.792 779.677 901.704C779.52 904.163 779.479 906.262 779.677 907.884Z" fill="#4F5F80"/>
<path d="M813.873 610.042C813.873 610.042 799.967 611.557 784.996 612.909C778.442 613.503 771.684 614.076 765.786 614.466C760.85 614.793 756.529 614.998 753.457 614.998C749.402 614.998 743.258 614.67 736.356 614.179C731.338 613.831 725.891 613.38 720.607 612.93C705.124 611.557 690.768 610.042 690.768 610.042C690.768 610.042 695.703 566.87 695.048 532.259C694.29 491.094 688.126 439.423 690.768 437.334C693.369 435.286 703.609 431.374 716.388 428.159C727.57 425.374 740.677 423.1 752.331 423.1C765.233 423.1 779.856 425.783 791.652 428.896C802.629 431.784 811.129 435.061 813.484 436.924C816.126 439.013 810.35 486.978 809.593 528.142C808.958 562.754 813.873 610.042 813.873 610.042Z" fill="#D6DD40"/>
<path opacity="0.3" d="M791.652 428.896C786.327 437.785 771.049 450.134 746.883 448.721C728.307 447.636 719.993 436.412 716.388 428.159C727.57 425.374 740.677 423.1 752.331 423.1C765.233 423.1 779.856 425.783 791.652 428.896Z" fill="#4A6C8E"/>
<path opacity="0.3" d="M784.996 612.909C778.442 613.503 771.684 614.076 765.786 614.466L768.94 521.384L784.996 612.909Z" fill="#4A6C8E"/>
<path opacity="0.3" d="M736.356 614.179C731.338 613.831 725.891 613.38 720.607 612.93C722.02 585.753 726.28 513.765 726.28 513.765L732.936 508.83L736.356 614.179Z" fill="#4A6C8E"/>
<path opacity="0.3" d="M692.025 481.028C692.025 481.028 698.88 495.395 717.676 499.155C736.473 502.915 747.364 497.852 747.364 497.852C747.364 497.852 762.548 503.64 779.36 499.886C796.174 496.132 806.291 479.406 806.291 479.406C806.291 479.406 801.509 503.269 784.234 507.351C766.959 511.435 750.192 523.051 750.192 523.051C750.192 523.051 729.209 538.86 712.743 537.151C696.277 535.448 692.025 481.028 692.025 481.028Z" fill="#4A6C8E"/>
<path d="M828.115 533.479L828.094 533.441C827.343 531.956 803.348 484.006 801.626 470.88C799.904 457.497 806.674 435.343 813.484 436.929C818.77 438.137 834.212 457.933 842.467 472.109C850.702 486.304 884.873 568.125 867.373 574.718C850.757 575.785 836.157 550.801 828.115 533.479Z" fill="#D6DD40"/>
<path d="M769.03 425.947C768.907 427.565 764.34 441.676 750.905 441.676C737.491 441.676 732.657 426.193 732.657 426.193L733.825 413.229L735.013 400.101L767.31 401.33C767.31 401.33 767.678 405.897 768.067 411.099C768.559 417.591 769.091 425.066 769.03 425.947Z" fill="#DB8665"/>
<path d="M768.067 411.099C763.961 417.54 758.462 420.889 750.946 420.889C743.758 420.889 737.982 416.485 733.825 413.229L735.013 400.101L767.31 401.33C767.31 401.33 767.678 405.897 768.067 411.099Z" fill="#18203B"/>
<path d="M780.114 365.333C781.472 363.913 785.692 361.787 788.773 364.421C791.853 367.055 789.029 380.957 784.869 383.343C780.71 385.729 777.22 385.294 776.882 384.404C776.542 383.511 779.29 366.191 780.114 365.333Z" fill="#DB8665"/>
<path d="M780.695 379.243C780.695 379.243 780.724 379.152 780.79 378.97C781.015 378.337 781.648 376.687 782.629 374.991C783.606 373.291 784.951 371.569 786.456 370.747C786.866 370.52 787.015 370.004 786.788 369.592C786.561 369.181 786.045 369.033 785.633 369.261C783.39 370.516 781.816 372.881 780.728 374.915C779.649 376.953 779.09 378.688 779.079 378.718C778.936 379.165 779.18 379.644 779.626 379.787C780.073 379.935 780.55 379.689 780.695 379.243Z" fill="#18203B"/>
<path d="M786.264 377.661C786.258 377.592 786.192 376.846 785.746 375.874C785.301 374.903 784.449 373.701 782.919 372.82C782.514 372.587 781.994 372.726 781.76 373.131C781.525 373.537 781.666 374.057 782.072 374.29C783.255 374.977 783.866 375.859 784.203 376.584C784.371 376.947 784.466 377.266 784.515 377.487L784.562 377.737L784.57 377.793V377.795C784.607 378.262 785.017 378.612 785.483 378.573C785.952 378.538 786.303 378.128 786.264 377.661Z" fill="#18203B"/>
<path d="M726.284 365.333C724.924 363.913 720.705 361.787 717.625 364.421C714.545 367.055 717.369 380.957 721.529 383.343C725.688 385.729 729.176 385.294 729.516 384.404C729.856 383.511 727.105 366.191 726.284 365.333Z" fill="#DB8665"/>
<path d="M726.976 378.89C726.976 378.89 726.941 378.802 726.866 378.626C726.601 378.01 725.866 376.402 724.779 374.772C723.697 373.137 722.245 371.503 720.691 370.78C720.267 370.579 720.087 370.074 720.285 369.65C720.486 369.226 720.992 369.043 721.416 369.244C723.734 370.354 725.455 372.617 726.669 374.577C727.875 376.543 728.543 378.239 728.555 378.268C728.727 378.704 728.514 379.197 728.076 379.37C727.642 379.542 727.148 379.327 726.976 378.89Z" fill="#18203B"/>
<path d="M721.318 377.664C721.32 377.594 721.336 376.846 721.723 375.847C722.106 374.85 722.878 373.596 724.351 372.621C724.742 372.361 725.268 372.468 725.528 372.859C725.788 373.25 725.682 373.776 725.291 374.037C724.152 374.794 723.599 375.716 723.308 376.461C723.165 376.832 723.091 377.158 723.054 377.383L723.022 377.637L723.017 377.692V377.694C723.009 378.163 722.622 378.538 722.153 378.53C721.684 378.522 721.309 378.133 721.318 377.664Z" fill="#18203B"/>
<path d="M780.663 375.423C776.218 396.702 763.726 413.352 752.462 413.372C739.58 413.413 729.196 399.507 726.882 376.427C725.367 361.251 726.309 340.505 734.849 328.073C739.313 321.581 745.847 317.362 755.185 317.362C767.637 317.362 774.785 323.731 778.635 332.476C784.636 345.993 782.792 365.203 780.663 375.423Z" fill="#DB8665"/>
<path opacity="0.3" d="M780.662 375.423C776.218 396.702 763.726 413.352 752.462 413.372C784.062 406.389 777.017 333.316 777.017 333.316L778.635 332.476C784.636 345.993 782.792 365.203 780.662 375.423Z" fill="#E9E9E9"/>
<path d="M752.462 413.372C739.58 413.413 729.196 399.507 726.882 376.427C725.367 361.251 726.309 340.505 734.849 328.073L735.299 327.95C735.299 327.95 725.264 402.416 752.462 413.372Z" fill="#D25C2C"/>
<path d="M782.567 362.807C782.424 363.504 782.342 363.872 782.342 363.872C782.342 363.872 773.003 366.309 760.49 360.493C746.952 354.206 740.849 345.051 740.849 345.051C740.849 345.051 740.46 349.741 735.873 356.663C731.572 363.196 727.312 364.978 726.452 365.265C726.35 365.306 726.288 365.326 726.288 365.326C726.288 365.326 726.268 365.265 726.247 365.142C726.186 364.753 726.001 363.749 725.838 362.234C725.264 356.643 724.895 344.273 730.589 331.309C735.258 320.659 750.229 309.928 768.886 319.799C787.544 329.65 783.612 357.073 782.567 362.807Z" fill="#80455D"/>
<path opacity="0.5" d="M782.567 362.807C782.424 363.504 782.342 363.872 782.342 363.872C782.342 363.872 773.003 366.309 760.49 360.493C746.952 354.206 740.849 345.051 740.849 345.051C740.849 345.051 740.46 349.741 735.873 356.663C731.572 363.196 727.312 364.978 726.452 365.265C726.37 365.224 726.309 365.183 726.247 365.142C724.814 364.343 723.81 363.749 723.81 363.749C723.81 363.749 724.506 363.36 725.838 362.234C727.025 361.251 728.746 359.653 730.937 357.216C735.545 352.096 739.375 340.607 739.375 340.607L744.044 337.392C744.044 337.392 748.304 347.304 757.868 353.96C765.364 359.182 777.652 361.886 782.567 362.807Z" fill="#4A6C8E"/>
<path d="M792.717 348.84L759.478 342.573L755.116 341.754L751.962 342.184L718.252 346.731H718.231L717.187 346.874C717.187 346.874 720.095 342.675 720.812 340.709C721.406 339.051 722.962 332.21 724.519 327.172C724.805 326.251 725.072 325.411 725.358 324.653C726.812 320.619 733.161 308.863 746.514 305.136C748.419 304.583 750.467 304.214 752.658 304.071C753.764 303.989 754.89 303.968 756.078 303.989C757 304.009 757.901 304.071 758.761 304.173C760.994 304.378 763.062 304.828 764.967 305.422C778.545 309.662 784.443 322.032 785.713 326.21C785.815 326.578 785.938 326.967 786.061 327.377C786.102 327.561 786.163 327.746 786.204 327.95C787.556 333.111 788.867 340.689 789.42 342.471C789.645 343.228 790.178 344.314 790.731 345.358C791.673 347.14 792.717 348.84 792.717 348.84Z" fill="#DA9432"/>
<path opacity="0.3" d="M786.204 327.95C786.204 327.95 774.777 306.057 755.587 305.668C736.377 305.279 724.519 327.172 724.519 327.172C724.805 326.251 725.072 325.411 725.358 324.653C726.812 320.619 733.161 308.863 746.514 305.136C748.419 304.583 750.467 304.214 752.658 304.071C753.764 303.989 754.89 303.968 756.078 303.989C757 304.009 757.901 304.071 758.761 304.173C760.993 304.378 763.062 304.828 764.967 305.422C778.545 309.662 784.443 322.032 785.713 326.21C785.815 326.578 785.938 326.967 786.061 327.377C786.102 327.561 786.163 327.746 786.204 327.95Z" fill="#E9E9E9"/>
<path opacity="0.3" d="M792.717 348.84L759.478 342.573L755.116 341.754L751.962 342.184L718.252 346.731H718.231L717.187 346.874C717.187 346.874 720.095 342.675 720.812 340.709C721.406 339.051 722.962 332.21 724.519 327.172C739.653 328.688 763.676 330.162 786.061 327.377C787.454 332.538 788.846 340.627 789.42 342.471C789.645 343.228 790.178 344.314 790.731 345.358C791.673 347.14 792.717 348.84 792.717 348.84Z" fill="#CE8742"/>
<path opacity="0.3" d="M792.725 348.84L759.486 342.573C759.322 331.985 758.872 309.662 758.769 304.173C761.002 304.378 763.07 304.828 764.975 305.422V305.443C764.975 305.443 766.265 335.835 766.613 337.392C766.88 338.682 778 338.661 790.739 345.358C791.681 347.14 792.725 348.84 792.725 348.84Z" fill="#CE8742"/>
<path opacity="0.3" d="M752.666 304.071C752.564 309.293 752.134 331.391 751.97 342.184L718.26 346.731C732.002 338.661 744.536 338.764 744.843 337.392C745.171 335.835 746.461 305.443 746.461 305.443L746.522 305.136C748.427 304.583 750.475 304.214 752.666 304.071Z" fill="#CE8742"/>
<path d="M763.042 341.344L746.883 340.935L747.272 325.513L747.845 303.17L747.866 302.576C747.866 302.576 750.59 300.937 755.71 301.06C760.83 301.163 762.898 302.924 762.898 302.924V303.436L762.98 326.21L763.042 341.344Z" fill="#E5A759"/>
<path opacity="0.3" d="M762.898 302.924V303.436C762.243 303.129 759.396 301.941 755.362 301.777C750.754 301.613 747.866 303.19 747.866 303.19C747.866 303.19 747.866 303.19 747.845 303.17L747.866 302.576C747.866 302.576 750.59 300.937 755.71 301.06C760.83 301.163 762.898 302.924 762.898 302.924Z" fill="#E9E9E9"/>
<path opacity="0.3" d="M763.05 341.344L746.891 340.935L747.28 325.513C748.939 326.025 755.697 327.848 762.988 326.21L763.05 341.344Z" fill="#E5A759"/>
<path d="M794.622 351.728L794.335 352.629C794.273 352.813 794.212 352.997 794.11 353.161C793.413 354.472 791.877 355.148 790.403 354.718C783.624 352.752 766.707 348.164 754.952 347.857C743.176 347.55 725.502 350.765 718.457 352.158C716.736 352.485 715.077 351.4 714.709 349.7L714.647 349.393L714.279 347.673C713.91 345.973 714.975 344.293 716.654 343.884C723.495 342.245 740.657 338.579 755.198 338.948C769.82 339.337 786.348 345.256 792.758 347.775C794.335 348.389 795.134 350.13 794.622 351.728Z" fill="#DA9432"/>
<path opacity="0.3" d="M794.11 353.161C793.413 354.472 791.877 355.148 790.403 354.718C783.624 352.752 766.707 348.164 754.952 347.857C743.176 347.55 725.502 350.765 718.457 352.158C716.736 352.485 715.077 351.4 714.709 349.7L714.647 349.393C723.495 346.116 737.237 342.819 754.972 343.904C774.715 345.113 787.249 349.7 794.11 353.161Z" fill="#CE8742"/>
<path d="M705.39 470.041C704.51 483.209 683.804 532.341 683.047 534.163C683.026 534.184 683.026 534.184 683.026 534.184L683.006 534.225C680.057 541.803 676.001 550.896 671.025 558.78C664.348 569.41 656.034 577.909 646.49 577.909C641.718 576.455 640.264 569.41 640.858 559.6C640.858 559.6 640.858 559.579 640.858 559.559C640.878 559.19 640.899 558.821 640.919 558.432C642.906 531.276 659.433 484.52 664.717 473.911C671.414 460.456 683.825 441.922 689.866 437.723C690.419 437.314 690.931 437.047 691.361 436.924C692.488 436.576 693.635 436.904 694.802 437.764C700.537 441.922 706.107 458.838 705.39 470.041Z" fill="#D6DD40"/>
<path opacity="0.3" d="M671.025 558.78C664.348 569.41 656.034 577.909 646.49 577.909C641.534 576.393 640.162 568.857 640.919 558.432C648.272 563.511 659.331 562.119 671.025 558.78Z" fill="#4A6C8E"/>
<path opacity="0.3" d="M690.297 438.706C690.297 438.706 676.616 452.162 662.771 489.128C649.275 525.234 641.226 558.084 640.858 559.559C640.878 559.19 640.899 558.821 640.919 558.432C642.906 531.276 659.433 484.52 664.717 473.911C671.414 460.456 683.825 441.922 689.866 437.723L690.297 438.706Z" fill="#E9E9E9"/>
<path opacity="0.3" d="M705.39 470.041C704.51 483.209 683.804 532.341 683.047 534.164C683.026 534.184 683.026 534.184 683.026 534.184C683.026 534.184 684.378 517.636 685.381 501.6C686.385 485.544 690.768 437.334 690.768 437.334L694.802 437.764C700.537 441.922 706.107 458.838 705.39 470.041Z" fill="#4A6C8E"/>
<path d="M817.293 614.998C817.293 614.998 815.655 615.633 800.807 616.636C785.959 617.62 772.954 616.636 772.954 616.636C772.954 616.636 772.36 598.716 771.643 575.062C770.291 531.092 768.448 467.296 769.042 462.053C769.964 453.964 773.322 423.1 773.322 423.1C773.322 423.1 777.889 423.899 783.911 425.271C787.454 426.07 791.509 427.094 795.441 428.302C795.809 428.384 796.199 428.507 796.588 428.63C799.353 429.511 802.097 430.514 804.493 431.456C809.122 433.259 812.542 434.856 812.542 434.856C812.542 434.856 811.845 442.905 812.603 473.563C812.828 482.8 813.34 497.648 813.955 513.909C814.098 518.005 814.262 522.162 814.426 526.361C814.528 528.757 814.61 531.173 814.692 533.611C814.856 537.399 814.999 541.188 815.163 544.895C816.269 572.809 817.293 614.998 817.293 614.998Z" fill="#C8424E"/>
<path d="M814.422 526.35L782.311 524.905C782.311 524.905 780.331 501.465 780.331 472.441C780.331 448.961 782.924 431.202 783.915 425.263C787.458 426.074 791.517 427.084 795.437 428.292C795.16 434.608 794.21 456.88 794.21 472.599C794.21 491.069 795.517 513.024 795.517 513.024L813.949 513.915C814.104 517.997 814.264 522.154 814.422 526.35Z" fill="#F0D9DF"/>
<path d="M815.155 544.901L782.786 543.912L782.528 532.113L814.698 533.619C814.858 537.397 814.995 541.18 815.155 544.901Z" fill="#F0D9DF"/>
<path opacity="0.3" d="M817.293 614.998C817.293 614.998 815.655 615.633 800.807 616.636C785.959 617.62 772.954 616.636 772.954 616.636C772.954 616.636 772.36 598.716 771.643 575.062C781.637 557.675 796.342 533.242 798.841 526.361C802.547 516.121 795.093 504.857 794.396 485.749C793.843 471.208 801.052 443.703 804.493 431.456C809.122 433.259 812.542 434.856 812.542 434.856C812.542 434.856 811.845 442.905 812.603 473.563C812.828 482.8 813.34 497.648 813.955 513.909C814.098 518.005 814.262 522.162 814.426 526.361C814.528 528.757 814.61 531.173 814.692 533.611C814.856 537.399 814.999 541.188 815.163 544.895C816.269 572.809 817.293 614.998 817.293 614.998Z" fill="#4A6C8E"/>
<path d="M732.281 532.935C731.973 543.892 731.646 554.992 731.318 565.375C730.478 593.637 729.721 616.636 729.721 616.636C729.721 616.636 727.98 616.759 725.051 616.882C719.972 617.087 711.289 617.251 701.868 616.636C687.02 615.633 685.381 614.998 685.381 614.998C685.381 614.998 685.75 599.781 686.282 581.575C686.549 572.932 686.835 563.614 687.143 554.951C687.265 551.469 687.388 548.09 687.511 544.895C687.675 541.188 687.818 537.399 687.982 533.611C688.044 531.173 688.146 528.757 688.249 526.361C688.412 522.162 688.576 518.005 688.72 513.909C689.334 497.648 689.846 482.8 690.071 473.563C690.645 450.257 690.378 440.017 690.215 436.453C690.174 435.327 690.133 434.856 690.133 434.856C690.133 434.856 698.079 431.149 706.087 428.63C706.455 428.507 706.865 428.384 707.233 428.302C711.166 427.094 715.221 426.07 718.764 425.271C721.733 424.575 724.355 424.063 726.239 423.694L726.28 423.674C728.185 423.305 729.352 423.1 729.352 423.1C729.352 423.1 732.711 453.964 733.632 462.053C734.042 465.76 733.264 498.528 732.281 532.935Z" fill="#C8424E"/>
<path opacity="0.3" d="M777.726 539.959C770.824 545.899 751.614 551.94 749.156 552.452C746.698 552.964 745.47 559.866 741.374 561.668C740.452 562.078 736.663 563.47 731.318 565.375C719.009 569.819 698.509 577.069 686.282 581.575C686.323 580.162 686.364 578.748 686.405 577.315C686.59 571.335 686.794 565.15 686.999 559.17C687.04 557.756 687.102 556.343 687.143 554.951C699.246 548.827 716.409 540.287 732.281 532.935C751.593 523.964 768.981 516.755 773.118 517.698C783.358 520.073 784.627 534.02 777.726 539.959Z" fill="#4A6C8E"/>
<path opacity="0.3" d="M770.537 538.505C763.697 548.459 748.378 547.68 747.681 548.151C747.006 548.622 740.698 555.524 735.066 558.432C730.314 560.89 697.198 573.301 686.405 577.315C686.59 571.335 686.794 565.15 686.999 559.17C693.123 555.667 699.881 551.776 702.81 549.995C708.77 546.329 773.466 521.384 773.466 521.384C773.466 521.384 777.377 528.552 770.537 538.505Z" fill="#4A6C8E"/>
<path d="M688.251 526.35L720.361 524.905C720.361 524.905 722.342 501.465 722.342 472.441C722.342 448.961 719.749 431.202 718.758 425.263C715.215 426.074 711.155 427.084 707.236 428.292C707.512 434.608 708.462 456.88 708.462 472.599C708.462 491.069 707.156 513.024 707.156 513.024L688.724 513.915C688.568 517.997 688.41 522.154 688.251 526.35Z" fill="#F0D9DF"/>
<path opacity="0.3" d="M726.239 423.694L690.768 437.334L690.215 436.453C690.174 435.327 690.133 434.856 690.133 434.856C690.133 434.856 698.079 431.149 706.087 428.63C706.455 428.507 706.865 428.384 707.233 428.302C711.166 427.094 715.221 426.07 718.764 425.271C721.733 424.575 724.355 424.063 726.239 423.694Z" fill="#E9E9E9"/>
<path opacity="0.3" d="M725.051 616.882C719.972 617.087 711.289 617.251 701.868 616.636C687.02 615.633 685.381 614.998 685.381 614.998C685.381 614.998 685.75 599.781 686.282 581.575C686.549 572.932 686.835 563.614 687.143 554.951C687.265 551.469 687.388 548.09 687.511 544.895C687.675 541.188 687.818 537.399 687.982 533.611C688.044 531.173 688.146 528.757 688.249 526.361C688.412 522.162 688.576 518.005 688.72 513.909C689.334 497.648 689.846 482.8 690.071 473.563C690.829 442.905 690.133 434.856 690.133 434.856C690.133 434.856 702.769 478.458 702.441 499.573C702.113 520.708 701.438 537.01 703.834 546.595C706.21 556.2 702.134 584.544 703.834 596.648C705.37 607.666 722.02 615.51 725.051 616.882Z" fill="#4A6C8E"/>
<path d="M687.519 544.901L719.888 543.912L720.146 532.113L687.976 533.619C687.814 537.397 687.677 541.18 687.519 544.901Z" fill="#F0D9DF"/>
<path d="M780.183 496.992C777.562 499.204 772.933 503.607 772.503 504.693C772.053 505.778 775.76 519.049 775.78 524.128C775.801 526.995 772.913 531.358 769.431 535.167C768.919 535.433 768.387 535.699 767.793 535.986C762.407 538.505 750.18 542.519 750.18 542.519L737.032 547.639L730.13 523.125C730.13 523.125 734.861 520.667 738.466 518.537C739.53 517.923 740.473 517.329 741.189 516.837C744.282 514.687 748.214 502.563 750.344 500.72C752.474 498.876 759.458 499.614 760.891 498.774C762.345 497.955 772.483 492.364 774.981 490.992C777.459 489.619 782.272 486.793 784.259 488.595C784.423 488.759 784.566 488.923 784.648 489.128C785.672 491.135 782.559 494.965 780.183 496.992Z" fill="#DB8665"/>
<path d="M780.183 496.992C777.562 499.204 772.933 503.607 772.503 504.693C772.053 505.778 775.76 519.049 775.78 524.128C775.801 526.996 772.913 531.358 769.431 535.167C768.919 535.433 768.387 535.699 767.793 535.986C762.407 538.505 750.18 542.519 750.18 542.519L737.032 547.639L730.13 523.125C730.13 523.125 734.861 520.667 738.466 518.537C740.104 522.49 743.176 528.777 746.637 529.924C751.757 531.624 765.13 527.016 767.404 523.268C769.677 519.52 768.51 511.922 768.919 507.355C769.247 503.812 779.876 493.552 784.648 489.128C785.672 491.135 782.559 494.965 780.183 496.992Z" fill="#D25C2C"/>
<path d="M743.114 552.124C743.114 552.124 664.307 583.561 646.49 577.909C647.534 572.625 650.258 567.075 653.801 561.77C658.122 555.217 663.714 549.032 668.936 544.076H668.956C668.977 544.055 668.977 544.055 668.997 544.035C674.261 539.079 679.176 535.372 682.145 533.795L686.405 532.607L686.549 532.566L694.249 530.436V530.416L734.533 519.213L736.991 528.654V528.675L737.687 531.317L743.114 552.124Z" fill="#D6DD40"/>
<path opacity="0.3" d="M743.114 552.124C743.114 552.124 664.307 583.561 646.49 577.909C647.534 572.625 650.258 567.075 653.801 561.771C660.703 561.689 668.629 559.682 676.616 557.06C689.539 552.841 693.082 548.745 700.352 541.332C709.568 531.972 703.056 544.772 714.238 542.212C720.996 540.656 730.827 535.372 737.687 531.317L743.114 552.124Z" fill="#4A6C8E"/>
<path opacity="0.3" d="M736.991 528.654L733.346 521.384L686.549 532.566L694.249 530.436V530.416L734.533 519.213L736.991 528.654Z" fill="#E9E9E9"/>
<path opacity="0.3" d="M694.249 530.436C694.249 530.436 676.657 537.215 668.997 544.035C674.261 539.079 679.176 535.372 682.146 533.795L694.249 530.436Z" fill="#4A6C8E"/>
<path d="M926.185 468.812L915.106 497.218L871.729 608.404C871.729 608.404 848.976 604.758 827.185 604.41C805.415 604.082 768.94 602.771 768.94 602.771C768.94 602.771 773.282 593.842 779.241 581.493C781.699 576.393 784.423 570.72 787.228 564.843C795.871 546.841 805.271 526.995 809.941 516.407C819.833 493.982 829.827 462.381 829.827 462.381C829.827 462.381 857.372 467.726 881.395 468.812C905.398 469.877 926.185 468.812 926.185 468.812Z" fill="#E1EFF1"/>
<path opacity="0.3" d="M915.106 497.218L920.328 473.358C920.328 473.358 919.795 472.416 901.63 472.928C883.443 473.44 835.827 467.46 834.558 468.996C833.267 470.532 831.322 478.806 824.154 495.456C816.986 512.086 787.249 564.863 787.249 564.863L787.228 564.843C795.871 546.841 805.271 526.995 809.941 516.407C819.833 493.982 829.827 462.381 829.827 462.381C829.827 462.381 857.372 467.726 881.395 468.812C905.398 469.877 926.185 468.812 926.185 468.812L915.106 497.218Z" fill="#E9E9E9"/>
<path opacity="0.3" d="M915.106 497.218L871.729 608.403C871.729 608.403 848.976 604.758 827.185 604.41C805.415 604.082 768.94 602.771 768.94 602.771C768.94 602.771 773.282 593.842 779.241 581.493C791.591 572.912 811.026 562.385 834.046 560.583C873.982 557.449 868.718 520.954 880.494 503.423C888.604 491.34 904.784 494.371 915.106 497.218Z" fill="#B2CBDF"/>
<path d="M914.892 519.85C914.165 521.572 912.443 522.435 912.443 522.435C913.6 524.589 912.523 531.749 910.694 537.807C909.482 541.846 907.921 545.425 906.467 546.718C902.86 549.894 891.768 544.995 886.464 538.829C883.208 535.061 883.126 528.734 884.445 523.807C884.445 523.78 884.445 523.78 884.445 523.78C885.28 520.657 886.679 518.099 888.16 517.104C891.175 515.084 901.028 518.128 904.986 519.5C905.013 519.5 905.039 519.5 905.068 519.526C905.418 519.635 905.742 519.741 905.984 519.823C902.566 518.289 887.894 511.531 890.72 508.166C891.285 507.466 892.227 507.036 893.466 506.821C899.066 505.825 910.211 509.485 913.926 514.763C915.458 516.915 915.431 518.613 914.892 519.85Z" fill="#DB8665"/>
<path d="M910.692 537.807C909.48 541.846 907.919 545.425 906.465 546.718C902.858 549.894 891.766 544.995 886.462 538.829C883.206 535.061 883.124 528.734 884.443 523.807C885.172 530.674 890.824 538.749 910.692 537.807Z" fill="#D25C2C"/>
<path d="M914.893 519.85C914.165 521.572 912.443 522.435 912.443 522.435L905.849 519.877C905.849 519.877 905.552 519.741 905.068 519.526C905.418 519.635 905.742 519.741 905.984 519.823C902.566 518.289 887.894 511.531 890.72 508.166C891.285 507.466 892.227 507.036 893.466 506.821C894.324 512.69 908.646 517.886 914.893 519.85Z" fill="#D25C2C"/>
<path opacity="0.2" d="M469.219 949.953C528.318 949.953 576.227 945.902 576.227 940.905C576.227 935.907 528.318 931.856 469.219 931.856C410.12 931.856 362.211 935.907 362.211 940.905C362.211 945.902 410.12 949.953 469.219 949.953Z" fill="#DADCDC"/>
<path d="M482.629 594.723H450.291V607.134H482.629V594.723Z" fill="#92622F"/>
<path opacity="0.3" d="M482.629 594.723V599.228C476.997 599.187 470.116 599.31 467.495 600.928C465.918 601.911 462.846 604.41 459.61 607.134H450.291V594.723H482.629Z" fill="#C17A25"/>
<path d="M503.437 549.339H429.484V594.723H503.437V549.339Z" fill="#DA9432"/>
<path d="M503.437 549.339V557.06L501.635 550.793C501.635 550.793 433.027 551.674 432.515 552.329C432.003 552.964 429.484 576.885 429.484 576.885V549.339H503.437Z" fill="#C17A25"/>
<path opacity="0.3" d="M503.437 556.343V594.723H429.484V576.885C470.382 579.117 492.439 566.419 503.437 556.343Z" fill="#C17A25"/>
<path d="M478.085 572.029C478.085 578.449 472.881 583.653 466.46 583.653C460.04 583.653 454.836 578.449 454.836 572.029C454.836 565.608 460.04 560.404 466.46 560.404C472.881 560.404 478.085 565.608 478.085 572.029Z" fill="#E9E9E9"/>
<path d="M475.76 541.417H457.162V549.337H475.76V541.417Z" fill="#E5A759"/>
<path d="M494.016 607.134H438.905V616.718H494.016V607.134Z" fill="#E5A759"/>
<path opacity="0.3" d="M494.016 614.035V616.718H438.905V607.134H461.515C461.248 608.629 461.125 610.615 462.047 611.926C463.296 613.646 483.797 613.995 494.016 614.035Z" fill="#C17A25"/>
<path d="M532.252 773.431H505.198L482.384 693.191L476.67 673.059L460.654 616.718H493.975L532.252 773.431Z" fill="#E5A759"/>
<path d="M487.713 623.178L523.184 764.522H509.409L469.195 623.178H487.713Z" fill="#D2883E"/>
<path opacity="0.3" d="M490.739 693.846L482.384 693.191L476.67 673.059V616.718H489.736L490.739 693.846Z" fill="#C17A25"/>
<path d="M528.957 773.431L567.232 938.547H556.675L508.832 773.431H528.957Z" fill="#DA9432"/>
<path d="M484.821 616.718H450.169V688.132H484.821V616.718Z" fill="#DA9432"/>
<path opacity="0.3" d="M484.145 616.718C479.926 630.481 467.699 670.376 462.334 688.132H450.169V620.63C450.803 619.442 451.541 618.091 452.299 616.718H484.145Z" fill="#C17A25"/>
<path d="M484.821 712.38H450.169V765.833H484.821V712.38Z" fill="#DA9432"/>
<path d="M480.53 688.136H454.463V712.389H480.53V688.136Z" fill="#92622F"/>
<path d="M490.023 765.833H444.721V779.207H490.023V765.833Z" fill="#E5A759"/>
<path d="M481.011 779.207H453.978V797.352H481.011V779.207Z" fill="#DA9432"/>
<path d="M475.42 797.352L472.451 943.518H462.539L459.569 797.352H475.42Z" fill="#CD8432"/>
<path d="M438.626 616.72L400.351 773.431H427.407L471.951 616.72H438.626Z" fill="#E5A759"/>
<path d="M444.895 623.178L409.426 764.523H423.201L463.415 623.178H444.895Z" fill="#DC964A"/>
<path d="M423.77 773.431L375.929 938.541H365.381L402.041 780.436L403.659 773.431H423.77Z" fill="#DA9432"/>
<path opacity="0.3" d="M423.77 773.431L375.929 938.541H372.078C381.642 901.165 411.298 784.572 409.434 782.852C408.43 781.91 405.215 781.07 402.041 780.436L403.658 773.431H423.77Z" fill="#C17A25"/>
<path opacity="0.3" d="M508.831 773.431L556.673 938.541H560.523C550.959 901.165 521.304 784.572 523.167 782.852C524.171 781.91 527.386 781.07 530.561 780.436L528.943 773.431H508.831Z" fill="#C17A25"/>
<path opacity="0.3" d="M484.821 762.126V765.833H450.169V712.38H463.685C464.3 723.46 465.979 751.661 467.167 756.576C468.068 760.304 477.53 761.635 484.821 762.126Z" fill="#C17A25"/>
<path opacity="0.3" d="M490.023 773.575V779.207H444.721V765.833H459.467C459.18 767.676 459.303 769.806 460.654 771.342C462.928 773.882 481.462 773.759 490.023 773.575Z" fill="#C17A25"/>
<path opacity="0.3" d="M481.011 792.785V797.352H453.978V779.207H466.86C466.696 782.524 466.983 786.702 469.195 788.279C471.652 790.02 477.223 791.761 481.011 792.785Z" fill="#C17A25"/>
<path opacity="0.3" d="M469.092 943.518H462.539L459.569 797.352H467.536L469.092 943.518Z" fill="#C17A25"/>
<defs>
<filter id="filter0_f_1_36" x="-37.9" y="36.5534" width="1498.63" height="715.144" filterUnits="userSpaceOnUse" color-interpolation-filters="sRGB">
<feFlood flood-opacity="0" result="BackgroundImageFix"/>
<feBlend mode="normal" in="SourceGraphic" in2="BackgroundImageFix" result="shape"/>
<feGaussianBlur stdDeviation="2.45" result="effect1_foregroundBlur_1_36"/>
</filter>
<linearGradient id="paint0_linear_1_36" x1="710.582" y1="41.4534" x2="711" y2="299.453" gradientUnits="userSpaceOnUse">
<stop stop-color="#A2D4E8"/>
<stop offset="1" stop-color="#B2DAEA"/>
</linearGradient>
</defs>
</svg>
