<svg width="282" height="282" viewBox="0 0 282 282" fill="none" xmlns="http://www.w3.org/2000/svg">
<path opacity="0.3" d="M236.699 177.03C215.598 226.216 159.882 247.348 116.24 243.743C104.319 242.758 80.3464 240.782 61.6232 223.126C25.6688 189.217 31.2055 118.346 65.6223 76.62C70.0532 71.2499 100.736 35.2425 148.551 35.7273C183.559 36.0832 208.129 55.7987 211.114 58.2527C214.886 61.3581 223.21 68.7277 230.716 80.4297C248.341 107.916 249.893 146.294 236.707 177.03H236.699Z" fill="url(#paint0_linear_276_18)"/>
<path d="M152.24 45.036C152.27 43.7484 153.679 42.6956 155.398 42.6956H220.483C222.225 42.6956 223.944 43.809 223.944 45.1117V161.496C223.944 162.124 223.46 162.723 222.869 163.162C222.278 163.601 221.392 163.851 220.551 163.851L152.498 163.715C151.649 163.715 150.824 163.457 150.233 163.003C149.642 162.548 149.309 161.927 149.324 161.299L152.24 45.036Z" fill="url(#paint1_linear_276_18)"/>
<g opacity="0.5">
<path d="M200.169 56.4124L218.71 56.3897L218.862 49.3003H200.298L200.169 56.4124Z" fill="white"/>
<path d="M179.386 56.4048L197.912 56.3897L198.041 49.3003H179.499L179.386 56.4048Z" fill="white"/>
<path d="M158.625 56.4048L177.129 56.3821L177.235 49.3003H158.716L158.625 56.4048Z" fill="white"/>
<path d="M199.942 69.1369L218.445 69.1521L218.597 62.1006H200.071L199.942 69.1369Z" fill="white"/>
<path d="M179.189 69.1294L197.685 69.137L197.806 62.093H179.302L179.189 69.1294Z" fill="white"/>
<path d="M158.466 69.1218L176.939 69.1294L177.045 62.093L158.557 62.0854L158.466 69.1218Z" fill="white"/>
<path d="M199.707 81.778L218.188 81.7932L218.332 74.772L199.836 74.7644L199.707 81.778Z" fill="white"/>
<path d="M178.999 81.7629L197.458 81.7781L197.579 74.7644L179.105 74.7493L178.999 81.7629Z" fill="white"/>
<path d="M158.307 81.7478L176.75 81.7629L176.856 74.7493L158.398 74.7417L158.307 81.7478Z" fill="white"/>
<path d="M199.48 94.3815L217.923 94.3967L218.067 87.4058L199.608 87.3831L199.48 94.3815Z" fill="white"/>
<path d="M178.802 94.3588L197.23 94.374L197.352 87.3831L178.909 87.3679L178.802 94.3588Z" fill="white"/>
<path d="M158.148 94.3361L176.561 94.3513L176.659 87.3679L158.239 87.3452L158.148 94.3361Z" fill="white"/>
<path d="M199.245 106.932L217.658 106.962L217.809 99.9863L199.374 99.9636L199.245 106.932Z" fill="white"/>
<path d="M178.613 106.909L197.003 106.932L197.132 99.9636L178.719 99.9409L178.613 106.909Z" fill="white"/>
<path d="M157.989 106.879L176.371 106.902L176.47 99.9334L158.08 99.9106L157.989 106.879Z" fill="white"/>
<path d="M199.018 119.444L217.4 119.475L217.544 112.529L199.147 112.499L199.018 119.444Z" fill="white"/>
<path d="M178.416 119.414L196.776 119.444L196.905 112.499L178.522 112.469L178.416 119.414Z" fill="white"/>
<path d="M157.837 119.376L176.182 119.406L176.28 112.469L157.921 112.438L157.837 119.376Z" fill="white"/>
<path d="M198.791 131.911L217.143 131.949L217.287 125.026L198.919 124.989L198.791 131.911Z" fill="white"/>
<path d="M178.227 131.873L196.556 131.911L196.677 124.989L178.333 124.958L178.227 131.873Z" fill="white"/>
<path d="M157.678 131.828L175.992 131.866L176.098 124.951L157.762 124.92L157.678 131.828Z" fill="white"/>
<path d="M198.563 144.34L216.885 144.378L217.029 137.478L198.692 137.44L198.563 144.34Z" fill="white"/>
<path d="M178.03 144.295L196.329 144.333L196.458 137.433L178.136 137.395L178.03 144.295Z" fill="white"/>
<path d="M157.519 144.242L175.803 144.288L175.909 137.395L157.61 137.357L157.519 144.242Z" fill="white"/>
<path d="M198.336 156.724L216.628 156.769L216.772 149.892L198.465 149.847L198.336 156.724Z" fill="white"/>
<path d="M177.841 156.671L196.109 156.716L196.231 149.839L177.947 149.801L177.841 156.671Z" fill="white"/>
<path d="M157.368 156.618L175.614 156.663L175.72 149.794L157.451 149.748L157.368 156.618Z" fill="white"/>
</g>
<path d="M174.75 81.6642C174.773 80.6569 175.621 79.8389 176.659 79.8389H239.736C240.789 79.8389 241.91 80.6796 241.91 81.7021V224.671C241.91 225.436 241.463 226.171 240.91 226.709C240.35 227.246 239.532 227.549 238.744 227.549L174.978 227.383C174.182 227.383 173.41 227.072 172.849 226.519C172.289 225.966 171.978 225.224 171.993 224.452L174.75 81.6642Z" fill="url(#paint2_linear_276_18)"/>
<g opacity="0.5">
<path d="M210.97 89.9732L231.609 89.905L231.602 87.3979L210.985 87.4585L210.97 89.9732Z" fill="white"/>
<path d="M210.917 99.2061L231.632 99.1152L231.624 96.593L210.932 96.6763L210.917 99.2061Z" fill="white"/>
<path d="M210.856 108.522L231.662 108.409L231.655 105.856L210.871 105.962L210.856 108.522Z" fill="white"/>
<path d="M210.803 117.907L231.693 117.77L231.685 115.203L210.818 115.331L210.803 117.907Z" fill="white"/>
<path d="M210.743 127.374L231.723 127.215L231.715 124.625L210.758 124.776L210.743 127.374Z" fill="white"/>
<path d="M210.629 146.552L231.783 146.34L231.768 143.704L210.644 143.909L210.629 146.552Z" fill="white"/>
<path d="M210.447 175.924L231.867 175.637L231.859 172.933L210.462 173.213L210.447 175.924Z" fill="white"/>
<path d="M210.682 136.925L231.753 136.736L231.746 134.123L210.697 134.305L210.682 136.925Z" fill="white"/>
<path d="M210.568 156.262L231.806 156.027L231.799 153.369L210.584 153.596L210.568 156.262Z" fill="white"/>
<path d="M210.508 166.048L231.837 165.79L231.829 163.109L210.523 163.359L210.508 166.048Z" fill="white"/>
<path d="M210.387 185.877L231.897 185.566L231.89 182.839L210.402 183.15L210.387 185.877Z" fill="white"/>
<path d="M210.326 195.92L231.928 195.587L231.92 192.837L210.341 193.171L210.326 195.92Z" fill="white"/>
<path d="M210.258 206.054L231.965 205.691L231.95 202.918L210.281 203.274L210.258 206.054Z" fill="white"/>
<path d="M210.197 216.272L231.996 215.878L231.988 213.083L210.212 213.469L210.197 216.272Z" fill="white"/>
<path d="M183.923 90.064L204.683 89.9958L204.706 87.4812L183.968 87.5418L183.923 90.064Z" fill="white"/>
<path d="M183.749 99.3272L204.6 99.2363L204.623 96.699L183.794 96.7899L183.749 99.3272Z" fill="white"/>
<path d="M183.582 108.674L204.517 108.552L204.539 106L183.627 106.106L183.582 108.674Z" fill="white"/>
<path d="M183.408 118.088L204.433 117.952L204.456 115.377L183.453 115.505L183.408 118.088Z" fill="white"/>
<path d="M183.233 127.586L204.35 127.427L204.373 124.829L183.286 124.981L183.233 127.586Z" fill="white"/>
<path d="M182.885 146.824L204.176 146.612L204.199 143.969L182.938 144.174L182.885 146.824Z" fill="white"/>
<path d="M182.355 176.296L203.918 176.008L203.941 173.296L182.4 173.576L182.355 176.296Z" fill="white"/>
<path d="M183.059 137.167L204.267 136.978L204.29 134.357L183.112 134.539L183.059 137.167Z" fill="white"/>
<path d="M182.711 156.565L204.092 156.33L204.115 153.664L182.756 153.891L182.711 156.565Z" fill="white"/>
<path d="M182.529 166.388L204.002 166.131L204.024 163.442L182.582 163.692L182.529 166.388Z" fill="white"/>
<path d="M182.173 186.286L203.828 185.975L203.85 183.241L182.219 183.544L182.173 186.286Z" fill="white"/>
<path d="M181.984 196.367L203.737 196.026L203.759 193.269L182.037 193.602L181.984 196.367Z" fill="white"/>
<path d="M181.802 206.531L203.646 206.168L203.668 203.381L181.855 203.744L181.802 206.531Z" fill="white"/>
<path d="M181.613 216.787L203.555 216.393L203.578 213.583L181.666 213.969L181.613 216.787Z" fill="white"/>
</g>
<path d="M81.7476 84.8303C81.7476 78.6196 86.7768 73.5903 92.9876 73.5903H188.581C193.852 73.5903 198.2 77.7258 198.472 82.9898L205.531 221.589C205.744 225.709 202.494 229.186 198.374 229.261L88.8066 231.253C84.9287 231.321 81.7476 228.201 81.7476 224.323V84.8303Z" fill="url(#paint3_linear_276_18)"/>
<path d="M85.3831 197.23C85.2392 197.23 85.118 197.117 85.118 196.965V193.966C85.118 193.822 85.2317 193.701 85.3831 193.701C85.5346 193.701 85.6482 193.814 85.6482 193.966V196.965C85.6482 197.109 85.5346 197.23 85.3831 197.23Z" fill="white"/>
<path d="M89.5792 75.7261C89.5641 73.7417 91.3137 72.2042 93.2829 72.4693C106.341 74.2416 151.233 79.7177 188.346 76.8622C190.035 76.7335 191.504 78.0135 191.595 79.7101L198.995 218.923C199.093 220.831 197.639 222.467 195.731 222.573C180.12 223.497 115.831 227.065 92.9042 224.664C91.5106 224.52 90.4502 223.346 90.4427 221.937L89.5792 75.711V75.7261Z" fill="url(#paint4_linear_276_18)"/>
<path opacity="0.6" d="M91.1167 79.2102C91.1092 77.3015 92.783 75.817 94.6841 76.0745C107.25 77.7787 150.445 83.0503 186.164 80.3085C187.793 80.1797 189.209 81.4143 189.293 83.0503L196.412 217.021C196.511 218.862 195.109 220.43 193.269 220.536C178.249 221.422 116.376 224.861 94.313 222.551C92.9724 222.407 91.9499 221.278 91.9423 219.93L91.1167 79.2102Z" fill="white"/>
<g opacity="0.6">
<path d="M166.123 91.1623C166.737 91.1623 167.229 90.6548 167.206 90.0413V89.7838C167.176 89.1703 166.654 88.6553 166.04 88.6477L115.839 87.8373C115.225 87.8297 114.9 88.2917 115.119 88.8673L115.604 90.1246C115.824 90.7003 116.513 91.1699 117.134 91.1699H166.116L166.123 91.1623Z" fill="white"/>
</g>
<g opacity="0.6">
<path d="M115.839 94.7752C115.225 94.7677 114.9 95.2297 115.119 95.8053L115.604 97.0626C115.824 97.6383 116.513 98.1079 117.134 98.1079H166.116C166.729 98.1079 167.222 97.6004 167.199 96.9869V96.7294C167.169 96.1159 166.646 95.6008 166.032 95.5932L115.831 94.7828L115.839 94.7752Z" fill="white"/>
</g>
<g opacity="0.6">
<path d="M181.696 110.514C182.309 110.514 182.794 110.007 182.764 109.393L182.749 109.136C182.718 108.522 182.188 108.007 181.567 108.007L100.796 107.181C100.183 107.181 99.9406 107.598 100.259 108.128L101.137 109.56C101.463 110.082 102.228 110.514 102.849 110.514H181.688H181.696Z" fill="white"/>
</g>
<g opacity="0.6">
<path d="M100.796 114.354C100.183 114.354 99.9406 114.771 100.259 115.301L101.137 116.732C101.463 117.255 102.228 117.687 102.849 117.687H181.688C182.302 117.687 182.786 117.179 182.756 116.566L182.741 116.308C182.711 115.695 182.18 115.18 181.559 115.18L100.789 114.354H100.796Z" fill="white"/>
</g>
<g opacity="0.6">
<path d="M101.274 122.11C100.66 122.11 100.418 122.527 100.736 123.057L101.615 124.488C101.94 125.011 102.705 125.443 103.326 125.443H182.165C182.779 125.443 183.264 124.935 183.233 124.322L183.218 124.064C183.188 123.451 182.658 122.936 182.037 122.936L101.266 122.11H101.274Z" fill="white"/>
</g>
<g opacity="0.6">
<path d="M185.793 193.034C186.407 193.034 186.892 192.527 186.854 191.913L186.839 191.656C186.808 191.042 186.278 190.527 185.657 190.527L101.857 189.702C101.243 189.702 101.009 190.118 101.334 190.641L102.258 192.095C102.592 192.618 103.364 193.042 103.985 193.042H185.786L185.793 193.034Z" fill="white"/>
</g>
<g opacity="0.6">
<path d="M101.857 196.874C101.243 196.874 101.009 197.291 101.334 197.813L102.258 199.268C102.592 199.79 103.364 200.214 103.985 200.214H185.786C186.399 200.214 186.884 199.707 186.846 199.093L186.831 198.836C186.801 198.222 186.27 197.707 185.649 197.707L101.849 196.882L101.857 196.874Z" fill="white"/>
</g>
<g opacity="0.6">
<path d="M102.342 204.63C101.728 204.63 101.493 205.047 101.819 205.57L102.743 207.024C103.076 207.546 103.849 207.971 104.47 207.971H186.27C186.884 207.971 187.369 207.463 187.331 206.85L187.316 206.592C187.285 205.979 186.755 205.464 186.134 205.464L102.334 204.638L102.342 204.63Z" fill="white"/>
</g>
<g opacity="0.6">
<path d="M182.241 137.554C182.855 137.554 183.339 137.046 183.317 136.433V136.175C183.279 135.562 182.756 135.047 182.135 135.039L114.672 134.221C114.059 134.221 113.779 134.653 114.066 135.206L114.763 136.554C115.043 137.099 115.786 137.554 116.399 137.554H182.241Z" fill="white"/>
</g>
<g opacity="0.6">
<path d="M114.672 141.629C114.059 141.629 113.779 142.06 114.066 142.613L114.763 143.961C115.043 144.507 115.786 144.961 116.399 144.961H182.241C182.855 144.961 183.339 144.454 183.317 143.84V143.583C183.279 142.969 182.756 142.454 182.135 142.447L114.672 141.629Z" fill="white"/>
</g>
<g opacity="0.6">
<path d="M115.066 149.385C114.453 149.385 114.172 149.816 114.46 150.369L115.157 151.717C115.437 152.263 116.18 152.717 116.793 152.717H182.635C183.248 152.717 183.733 152.21 183.71 151.596V151.339C183.673 150.725 183.15 150.21 182.529 150.203L115.066 149.385Z" fill="white"/>
</g>
<path opacity="0.6" d="M105.568 138.425C106.865 138.425 107.916 137.373 107.916 136.077C107.916 134.78 106.865 133.729 105.568 133.729C104.271 133.729 103.22 134.78 103.22 136.077C103.22 137.373 104.271 138.425 105.568 138.425Z" fill="white"/>
<g opacity="0.6">
<path d="M182.006 166.078C182.62 166.078 183.104 165.571 183.082 164.957V164.699C183.044 164.086 182.521 163.571 181.9 163.563L114.437 162.745C113.824 162.745 113.544 163.177 113.832 163.73L114.528 165.078C114.809 165.624 115.551 166.078 116.164 166.078H182.006Z" fill="white"/>
</g>
<g opacity="0.6">
<path d="M114.437 170.153C113.824 170.153 113.544 170.585 113.832 171.137L114.528 172.486C114.809 173.031 115.551 173.485 116.164 173.485H182.006C182.62 173.485 183.104 172.978 183.082 172.364V172.107C183.044 171.493 182.521 170.978 181.9 170.971L114.437 170.153Z" fill="white"/>
</g>
<g opacity="0.6">
<path d="M114.831 177.916C114.218 177.916 113.938 178.348 114.225 178.901L114.922 180.249C115.202 180.794 115.945 181.249 116.558 181.249H182.4C183.014 181.249 183.498 180.741 183.476 180.128V179.87C183.438 179.257 182.915 178.742 182.294 178.734L114.831 177.916Z" fill="white"/>
</g>
<path opacity="0.6" d="M105.333 166.941C106.63 166.941 107.681 165.89 107.681 164.593C107.681 163.297 106.63 162.245 105.333 162.245C104.037 162.245 102.985 163.297 102.985 164.593C102.985 165.89 104.037 166.941 105.333 166.941Z" fill="white"/>
<path d="M146.711 54.6928C143.257 52.2918 140.258 52.3373 138.144 52.9584C136.213 53.5264 134.963 55.3896 135.153 57.3892L136.062 67.3416L146.908 68.3035C146.908 68.3035 153.482 59.4039 146.711 54.6928ZM141.939 62.7214C140.447 62.7214 139.235 61.5095 139.235 60.0174C139.235 58.5253 140.447 57.3135 141.939 57.3135C143.431 57.3135 144.643 58.5253 144.643 60.0174C144.643 61.5095 143.431 62.7214 141.939 62.7214Z" fill="url(#paint5_linear_276_18)"/>
<path d="M137.145 63.1607C137.008 63.1607 136.895 63.0622 136.887 62.9259L136.743 61.3429C136.728 61.199 136.834 61.0703 136.978 61.0551C137.122 61.04 137.251 61.146 137.266 61.2899L137.41 62.8729C137.425 63.0168 137.319 63.1456 137.175 63.1607C137.167 63.1607 137.16 63.1607 137.152 63.1607H137.145ZM136.857 60.0553C136.721 60.0553 136.607 59.9569 136.599 59.8205L136.486 58.6162C136.312 56.7076 137.508 54.9352 139.341 54.3974C140.636 54.0187 141.969 53.9582 143.303 54.2384C143.446 54.2687 143.537 54.405 143.507 54.5489C143.477 54.6928 143.34 54.7837 143.196 54.7534C141.947 54.4959 140.697 54.5489 139.485 54.9049C137.895 55.3745 136.849 56.9196 137.008 58.5784L137.122 59.7827C137.137 59.9266 137.031 60.0553 136.887 60.0705C136.88 60.0705 136.872 60.0705 136.864 60.0705L136.857 60.0553Z" fill="white"/>
<path d="M121.254 73.772V68.773C121.254 67.0461 122.686 65.6601 124.413 65.7207L158.898 66.9022C160.428 66.9552 161.67 68.1595 161.761 69.6895L162.048 74.4991L121.254 73.772Z" fill="url(#paint6_linear_276_18)"/>
<path d="M134.115 67.6066H132.631C132.487 67.6066 132.365 67.493 132.365 67.3415C132.365 67.19 132.479 67.0764 132.631 67.0764H134.115C134.259 67.0764 134.38 67.19 134.38 67.3415C134.38 67.493 134.267 67.6066 134.115 67.6066Z" fill="white"/>
<path d="M123.125 72.2041C122.981 72.2041 122.86 72.0905 122.86 71.939V69.9167C122.86 68.3564 124.132 67.084 125.693 67.084H131.146C131.29 67.084 131.411 67.1976 131.411 67.3491C131.411 67.5006 131.297 67.6142 131.146 67.6142H125.693C124.42 67.6142 123.382 68.6518 123.382 69.9243V71.9466C123.382 72.0905 123.269 72.2117 123.117 72.2117L123.125 72.2041Z" fill="white"/>
<path d="M107.204 75.037C107.288 73.3025 108.719 71.9468 110.454 71.9468H170.759C172.925 71.9468 174.781 73.507 175.152 75.6429L175.205 75.9383C175.606 78.2787 173.811 80.4222 171.433 80.4222H109.56C108.136 80.4222 107.007 79.2331 107.075 77.8167L107.212 75.0446L107.204 75.037Z" fill="url(#paint7_linear_276_18)"/>
<g opacity="0.6">
<path d="M170.403 213.022C169.789 212.992 169.342 213.469 169.418 214.075L169.554 215.196C169.63 215.81 170.191 216.31 170.812 216.31H184.513C185.127 216.31 185.634 215.802 185.627 215.189V214.939C185.619 214.325 185.112 213.787 184.491 213.757L170.403 213.022Z" fill="white"/>
</g>
<path d="M178.196 216.809C174.993 216.809 171.94 215.658 169.509 213.53C166.866 211.204 165.283 207.985 165.048 204.471C164.821 200.957 165.972 197.563 168.297 194.912C170.622 192.269 173.841 190.686 177.356 190.451C180.87 190.224 184.263 191.375 186.914 193.701C189.558 196.026 191.141 199.245 191.375 202.759C191.603 206.274 190.451 209.667 188.126 212.318C185.801 214.961 182.582 216.544 179.067 216.779C178.78 216.794 178.484 216.809 178.196 216.809ZM178.234 190.936C177.954 190.936 177.674 190.944 177.394 190.966C174.016 191.186 170.918 192.708 168.683 195.253C166.449 197.798 165.336 201.063 165.555 204.441C165.775 207.819 167.297 210.917 169.842 213.151C172.387 215.385 175.652 216.499 179.03 216.279C182.408 216.059 185.505 214.537 187.74 211.992C189.974 209.447 191.088 206.183 190.868 202.805C190.648 199.427 189.126 196.329 186.581 194.094C184.248 192.042 181.309 190.936 178.227 190.936H178.234Z" fill="url(#paint8_linear_276_18)"/>
<path d="M178.219 215.196C172.281 215.196 167.267 210.568 166.881 204.562C166.479 198.306 171.236 192.883 177.492 192.481C183.748 192.08 189.171 196.836 189.573 203.093C189.974 209.349 185.218 214.772 178.961 215.173C178.711 215.188 178.462 215.196 178.219 215.196ZM178.234 192.958C178 192.958 177.765 192.966 177.522 192.981C171.546 193.367 166.994 198.548 167.381 204.524C167.767 210.5 172.948 215.052 178.924 214.666C184.9 214.28 189.452 209.099 189.065 203.123C188.694 197.382 183.907 192.958 178.234 192.958Z" fill="url(#paint9_linear_276_18)"/>
<path d="M170.728 209.614L170.622 207.235C170.622 207.152 170.683 207.084 170.766 207.076L184.9 206.463C184.983 206.463 185.051 206.523 185.059 206.607L185.165 208.985C185.165 209.068 185.104 209.137 185.021 209.144L170.887 209.758C170.804 209.758 170.736 209.697 170.728 209.614Z" fill="url(#paint10_linear_276_18)"/>
<path d="M170.463 201.502L170.357 199.124C170.357 199.04 170.418 198.972 170.501 198.965L184.634 198.351C184.718 198.351 184.786 198.412 184.793 198.495L184.899 200.873C184.899 200.957 184.839 201.025 184.756 201.032L170.622 201.646C170.539 201.646 170.471 201.585 170.463 201.502Z" fill="url(#paint11_linear_276_18)"/>
<path d="M168.547 205.918L168.433 203.236C168.433 203.153 168.494 203.085 168.577 203.077L187.141 202.274C187.225 202.274 187.293 202.335 187.3 202.418L187.414 205.1C187.414 205.183 187.354 205.251 187.27 205.259L168.706 206.061C168.623 206.061 168.555 206.001 168.547 205.918Z" fill="url(#paint12_linear_276_18)"/>
<path d="M193.519 147.62C193.519 147.62 193.519 164.752 201.025 163.351C205.615 162.495 208.326 144.045 208.326 144.045C208.326 144.045 203.577 133.471 203.047 136.933C199.192 162.094 196.321 142.833 193.511 147.62H193.519Z" fill="#F79E6D"/>
<path d="M212.462 232.124C212.462 232.124 212.932 234.76 213.159 237.373C213.25 238.396 212.462 239.282 211.439 239.32C207.963 239.464 200.518 239.744 197.851 239.63C197.45 239.615 197.185 239.198 197.336 238.827C197.458 238.517 197.7 238.259 198.01 238.123L210.303 232.473L212.477 232.124H212.462Z" fill="url(#paint13_linear_276_18)"/>
<path d="M211.932 171.274C212.091 172.137 212.803 214.196 208.493 233.041C208.425 233.351 208.569 233.662 208.849 233.783C209.508 234.063 210.803 234.472 212.356 234.525C212.833 234.541 213.265 234.215 213.401 233.738C214.636 229.367 220.536 207.456 221.308 186.521C222.172 163.132 221.308 185.725 221.308 185.725L220.801 171.266H211.924L211.932 171.274Z" fill="url(#paint14_linear_276_18)"/>
<path d="M225.966 233.503C225.966 233.503 226.709 234.836 227.428 238.373C227.557 239.009 227.11 239.623 226.459 239.691C225.308 239.805 223.543 239.949 222.126 239.941C221.475 239.941 220.96 239.365 221.043 238.721C221.202 237.426 221.687 235.306 223.202 233.654L225.966 233.503Z" fill="url(#paint15_linear_276_18)"/>
<path d="M228.989 172.561C232.511 194.754 228.224 227.413 226.777 233.798C226.686 234.192 226.383 234.487 226.004 234.556C225.361 234.669 224.293 234.76 223.247 234.442C222.884 234.336 222.634 233.995 222.619 233.601C222.422 228.436 222.77 196.708 219.491 184.172C219.324 183.536 218.953 182.983 218.438 182.605L212.068 177.878L211.576 170.236L228.989 172.561Z" fill="#363F82"/>
<path d="M206.531 132.169C217.09 131.994 228.746 134.941 228.746 134.941C231.897 153.308 229.299 174.5 229.299 174.5C221.127 176.644 211.901 173.19 211.901 173.19C210.546 165.51 204.199 143.901 204.199 143.901C199.041 143.257 203.275 132.222 206.531 132.169Z" fill="url(#paint16_linear_276_18)"/>
<path d="M224.694 145.166L228.746 134.941C228.746 134.941 238.608 141.644 240.236 150.142C238.373 150.278 234.98 150.763 231.662 152.437C230.935 148.423 224.702 145.166 224.702 145.166H224.694Z" fill="url(#paint17_linear_276_18)"/>
<path d="M217.226 123.595L220.589 133.312C220.642 133.471 220.581 133.653 220.43 133.736C219.513 134.244 216.211 135.706 212.235 133.184C211.818 132.918 211.538 132.494 211.477 132.01L210.386 123.595H217.226Z" fill="#F79E6D"/>
<path d="M209.917 114.596C209.917 114.596 206.228 121.542 206.698 124.352C207.168 127.154 211.742 126.957 215.742 124.678L218.529 117.179L209.917 114.604V114.596Z" fill="#F79E6D"/>
<path d="M215.56 120.989C215.401 120.921 215.34 120.716 215.439 120.573C215.734 120.118 216.287 119.202 216.469 118.391C216.469 118.391 217.135 117.967 214.78 117.407C212.424 116.846 208.917 115.967 208.183 113.968C207.463 112.014 210.394 108.886 212.363 111.022C212.492 111.158 212.704 111.173 212.818 111.022C213.31 110.378 214.613 109.045 216.416 109.855C218.105 110.613 218.294 111.847 218.271 112.468C218.271 112.65 218.43 112.794 218.612 112.756C219.468 112.597 221.513 112.453 222.467 114.551C223.255 116.278 222.74 117.263 222.278 117.74C222.127 117.891 222.195 118.149 222.399 118.217C222.96 118.391 223.687 118.861 223.611 120.179C223.513 121.996 221.483 121.837 220.899 121.754C220.809 121.739 220.71 121.769 220.642 121.845C220.15 122.39 217.915 124.723 215.499 125.003C215.287 125.026 215.128 124.822 215.196 124.625L216.241 121.587C216.287 121.444 216.219 121.292 216.082 121.231L215.567 121.004L215.56 120.989Z" fill="url(#paint18_linear_276_18)"/>
<path d="M215.143 121.421C215.143 121.421 217.771 119.618 217.961 121.133C218.15 122.648 215.598 123.33 214.325 122.769L215.136 121.421H215.143Z" fill="url(#paint19_linear_276_18)"/>
<path d="M208.448 111.469C208.448 111.469 212.636 104.235 220.112 108.56C227.595 112.877 223.543 118.187 223.543 118.187L208.44 111.469H208.448Z" fill="#F0B14D"/>
<path d="M223.793 111.847C223.793 111.847 214.779 104.652 210.523 112.385C208.781 111.62 208.455 111.469 208.455 111.469C208.455 111.469 212.235 104.546 217.393 106.871C222.551 109.204 223.8 110.325 223.793 111.847Z" fill="url(#paint20_linear_276_18)"/>
<path d="M213.469 113.93C213.492 113.945 213.522 113.945 213.553 113.93L213.613 113.9C214.954 113.18 217.203 111.984 218.695 112.597C219.415 112.893 220.112 113.339 220.793 113.771C221.271 114.074 221.763 114.392 222.263 114.65C222.937 115.006 223.679 115.384 224.527 115.809C224.573 115.831 224.626 115.809 224.649 115.763C224.671 115.718 224.649 115.665 224.603 115.642C223.755 115.218 223.013 114.839 222.338 114.483C221.854 114.226 221.361 113.915 220.884 113.612C220.203 113.173 219.491 112.726 218.764 112.423C217.188 111.772 214.901 112.999 213.53 113.733L213.469 113.764C213.424 113.786 213.409 113.847 213.431 113.892C213.439 113.907 213.454 113.923 213.477 113.93H213.469Z" fill="white"/>
<path d="M223.528 119.353L205.751 112.514C205.637 112.468 205.569 112.362 205.569 112.241C205.569 112.12 205.653 112.014 205.766 111.976C206.683 111.681 208.198 111.264 208.811 111.537C210.758 112.408 223.558 118.172 223.558 118.172C223.558 118.172 223.876 118.323 223.535 119.338L223.528 119.353Z" fill="url(#paint21_linear_276_18)"/>
<path d="M221.695 133.509C220.044 137.395 217.544 141.576 214.636 145.908L216.552 174.455C221.089 176.046 225.497 177.015 229.542 176.394C230.231 166.199 230.64 156.724 230.185 149.513C229.86 144.583 229.761 139.629 230.375 135.865C229.481 134.933 226.989 134.092 221.695 133.502V133.509Z" fill="#F9C82B"/>
<path d="M210.796 131.972C211.75 137.077 212.969 141.992 214.628 145.908L216.544 174.455C214.598 174.584 212.689 174.372 210.788 174.046C208.857 166.373 207.168 156.557 205.562 145.991C205.736 141.03 205.607 136.145 205.039 131.919C207.046 131.57 208.955 131.6 210.788 131.964L210.796 131.972Z" fill="#E5B555"/>
<path d="M230.201 164.442H217.431V163.336H230.299L230.201 164.442Z" fill="white"/>
<path d="M229.958 169.509H217.431V167.774H230.079L229.958 169.509Z" fill="white"/>
<path d="M214.34 164.442H208.683L208.47 163.336H214.34V164.442Z" fill="white"/>
<path d="M214.34 169.509H209.728L209.356 167.774H214.34V169.509Z" fill="white"/>
<path d="M216.075 154.793C216.075 154.793 227.148 161.049 230.89 155.709C231.662 154.596 231.852 153.497 231.662 152.445C234.98 150.771 238.373 150.286 240.236 150.15C240.728 152.71 240.463 155.436 238.964 158.193C232.42 170.168 214.613 157.534 214.613 157.534L216.082 154.8L216.075 154.793Z" fill="#F79E6D"/>
<path d="M216.234 160.208L210.349 139.644C210.281 139.409 210.084 139.243 209.841 139.213C208.773 139.091 205.683 138.735 202.116 138.44C197.813 138.076 192.822 137.781 189.838 138.031C189.414 138.069 189.156 138.516 189.346 138.894C191.042 142.326 198.018 156.292 201.517 160.867C201.631 161.018 201.813 161.109 202.002 161.102L215.666 160.973C216.06 160.973 216.347 160.587 216.241 160.208H216.234Z" fill="url(#paint22_linear_276_18)"/>
<path d="M201.275 136.675L197.086 135.978C196.867 135.94 196.677 136.153 196.753 136.372L197.17 137.629C197.208 137.735 197.298 137.819 197.412 137.834L201.449 138.372C201.661 138.402 201.828 138.213 201.782 138.008L201.525 136.91C201.494 136.789 201.404 136.698 201.282 136.683L201.275 136.675Z" fill="url(#paint23_linear_276_18)"/>
<path d="M204.418 140.227L204.07 138.425C204.032 138.243 203.888 138.107 203.706 138.091L195.238 137.236C194.951 137.205 194.723 137.47 194.791 137.743L195.329 139.985C195.375 140.167 195.526 140.295 195.716 140.303L203.986 140.72C204.259 140.735 204.464 140.492 204.418 140.227Z" fill="url(#paint24_linear_276_18)"/>
<path d="M215.658 158.678C216.249 158.739 216.779 158.322 216.9 157.739C217.173 156.413 217.605 153.997 217.309 152.937C216.893 151.445 216.098 149.521 213.424 149.945C210.758 150.369 207.607 151.498 207.607 151.498C207.607 151.498 207.766 153.444 209.796 152.816L208.539 153.785C208.539 153.785 208.72 155.345 210.432 154.512L209.266 155.8C209.266 155.8 210 157.08 211.265 156.262C212.394 155.527 212.992 158.413 215.658 158.67V158.678Z" fill="#F79E6D"/>
<path d="M196.124 152.134C196.124 152.134 193.019 149.112 192.572 147.627C192.125 146.143 191.784 144.09 194.276 143.03C196.761 141.977 200.025 141.258 200.025 141.258C200.025 141.258 200.926 142.992 198.874 143.537L200.457 143.696C200.457 143.696 201.131 145.113 199.237 145.317L200.911 145.787C200.911 145.787 200.964 147.264 199.465 147.234C197.957 147.211 199.419 150.665 196.117 152.134H196.124Z" fill="#F79E6D"/>
<path d="M106.788 57.9421L60.275 34.5457L36.7119 59.2221L38.3101 59.2827L60.631 35.5303L106.098 58.6541L106.788 57.9421Z" fill="url(#paint25_linear_276_18)"/>
<path d="M45.1571 59.4268L45.051 64.7665L45.9978 64.7741L46.0963 59.4268H45.1571Z" fill="url(#paint26_linear_276_18)"/>
<path d="M36.568 64.2742L54.1475 64.3499L54.1021 64.8119L36.568 64.7362V64.2742Z" fill="url(#paint27_linear_276_18)"/>
<path d="M36.568 59.1011L53.9279 59.1768L54.1097 59.6313L36.568 59.5631V59.1011Z" fill="url(#paint28_linear_276_18)"/>
<path d="M36.6285 64.7362H37.136V59.1011H36.6285V64.7362Z" fill="url(#paint29_linear_276_18)"/>
<path d="M53.6553 142.363H67.425V140.72H53.6553V142.363Z" fill="url(#paint30_linear_276_18)"/>
<path d="M53.6628 162.109H67.3947V160.958H53.6628V162.109Z" fill="url(#paint31_linear_276_18)"/>
<path d="M53.6628 151.907H67.3947V150.755H53.6628V151.907Z" fill="url(#paint32_linear_276_18)"/>
<path d="M53.6628 172.145H67.3947V170.993H53.6628V172.145Z" fill="url(#paint33_linear_276_18)"/>
<path d="M53.6628 182.188H67.3947V181.029H53.6628V182.188Z" fill="url(#paint34_linear_276_18)"/>
<path d="M53.6628 191.913H67.3947V190.762H53.6628V191.913Z" fill="url(#paint35_linear_276_18)"/>
<path d="M53.6628 201.949H67.3947V200.798H53.6628V201.949Z" fill="url(#paint36_linear_276_18)"/>
<path d="M67.3947 150.422L66.7812 151.331L53.2386 142.166L53.8522 141.258L67.3947 150.422Z" fill="url(#paint37_linear_276_18)"/>
<path d="M67.2356 170.6L66.6221 171.509L53.0796 162.344L53.6931 161.435L67.2356 170.6Z" fill="url(#paint38_linear_276_18)"/>
<path d="M67.3947 190.777L66.7812 191.686L53.2386 182.521L53.8522 181.605L67.3947 190.777Z" fill="url(#paint39_linear_276_18)"/>
<path d="M66.4631 190.785L67.1675 191.633L54.5944 202.085L53.89 201.237L66.4631 190.785Z" fill="url(#paint40_linear_276_18)"/>
<path d="M66.2586 170.312L66.9554 171.153L54.3824 181.605L53.678 180.764L66.2586 170.312Z" fill="url(#paint41_linear_276_18)"/>
<path d="M66.2586 150.24L66.9554 151.081L54.3824 161.534L53.678 160.685L66.2586 150.24Z" fill="url(#paint42_linear_276_18)"/>
<path d="M67.3947 210.273L66.7812 211.182L53.2386 202.017L53.8522 201.108L67.3947 210.273Z" fill="url(#paint43_linear_276_18)"/>
<path d="M66.2131 210.061H67.3947V140.72H66.2131V210.061Z" fill="url(#paint44_linear_276_18)"/>
<path d="M52.913 210.129H54.1021V140.78H52.913V210.129Z" fill="url(#paint45_linear_276_18)"/>
<path d="M53.7841 58.8207H67.5159V57.6694H53.7841V58.8207Z" fill="url(#paint46_linear_276_18)"/>
<path d="M53.7841 69.0004H67.5159V67.8491H53.7841V69.0004Z" fill="url(#paint47_linear_276_18)"/>
<path d="M53.7841 79.036H67.5159V77.8848H53.7841V79.036Z" fill="url(#paint48_linear_276_18)"/>
<path d="M53.7841 88.769H67.5159V87.6101H53.7841V88.769Z" fill="url(#paint49_linear_276_18)"/>
<path d="M53.7841 98.8046H67.5159V97.6533H53.7841V98.8046Z" fill="url(#paint50_linear_276_18)"/>
<path d="M67.3568 67.4552L66.7433 68.3641L53.2008 59.1994L53.8143 58.283L67.3568 67.4552Z" fill="url(#paint51_linear_276_18)"/>
<path d="M67.5159 87.6251L66.9024 88.534L53.3599 79.3693L53.9734 78.4604L67.5159 87.6251Z" fill="url(#paint52_linear_276_18)"/>
<path d="M66.5843 87.6404L67.2887 88.4887L54.7156 98.9334L54.0112 98.0927L66.5843 87.6404Z" fill="url(#paint53_linear_276_18)"/>
<path d="M66.3798 67.1675L67.0766 68.0082L54.5036 78.4605L53.7992 77.6198L66.3798 67.1675Z" fill="url(#paint54_linear_276_18)"/>
<path d="M67.5159 107.129L66.9024 108.037L53.3599 98.8728L53.9734 97.9563L67.5159 107.129Z" fill="url(#paint55_linear_276_18)"/>
<path d="M66.3344 106.939H67.5159V57.5862H66.3344V106.939Z" fill="url(#paint56_linear_276_18)"/>
<path d="M53.0342 106.985H54.2233V57.6316H53.0342V106.985Z" fill="url(#paint57_linear_276_18)"/>
<path d="M123.133 58.3813L123.034 66.4099L124.382 66.4175L124.488 58.3889L123.133 58.3813Z" fill="url(#paint58_linear_276_18)"/>
<path d="M116.437 66.3495L115.695 65.9784L123.299 58.1467L124.042 58.5103L116.437 66.3495Z" fill="url(#paint59_linear_276_18)"/>
<path d="M99.9256 66.1449L99.1833 65.7814L106.788 57.9421L107.53 58.3057L99.9256 66.1449Z" fill="url(#paint60_linear_276_18)"/>
<path d="M83.4064 66.1298L82.6642 65.7662L90.2686 57.927L91.0109 58.2906L83.4064 66.1298Z" fill="url(#paint61_linear_276_18)"/>
<path d="M83.4064 65.5845L82.7096 65.9935L74.2493 58.6087L74.9461 58.2073L83.4064 65.5845Z" fill="url(#paint62_linear_276_18)"/>
<path d="M100.168 65.5769L99.4711 65.9783L90.7306 58.3663L91.7076 58.1921L100.168 65.5769Z" fill="url(#paint63_linear_276_18)"/>
<path d="M116.596 65.6829L115.899 66.0843L107 58.3814L108.136 58.2981L116.596 65.6829Z" fill="url(#paint64_linear_276_18)"/>
<path d="M67.4477 66.0238L66.7054 65.6603L74.3099 57.821L75.0521 58.1846L67.4477 66.0238Z" fill="url(#paint65_linear_276_18)"/>
<path d="M67.6295 65.3345L67.6144 66.0237L124.382 66.3949L124.39 65.7056L67.6295 65.3345Z" fill="url(#paint66_linear_276_18)"/>
<path d="M67.3265 57.5862L67.319 58.2754L124.428 58.6541L124.435 57.9649L67.3265 57.5862Z" fill="url(#paint67_linear_276_18)"/>
<path d="M52.2767 107.591H68.7808V106.273H52.2767V107.591Z" fill="url(#paint68_linear_276_18)"/>
<path d="M53.1326 119.028H68.7807V117.71H53.1326V119.028Z" fill="url(#paint69_linear_276_18)"/>
<path d="M53.1326 130.108H68.7807V128.791H53.1326V130.108Z" fill="url(#paint70_linear_276_18)"/>
<path d="M53.1326 141.545H68.7807V140.228H53.1326V141.545Z" fill="url(#paint71_linear_276_18)"/>
<path d="M68.7807 128.813L68.0763 129.843L52.6478 119.406L53.3522 118.369L68.7807 128.813Z" fill="url(#paint72_linear_276_18)"/>
<path d="M67.7204 128.821L68.5157 129.783L54.7989 141.189L53.3901 140.727L67.7204 128.821Z" fill="url(#paint73_linear_276_18)"/>
<path d="M66.1222 106.629L66.9175 107.591L53.9506 118.369L53.1477 117.407L66.1222 106.629Z" fill="url(#paint74_linear_276_18)"/>
<path d="M67.4249 141.508H68.7807V106.273H67.4249V141.508Z" fill="url(#paint75_linear_276_18)"/>
<path d="M52.2767 141.545H53.6325V106.311H52.2767V141.545Z" fill="url(#paint76_linear_276_18)"/>
<path d="M49.2547 115.233H72.068C72.121 115.233 72.1664 115.187 72.1664 115.134V114.475C72.1664 114.422 72.121 114.377 72.068 114.377H49.2547C49.2017 114.377 49.1562 114.422 49.1562 114.475V115.134C49.1562 115.187 49.2017 115.233 49.2547 115.233Z" fill="url(#paint77_linear_276_18)"/>
<path d="M49.5273 125.117H71.6514V124.261H49.5273V125.117Z" fill="url(#paint78_linear_276_18)"/>
<path d="M70.7955 124.966H71.6514V114.377H70.7955V124.966Z" fill="url(#paint79_linear_276_18)"/>
<path d="M68.9474 124.966H69.3791V114.377H68.9474V124.966Z" fill="url(#paint80_linear_276_18)"/>
<path d="M66.8191 124.966H67.2508V114.377H66.8191V124.966Z" fill="url(#paint81_linear_276_18)"/>
<path d="M64.6908 124.966H65.1225V114.377H64.6908V124.966Z" fill="url(#paint82_linear_276_18)"/>
<path d="M62.5625 124.966H62.9942V114.377H62.5625V124.966Z" fill="url(#paint83_linear_276_18)"/>
<path d="M60.2902 124.966H60.7219V114.377H60.2902V124.966Z" fill="url(#paint84_linear_276_18)"/>
<path d="M58.1619 124.966H58.5936V114.377H58.1619V124.966Z" fill="url(#paint85_linear_276_18)"/>
<path d="M55.7684 124.966H56.2002V114.377H55.7684V124.966Z" fill="url(#paint86_linear_276_18)"/>
<path d="M53.6401 124.966H54.0719V114.377H53.6401V124.966Z" fill="url(#paint87_linear_276_18)"/>
<path d="M51.5345 124.966H51.9587V114.377H51.5345V124.966Z" fill="url(#paint88_linear_276_18)"/>
<path d="M49.5273 124.966H50.3908V114.377H49.5273V124.966Z" fill="url(#paint89_linear_276_18)"/>
<path d="M66.6071 57.927L66.9252 57.4574L56.3214 50.2847L56.0033 50.7467L66.6071 57.927Z" fill="url(#paint90_linear_276_18)"/>
<path d="M64.5923 49.8833L64.9028 49.4213L57.5332 44.4299L57.2227 44.8995L64.5923 49.8833Z" fill="url(#paint91_linear_276_18)"/>
<path d="M62.6382 44.2103L62.9563 43.7408L58.6239 40.8171L58.3134 41.2792L62.6382 44.2103Z" fill="url(#paint92_linear_276_18)"/>
<path d="M64.5696 49.2318L64.206 48.8L53.9658 57.4043L54.3294 57.836L64.5696 49.2318Z" fill="url(#paint93_linear_276_18)"/>
<path d="M62.8579 44.0892L62.464 43.6877L55.3595 50.7923L55.7534 51.1937L62.8579 44.0892Z" fill="url(#paint94_linear_276_18)"/>
<path d="M61.4641 38.9007L61.093 38.5295L58.3739 41.2487L58.745 41.6198L61.4641 38.9007Z" fill="url(#paint95_linear_276_18)"/>
<path d="M67.5159 57.6695L60.275 34.5457L53.0342 57.927H54.5036L60.275 37.848L66.3343 57.5861L67.5159 57.6695Z" fill="url(#paint96_linear_276_18)"/>
<path d="M60.0856 37.2723C61.0143 37.2723 61.7671 36.5195 61.7671 35.5909C61.7671 34.6622 61.0143 33.9094 60.0856 33.9094C59.157 33.9094 58.4042 34.6622 58.4042 35.5909C58.4042 36.5195 59.157 37.2723 60.0856 37.2723Z" fill="url(#paint97_linear_276_18)"/>
<path d="M60.3129 71.1892H85.6029V57.6088C85.6029 55.3971 83.8154 53.6096 81.6037 53.6096H61.7368C60.9491 53.6096 60.3129 54.2458 60.3129 55.0336V71.1892Z" fill="url(#paint98_linear_276_18)"/>
<path d="M71.0302 70.9923L70.8636 56.6091C70.8485 55.6169 70.0229 54.8292 69.0382 54.867L63.5016 55.0715C62.7138 55.1018 62.0928 55.7456 62.0928 56.5333V70.9848H71.0302V70.9923Z" fill="url(#paint99_linear_276_18)"/>
<path d="M63.3123 65.3345H69.3943V57.6619C69.3943 57.1393 68.9929 56.7151 68.4702 56.6848L65.1679 56.4879C64.1606 56.4273 63.3123 57.4649 63.3123 58.7677V65.342V65.3345Z" fill="url(#paint100_linear_276_18)"/>
<path d="M85.6028 65.7054H77.8015C77.1577 65.7054 76.6351 65.1904 76.6199 64.5542L76.37 53.7004C80.2934 54.1928 86.0497 57.4193 85.6028 65.7054Z" fill="url(#paint101_linear_276_18)"/>
<path d="M50.3378 128.965H70.7425V125.117H50.3378V128.965Z" fill="url(#paint102_linear_276_18)"/>
<path d="M96.9414 66.7888H96.3354V88.0039H96.9414V66.7888Z" fill="url(#paint103_linear_276_18)"/>
<path d="M100.456 88.0039H99.8574L99.9256 66.5767H100.524L100.456 88.0039Z" fill="url(#paint104_linear_276_18)"/>
<path d="M96.5702 91.4198L95.828 87.3828C95.6765 86.5345 96.3203 85.762 97.1837 85.762H99.0243C99.9559 85.762 100.691 86.5572 100.622 87.4889L100.297 91.6471C100.251 92.2 99.971 92.6923 99.5317 93.0255C98.8652 93.533 97.9184 94.5858 97.7139 96.5702C97.57 97.9942 98.1684 99.3045 99.4408 99.9862C100.138 100.357 101.069 100.638 101.857 100.448C102.296 100.335 103.864 99.7438 103.97 99.2969C105.546 95.7068 107.341 99.1076 104.909 101.183C104.129 101.895 102.864 102.425 101.849 102.592C96.6005 103.44 91.5107 97.8503 95.9946 93.3209C96.4869 92.8211 96.6914 92.1091 96.5627 91.4198H96.5702Z" fill="url(#paint105_linear_276_18)"/>
<path d="M98.3577 88.5038C99.5541 88.5038 100.524 87.534 100.524 86.3376C100.524 85.1412 99.5541 84.1714 98.3577 84.1714C97.1614 84.1714 96.1915 85.1412 96.1915 86.3376C96.1915 87.534 97.1614 88.5038 98.3577 88.5038Z" fill="url(#paint106_linear_276_18)"/>
<path opacity="0.8" d="M99.6377 86.3376C99.6377 87.0496 99.0621 87.6253 98.3501 87.6253C97.6381 87.6253 97.0625 87.0496 97.0625 86.3376C97.0625 85.6257 97.6381 85.05 98.3501 85.05C99.0621 85.05 99.6377 85.6257 99.6377 86.3376Z" fill="white"/>
<path d="M98.4638 68.7201C99.7522 68.7201 100.797 67.6757 100.797 66.3873C100.797 65.0989 99.7522 64.0544 98.4638 64.0544C97.1754 64.0544 96.131 65.0989 96.131 66.3873C96.131 67.6757 97.1754 68.7201 98.4638 68.7201Z" fill="url(#paint107_linear_276_18)"/>
<path opacity="0.8" d="M98.4638 67.7734C99.2293 67.7734 99.8499 67.1528 99.8499 66.3873C99.8499 65.6218 99.2293 65.0012 98.4638 65.0012C97.6983 65.0012 97.0778 65.6218 97.0778 66.3873C97.0778 67.1528 97.6983 67.7734 98.4638 67.7734Z" fill="white"/>
<path d="M137.531 229.223C137.531 191.019 94.0404 185.589 92.7755 185.392C91.5106 185.589 47.7549 191.019 47.7549 229.231C50.3528 231.556 48.588 232.7 48.588 232.7H136.425C136.425 232.7 134.933 231.564 137.531 229.231V229.223Z" fill="url(#paint108_linear_276_18)"/>
<path d="M45.8008 232.253C45.8008 232.253 44.5511 243.198 89.5868 243.198C134.623 243.198 139.137 232.253 139.137 232.253C139.137 232.253 79.4602 226.527 45.8008 232.253Z" fill="url(#paint109_linear_276_18)"/>
<path d="M45.8008 229.791C45.8008 229.791 44.5511 240.736 89.5868 240.736C134.623 240.736 139.137 229.791 139.137 229.791C139.137 229.791 79.4602 224.065 45.8008 229.791Z" fill="url(#paint110_linear_276_18)"/>
<path d="M139.349 229.473C139.258 228.526 138.288 227.799 137.251 227.799C136.213 227.799 135.259 228.579 135.259 229.541V229.557C135.259 229.685 135.282 229.814 135.175 229.897C135.069 229.981 134.956 230.019 134.812 230.003C130.904 229.443 108.045 226.004 106.53 222.157C106.114 212.06 109.401 189.527 108 188.103C106.765 186.846 102.864 186.074 100.357 185.907C100.115 185.892 99.88 185.967 99.6983 186.111C99.5165 186.255 99.4105 186.467 99.4029 186.695C99.1984 191.701 98.5924 216.628 98.4788 221.331C98.4713 221.755 98.0926 222.073 97.623 222.073H97.0625C96.8277 222.073 96.608 222.013 96.449 221.854C96.2899 221.702 96.2066 221.505 96.2142 221.293L97.5396 184.218C97.5775 183.074 96.7519 182.067 95.5325 181.802C93.5254 181.355 91.4349 181.355 89.4278 181.802H89.405C88.1856 182.074 87.3449 183.089 87.3903 184.225L88.7158 221.308C88.7158 221.52 88.64 221.702 88.4734 221.854C88.3144 222.005 88.0871 222.073 87.8599 222.073H87.2994C86.8374 222.073 86.4511 221.755 86.4436 221.331C86.3299 216.628 85.724 191.686 85.5195 186.687C85.5119 186.467 85.4059 186.263 85.2241 186.111C85.0423 185.96 84.8 185.892 84.5576 185.907C82.0506 186.074 78.1423 186.846 76.9077 188.103C75.5065 189.527 78.7785 212.06 78.362 222.157C76.8396 226.012 53.9581 229.443 50.0499 230.003C49.906 230.026 49.7999 229.988 49.6863 229.897C49.5803 229.814 49.55 229.685 49.55 229.557V229.541C49.55 228.579 48.6638 227.799 47.611 227.799C46.5582 227.799 45.6872 228.526 45.5963 229.473L45.1721 233.715C45.1494 233.927 45.2327 234.139 45.3918 234.298C45.5584 234.449 45.7857 234.533 46.0204 234.518L92.4877 231.783L138.94 234.518C139.175 234.533 139.409 234.449 139.568 234.298C139.728 234.146 139.818 233.927 139.796 233.715L139.364 229.473H139.349Z" fill="url(#paint111_linear_276_18)"/>
<g opacity="0.7">
<path opacity="0.3" d="M70.8484 196.927C67.0538 196.132 63.2288 200.184 61.1081 202.6C58.6238 205.441 54.7231 209.311 56.8817 213.28C58.3587 215.991 62.0624 216.794 64.9254 215.734C68.1596 214.537 68.0232 211.235 69.2957 208.675C70.7575 205.721 74.6279 201.752 72.6662 198.283C72.2193 197.488 71.5755 197.079 70.8484 196.927Z" fill="white"/>
</g>
<g opacity="0.7">
<path d="M65.8949 221.732C52.9432 221.732 49.3455 218.021 49.1713 217.832C49.0577 217.711 49.0804 217.529 49.2091 217.43C49.3379 217.332 49.5348 217.347 49.6484 217.461C49.709 217.521 55.1245 222.997 76.2715 220.49C76.4381 220.468 76.5972 220.581 76.6199 220.733C76.6426 220.892 76.5214 221.028 76.3548 221.051C72.3329 221.528 68.8716 221.725 65.9025 221.725L65.8949 221.732Z" fill="white"/>
<path d="M119.035 221.732C116.066 221.732 112.605 221.536 108.583 221.058C108.408 221.036 108.295 220.899 108.318 220.74C108.34 220.581 108.492 220.475 108.666 220.498C129.904 223.012 135.244 217.521 135.289 217.468C135.403 217.347 135.6 217.332 135.728 217.43C135.857 217.529 135.88 217.711 135.766 217.832C135.592 218.021 131.987 221.732 119.043 221.732H119.035Z" fill="white"/>
</g>
<path opacity="0.2" d="M94.0403 224.929C94.0403 225.368 93.2299 225.724 92.3968 225.724C91.5636 225.724 90.7532 225.368 90.7532 224.929V183.627C90.7532 183.188 91.5636 182.832 92.3968 182.832C93.2299 182.832 94.0403 183.188 94.0403 183.627V224.929Z" fill="white"/>
<path opacity="0.2" d="M104.197 188.929L103.728 188.793C103.235 188.649 102.705 188.717 102.273 188.967C101.849 189.217 101.584 189.626 101.554 190.065L99.5544 224.52C99.5165 225.194 100.092 225.777 100.872 225.86H100.903C101.304 225.906 101.713 225.8 102.024 225.573C102.334 225.345 102.531 225.027 102.554 224.679L105.318 190.376C105.371 189.732 104.909 189.134 104.197 188.929Z" fill="white"/>
<path opacity="0.2" d="M80.7326 188.929L81.2022 188.793C81.6946 188.649 82.2247 188.717 82.6565 188.967C83.0806 189.217 83.3457 189.626 83.376 190.065L85.3756 224.52C85.4135 225.194 84.8378 225.777 84.0577 225.86H84.0274C83.626 225.906 83.217 225.8 82.9064 225.573C82.5959 225.345 82.399 225.027 82.3762 224.679L79.6117 190.376C79.5587 189.732 80.0207 189.134 80.7326 188.929Z" fill="white"/>
<path d="M130.858 233.215C130.752 232.942 130.404 232.745 129.972 232.715C121.527 232.094 91.4273 230.269 53.8673 232.73C53.4355 232.76 53.0796 232.965 52.9735 233.238C52.8675 233.51 53.0341 233.806 53.3977 233.965C57.6922 235.858 69.1594 239.623 92.4802 239.517C115.748 239.418 126.503 235.775 130.457 233.934C130.805 233.775 130.964 233.488 130.858 233.215Z" fill="url(#paint112_linear_276_18)"/>
<defs>
<linearGradient id="paint0_linear_276_18" x1="257.922" y1="271.411" x2="104.568" y2="105.886" gradientUnits="userSpaceOnUse">
<stop stop-color="#FF1B2B"/>
<stop offset="1" stop-color="#F87637"/>
</linearGradient>
<linearGradient id="paint1_linear_276_18" x1="223.937" y1="103.273" x2="149.316" y2="103.273" gradientUnits="userSpaceOnUse">
<stop stop-color="#66BEFF"/>
<stop offset="1" stop-color="#897FF8"/>
</linearGradient>
<linearGradient id="paint2_linear_276_18" x1="116.536" y1="17.6856" x2="192.3" y2="131.328" gradientUnits="userSpaceOnUse">
<stop stop-color="#31B5D5"/>
<stop offset="1" stop-color="#4742EF"/>
</linearGradient>
<linearGradient id="paint3_linear_276_18" x1="143.598" y1="221.945" x2="134.812" y2="-38.3098" gradientUnits="userSpaceOnUse">
<stop stop-color="#334682"/>
<stop offset="1" stop-color="#421221"/>
</linearGradient>
<linearGradient id="paint4_linear_276_18" x1="188.687" y1="77.3849" x2="83.4745" y2="243.379" gradientUnits="userSpaceOnUse">
<stop stop-color="#6BB6FF"/>
<stop offset="0.2" stop-color="#A8B6FD"/>
<stop offset="1" stop-color="#6F79F7"/>
</linearGradient>
<linearGradient id="paint5_linear_276_18" x1="157.375" y1="40.4232" x2="113.407" y2="98.2668" gradientUnits="userSpaceOnUse">
<stop stop-color="#334682"/>
<stop offset="1" stop-color="#421221"/>
</linearGradient>
<linearGradient id="paint6_linear_276_18" x1="162.2" y1="44.089" x2="118.232" y2="101.933" gradientUnits="userSpaceOnUse">
<stop stop-color="#334682"/>
<stop offset="1" stop-color="#421221"/>
</linearGradient>
<linearGradient id="paint7_linear_276_18" x1="149.029" y1="18.6174" x2="139.788" y2="86.5042" gradientUnits="userSpaceOnUse">
<stop stop-color="#6BB6FF"/>
<stop offset="0.2" stop-color="#A8B6FD"/>
<stop offset="1" stop-color="#6F79F7"/>
</linearGradient>
<linearGradient id="paint8_linear_276_18" x1="165.067" y1="204.489" x2="191.385" y2="202.787" gradientUnits="userSpaceOnUse">
<stop stop-color="#4D5BD5"/>
<stop offset="1" stop-color="#A69DEF"/>
</linearGradient>
<linearGradient id="paint9_linear_276_18" x1="166.894" y1="204.568" x2="189.584" y2="203.1" gradientUnits="userSpaceOnUse">
<stop stop-color="#4D5BD5"/>
<stop offset="1" stop-color="#A69DEF"/>
</linearGradient>
<linearGradient id="paint10_linear_276_18" x1="198.178" y1="214.383" x2="151.288" y2="207.618" gradientUnits="userSpaceOnUse">
<stop stop-color="#4D5BD5"/>
<stop offset="1" stop-color="#A69DEF"/>
</linearGradient>
<linearGradient id="paint11_linear_276_18" x1="199.365" y1="206.317" x2="152.475" y2="199.551" gradientUnits="userSpaceOnUse">
<stop stop-color="#4D5BD5"/>
<stop offset="1" stop-color="#A69DEF"/>
</linearGradient>
<linearGradient id="paint12_linear_276_18" x1="211.312" y1="208.869" x2="146.66" y2="197.14" gradientUnits="userSpaceOnUse">
<stop stop-color="#4D5BD5"/>
<stop offset="1" stop-color="#A69DEF"/>
</linearGradient>
<linearGradient id="paint13_linear_276_18" x1="198.23" y1="228.481" x2="243.243" y2="277.44" gradientUnits="userSpaceOnUse">
<stop stop-color="#CB236D"/>
<stop offset="1" stop-color="#4C246D"/>
</linearGradient>
<linearGradient id="paint14_linear_276_18" x1="221.695" y1="202.903" x2="208.47" y2="202.903" gradientUnits="userSpaceOnUse">
<stop stop-color="#2B3582"/>
<stop offset="1" stop-color="#150E42"/>
</linearGradient>
<linearGradient id="paint15_linear_276_18" x1="207.698" y1="219.195" x2="252.711" y2="268.155" gradientUnits="userSpaceOnUse">
<stop stop-color="#CB236D"/>
<stop offset="1" stop-color="#4C246D"/>
</linearGradient>
<linearGradient id="paint16_linear_276_18" x1="238.782" y1="126.405" x2="180.143" y2="200.177" gradientUnits="userSpaceOnUse">
<stop stop-color="#2B3582"/>
<stop offset="1" stop-color="#150E42"/>
</linearGradient>
<linearGradient id="paint17_linear_276_18" x1="244.008" y1="130.555" x2="185.369" y2="204.335" gradientUnits="userSpaceOnUse">
<stop stop-color="#2B3582"/>
<stop offset="1" stop-color="#150E42"/>
</linearGradient>
<linearGradient id="paint18_linear_276_18" x1="225.52" y1="109.094" x2="210.991" y2="120.549" gradientUnits="userSpaceOnUse">
<stop stop-color="#2B3582"/>
<stop offset="1" stop-color="#150E42"/>
</linearGradient>
<linearGradient id="paint19_linear_276_18" x1="211.009" y1="125.391" x2="221.124" y2="119.226" gradientUnits="userSpaceOnUse">
<stop stop-color="#F9B776"/>
<stop offset="1" stop-color="#F47960"/>
</linearGradient>
<linearGradient id="paint20_linear_276_18" x1="215.969" y1="103.122" x2="216.597" y2="137.804" gradientUnits="userSpaceOnUse">
<stop stop-color="#FDF53F"/>
<stop offset="1" stop-color="#D93C65"/>
</linearGradient>
<linearGradient id="paint21_linear_276_18" x1="214.477" y1="98.6682" x2="214.893" y2="143.439" gradientUnits="userSpaceOnUse">
<stop stop-color="#FDF53F"/>
<stop offset="1" stop-color="#D93C65"/>
</linearGradient>
<linearGradient id="paint22_linear_276_18" x1="202.767" y1="133.032" x2="202.767" y2="177.803" gradientUnits="userSpaceOnUse">
<stop stop-color="#53D8FF"/>
<stop offset="0.2" stop-color="#4DB9FD"/>
<stop offset="1" stop-color="#3840F7"/>
</linearGradient>
<linearGradient id="paint23_linear_276_18" x1="197.079" y1="127.586" x2="199.972" y2="140.303" gradientUnits="userSpaceOnUse">
<stop stop-color="#2B3582"/>
<stop offset="1" stop-color="#150E42"/>
</linearGradient>
<linearGradient id="paint24_linear_276_18" x1="198.594" y1="132.918" x2="199.98" y2="141.227" gradientUnits="userSpaceOnUse">
<stop stop-color="#2B3582"/>
<stop offset="1" stop-color="#150E42"/>
</linearGradient>
<linearGradient id="paint25_linear_276_18" x1="110.014" y1="310.895" x2="63.8954" y2="6.80921" gradientUnits="userSpaceOnUse">
<stop stop-color="#94458C"/>
<stop offset="1" stop-color="#DD0E1D"/>
</linearGradient>
<linearGradient id="paint26_linear_276_18" x1="83.9062" y1="314.856" x2="37.7874" y2="10.7706" gradientUnits="userSpaceOnUse">
<stop stop-color="#94458C"/>
<stop offset="1" stop-color="#DD0E1D"/>
</linearGradient>
<linearGradient id="paint27_linear_276_18" x1="83.3609" y1="315.121" x2="37.2121" y2="10.8086" gradientUnits="userSpaceOnUse">
<stop stop-color="#94458C"/>
<stop offset="1" stop-color="#DD0E1D"/>
</linearGradient>
<linearGradient id="paint28_linear_276_18" x1="84.0805" y1="315.016" x2="37.9238" y2="10.7024" gradientUnits="userSpaceOnUse">
<stop stop-color="#94458C"/>
<stop offset="1" stop-color="#DD0E1D"/>
</linearGradient>
<linearGradient id="paint29_linear_276_18" x1="75.4384" y1="316.144" x2="29.3197" y2="12.0506" gradientUnits="userSpaceOnUse">
<stop stop-color="#94458C"/>
<stop offset="1" stop-color="#DD0E1D"/>
</linearGradient>
<linearGradient id="paint30_linear_276_18" x1="86.7618" y1="314.424" x2="40.6431" y2="10.339" gradientUnits="userSpaceOnUse">
<stop stop-color="#94458C"/>
<stop offset="1" stop-color="#DD0E1D"/>
</linearGradient>
<linearGradient id="paint31_linear_276_18" x1="83.7851" y1="314.879" x2="37.6666" y2="10.7861" gradientUnits="userSpaceOnUse">
<stop stop-color="#94458C"/>
<stop offset="1" stop-color="#DD0E1D"/>
</linearGradient>
<linearGradient id="paint32_linear_276_18" x1="85.3" y1="314.644" x2="39.1814" y2="10.5587" gradientUnits="userSpaceOnUse">
<stop stop-color="#94458C"/>
<stop offset="1" stop-color="#DD0E1D"/>
</linearGradient>
<linearGradient id="paint33_linear_276_18" x1="82.3006" y1="315.098" x2="36.182" y2="11.0132" gradientUnits="userSpaceOnUse">
<stop stop-color="#94458C"/>
<stop offset="1" stop-color="#DD0E1D"/>
</linearGradient>
<linearGradient id="paint34_linear_276_18" x1="80.8085" y1="315.327" x2="34.6894" y2="11.2396" gradientUnits="userSpaceOnUse">
<stop stop-color="#94458C"/>
<stop offset="1" stop-color="#DD0E1D"/>
</linearGradient>
<linearGradient id="paint35_linear_276_18" x1="79.3694" y1="315.545" x2="33.2509" y2="11.4603" gradientUnits="userSpaceOnUse">
<stop stop-color="#94458C"/>
<stop offset="1" stop-color="#DD0E1D"/>
</linearGradient>
<linearGradient id="paint36_linear_276_18" x1="77.8773" y1="315.772" x2="31.7588" y2="11.6874" gradientUnits="userSpaceOnUse">
<stop stop-color="#94458C"/>
<stop offset="1" stop-color="#DD0E1D"/>
</linearGradient>
<linearGradient id="paint37_linear_276_18" x1="85.8377" y1="314.561" x2="39.7188" y2="10.4752" gradientUnits="userSpaceOnUse">
<stop stop-color="#94458C"/>
<stop offset="1" stop-color="#DD0E1D"/>
</linearGradient>
<linearGradient id="paint38_linear_276_18" x1="82.6868" y1="315.038" x2="36.568" y2="10.9524" gradientUnits="userSpaceOnUse">
<stop stop-color="#94458C"/>
<stop offset="1" stop-color="#DD0E1D"/>
</linearGradient>
<linearGradient id="paint39_linear_276_18" x1="79.8541" y1="315.47" x2="33.7354" y2="11.3843" gradientUnits="userSpaceOnUse">
<stop stop-color="#94458C"/>
<stop offset="1" stop-color="#DD0E1D"/>
</linearGradient>
<linearGradient id="paint40_linear_276_18" x1="78.6119" y1="315.659" x2="32.4931" y2="11.5734" gradientUnits="userSpaceOnUse">
<stop stop-color="#94458C"/>
<stop offset="1" stop-color="#DD0E1D"/>
</linearGradient>
<linearGradient id="paint41_linear_276_18" x1="81.4372" y1="315.228" x2="35.3258" y2="11.1415" gradientUnits="userSpaceOnUse">
<stop stop-color="#94458C"/>
<stop offset="1" stop-color="#DD0E1D"/>
</linearGradient>
<linearGradient id="paint42_linear_276_18" x1="84.4138" y1="314.781" x2="38.2949" y2="10.6947" gradientUnits="userSpaceOnUse">
<stop stop-color="#94458C"/>
<stop offset="1" stop-color="#DD0E1D"/>
</linearGradient>
<linearGradient id="paint43_linear_276_18" x1="76.9684" y1="315.909" x2="30.8495" y2="11.8232" gradientUnits="userSpaceOnUse">
<stop stop-color="#94458C"/>
<stop offset="1" stop-color="#DD0E1D"/>
</linearGradient>
<linearGradient id="paint44_linear_276_18" x1="87.8676" y1="314.258" x2="41.7489" y2="10.1721" gradientUnits="userSpaceOnUse">
<stop stop-color="#94458C"/>
<stop offset="1" stop-color="#DD0E1D"/>
</linearGradient>
<linearGradient id="paint45_linear_276_18" x1="74.8552" y1="316.227" x2="28.7364" y2="12.1413" gradientUnits="userSpaceOnUse">
<stop stop-color="#94458C"/>
<stop offset="1" stop-color="#DD0E1D"/>
</linearGradient>
<linearGradient id="paint46_linear_276_18" x1="99.2136" y1="312.539" x2="53.0947" y2="8.44518" gradientUnits="userSpaceOnUse">
<stop stop-color="#94458C"/>
<stop offset="1" stop-color="#DD0E1D"/>
</linearGradient>
<linearGradient id="paint47_linear_276_18" x1="97.7064" y1="312.766" x2="51.5875" y2="8.68003" gradientUnits="userSpaceOnUse">
<stop stop-color="#94458C"/>
<stop offset="1" stop-color="#DD0E1D"/>
</linearGradient>
<linearGradient id="paint48_linear_276_18" x1="96.2219" y1="312.993" x2="50.1029" y2="8.8996" gradientUnits="userSpaceOnUse">
<stop stop-color="#94458C"/>
<stop offset="1" stop-color="#DD0E1D"/>
</linearGradient>
<linearGradient id="paint49_linear_276_18" x1="94.7752" y1="313.206" x2="48.6561" y2="9.11926" gradientUnits="userSpaceOnUse">
<stop stop-color="#94458C"/>
<stop offset="1" stop-color="#DD0E1D"/>
</linearGradient>
<linearGradient id="paint50_linear_276_18" x1="93.2907" y1="313.434" x2="47.1714" y2="9.34625" gradientUnits="userSpaceOnUse">
<stop stop-color="#94458C"/>
<stop offset="1" stop-color="#DD0E1D"/>
</linearGradient>
<linearGradient id="paint51_linear_276_18" x1="98.1002" y1="312.705" x2="51.9814" y2="8.61943" gradientUnits="userSpaceOnUse">
<stop stop-color="#94458C"/>
<stop offset="1" stop-color="#DD0E1D"/>
</linearGradient>
<linearGradient id="paint52_linear_276_18" x1="95.2675" y1="313.137" x2="49.1486" y2="9.0436" gradientUnits="userSpaceOnUse">
<stop stop-color="#94458C"/>
<stop offset="1" stop-color="#DD0E1D"/>
</linearGradient>
<linearGradient id="paint53_linear_276_18" x1="94.0177" y1="313.327" x2="47.8989" y2="9.23306" gradientUnits="userSpaceOnUse">
<stop stop-color="#94458C"/>
<stop offset="1" stop-color="#DD0E1D"/>
</linearGradient>
<linearGradient id="paint54_linear_276_18" x1="96.8505" y1="312.895" x2="50.7316" y2="8.80884" gradientUnits="userSpaceOnUse">
<stop stop-color="#94458C"/>
<stop offset="1" stop-color="#DD0E1D"/>
</linearGradient>
<linearGradient id="paint55_linear_276_18" x1="92.3742" y1="313.569" x2="46.2553" y2="9.4829" gradientUnits="userSpaceOnUse">
<stop stop-color="#94458C"/>
<stop offset="1" stop-color="#DD0E1D"/>
</linearGradient>
<linearGradient id="paint56_linear_276_18" x1="101.789" y1="312.145" x2="55.6699" y2="8.05901" gradientUnits="userSpaceOnUse">
<stop stop-color="#94458C"/>
<stop offset="1" stop-color="#DD0E1D"/>
</linearGradient>
<linearGradient id="paint57_linear_276_18" x1="88.7841" y1="314.114" x2="42.6653" y2="10.0282" gradientUnits="userSpaceOnUse">
<stop stop-color="#94458C"/>
<stop offset="1" stop-color="#DD0E1D"/>
</linearGradient>
<linearGradient id="paint58_linear_276_18" x1="160.291" y1="303.275" x2="114.172" y2="-0.810384" gradientUnits="userSpaceOnUse">
<stop stop-color="#94458C"/>
<stop offset="1" stop-color="#DD0E1D"/>
</linearGradient>
<linearGradient id="paint59_linear_276_18" x1="156.512" y1="303.844" x2="110.393" y2="-0.242216" gradientUnits="userSpaceOnUse">
<stop stop-color="#94458C"/>
<stop offset="1" stop-color="#DD0E1D"/>
</linearGradient>
<linearGradient id="paint60_linear_276_18" x1="140.402" y1="306.29" x2="94.2829" y2="2.20418" gradientUnits="userSpaceOnUse">
<stop stop-color="#94458C"/>
<stop offset="1" stop-color="#DD0E1D"/>
</linearGradient>
<linearGradient id="paint61_linear_276_18" x1="124.254" y1="308.736" x2="78.1348" y2="4.65063" gradientUnits="userSpaceOnUse">
<stop stop-color="#94458C"/>
<stop offset="1" stop-color="#DD0E1D"/>
</linearGradient>
<linearGradient id="paint62_linear_276_18" x1="116.414" y1="309.926" x2="70.2956" y2="5.83979" gradientUnits="userSpaceOnUse">
<stop stop-color="#94458C"/>
<stop offset="1" stop-color="#DD0E1D"/>
</linearGradient>
<linearGradient id="paint63_linear_276_18" x1="132.676" y1="307.457" x2="86.5572" y2="3.37063" gradientUnits="userSpaceOnUse">
<stop stop-color="#94458C"/>
<stop offset="1" stop-color="#DD0E1D"/>
</linearGradient>
<linearGradient id="paint64_linear_276_18" x1="148.65" y1="305.04" x2="102.539" y2="0.946792" gradientUnits="userSpaceOnUse">
<stop stop-color="#94458C"/>
<stop offset="1" stop-color="#DD0E1D"/>
</linearGradient>
<linearGradient id="paint65_linear_276_18" x1="108.674" y1="311.1" x2="62.5549" y2="7.01383" gradientUnits="userSpaceOnUse">
<stop stop-color="#94458C"/>
<stop offset="1" stop-color="#DD0E1D"/>
</linearGradient>
<linearGradient id="paint66_linear_276_18" x1="132.646" y1="307.464" x2="86.527" y2="3.37815" gradientUnits="userSpaceOnUse">
<stop stop-color="#94458C"/>
<stop offset="1" stop-color="#DD0E1D"/>
</linearGradient>
<linearGradient id="paint67_linear_276_18" x1="133.668" y1="307.312" x2="87.5572" y2="3.21919" gradientUnits="userSpaceOnUse">
<stop stop-color="#94458C"/>
<stop offset="1" stop-color="#DD0E1D"/>
</linearGradient>
<linearGradient id="paint68_linear_276_18" x1="91.8818" y1="313.645" x2="45.7629" y2="9.55861" gradientUnits="userSpaceOnUse">
<stop stop-color="#94458C"/>
<stop offset="1" stop-color="#DD0E1D"/>
</linearGradient>
<linearGradient id="paint69_linear_276_18" x1="90.6018" y1="313.842" x2="44.4828" y2="9.7556" gradientUnits="userSpaceOnUse">
<stop stop-color="#94458C"/>
<stop offset="1" stop-color="#DD0E1D"/>
</linearGradient>
<linearGradient id="paint70_linear_276_18" x1="88.9582" y1="314.09" x2="42.8398" y2="10.0061" gradientUnits="userSpaceOnUse">
<stop stop-color="#94458C"/>
<stop offset="1" stop-color="#DD0E1D"/>
</linearGradient>
<linearGradient id="paint71_linear_276_18" x1="87.2616" y1="314.348" x2="41.1432" y2="10.2638" gradientUnits="userSpaceOnUse">
<stop stop-color="#94458C"/>
<stop offset="1" stop-color="#DD0E1D"/>
</linearGradient>
<linearGradient id="paint72_linear_276_18" x1="89.5111" y1="314.008" x2="43.3998" y2="9.91476" gradientUnits="userSpaceOnUse">
<stop stop-color="#94458C"/>
<stop offset="1" stop-color="#DD0E1D"/>
</linearGradient>
<linearGradient id="paint73_linear_276_18" x1="88.0948" y1="314.22" x2="41.9759" y2="10.1343" gradientUnits="userSpaceOnUse">
<stop stop-color="#94458C"/>
<stop offset="1" stop-color="#DD0E1D"/>
</linearGradient>
<linearGradient id="paint74_linear_276_18" x1="90.5715" y1="313.849" x2="44.4526" y2="9.75562" gradientUnits="userSpaceOnUse">
<stop stop-color="#94458C"/>
<stop offset="1" stop-color="#DD0E1D"/>
</linearGradient>
<linearGradient id="paint75_linear_276_18" x1="96.7671" y1="312.91" x2="50.6483" y2="8.81644" gradientUnits="userSpaceOnUse">
<stop stop-color="#94458C"/>
<stop offset="1" stop-color="#DD0E1D"/>
</linearGradient>
<linearGradient id="paint76_linear_276_18" x1="81.9598" y1="315.152" x2="35.841" y2="11.0659" gradientUnits="userSpaceOnUse">
<stop stop-color="#94458C"/>
<stop offset="1" stop-color="#DD0E1D"/>
</linearGradient>
<linearGradient id="paint77_linear_276_18" x1="54.8065" y1="71.227" x2="61.8127" y2="123.367" gradientUnits="userSpaceOnUse">
<stop stop-color="#94458C"/>
<stop offset="1" stop-color="#DD0E1D"/>
</linearGradient>
<linearGradient id="paint78_linear_276_18" x1="54.8747" y1="82.1641" x2="61.7142" y2="133.055" gradientUnits="userSpaceOnUse">
<stop stop-color="#94458C"/>
<stop offset="1" stop-color="#DD0E1D"/>
</linearGradient>
<linearGradient id="paint79_linear_276_18" x1="55.2458" y1="0.802925" x2="74.3552" y2="143.037" gradientUnits="userSpaceOnUse">
<stop stop-color="#94458C"/>
<stop offset="1" stop-color="#DD0E1D"/>
</linearGradient>
<linearGradient id="paint80_linear_276_18" x1="53.2765" y1="1.44673" x2="72.2799" y2="142.909" gradientUnits="userSpaceOnUse">
<stop stop-color="#94458C"/>
<stop offset="1" stop-color="#DD0E1D"/>
</linearGradient>
<linearGradient id="paint81_linear_276_18" x1="51.1482" y1="1.44673" x2="70.1516" y2="142.909" gradientUnits="userSpaceOnUse">
<stop stop-color="#94458C"/>
<stop offset="1" stop-color="#DD0E1D"/>
</linearGradient>
<linearGradient id="paint82_linear_276_18" x1="49.0199" y1="1.44673" x2="68.0233" y2="142.909" gradientUnits="userSpaceOnUse">
<stop stop-color="#94458C"/>
<stop offset="1" stop-color="#DD0E1D"/>
</linearGradient>
<linearGradient id="paint83_linear_276_18" x1="46.8918" y1="1.44672" x2="65.903" y2="142.909" gradientUnits="userSpaceOnUse">
<stop stop-color="#94458C"/>
<stop offset="1" stop-color="#DD0E1D"/>
</linearGradient>
<linearGradient id="paint84_linear_276_18" x1="44.6194" y1="1.44672" x2="63.6307" y2="142.909" gradientUnits="userSpaceOnUse">
<stop stop-color="#94458C"/>
<stop offset="1" stop-color="#DD0E1D"/>
</linearGradient>
<linearGradient id="paint85_linear_276_18" x1="42.491" y1="1.44672" x2="61.502" y2="142.909" gradientUnits="userSpaceOnUse">
<stop stop-color="#94458C"/>
<stop offset="1" stop-color="#DD0E1D"/>
</linearGradient>
<linearGradient id="paint86_linear_276_18" x1="40.0975" y1="1.44673" x2="59.101" y2="142.909" gradientUnits="userSpaceOnUse">
<stop stop-color="#94458C"/>
<stop offset="1" stop-color="#DD0E1D"/>
</linearGradient>
<linearGradient id="paint87_linear_276_18" x1="37.9692" y1="1.44673" x2="56.9727" y2="142.909" gradientUnits="userSpaceOnUse">
<stop stop-color="#94458C"/>
<stop offset="1" stop-color="#DD0E1D"/>
</linearGradient>
<linearGradient id="paint88_linear_276_18" x1="35.856" y1="1.44672" x2="54.867" y2="142.909" gradientUnits="userSpaceOnUse">
<stop stop-color="#94458C"/>
<stop offset="1" stop-color="#DD0E1D"/>
</linearGradient>
<linearGradient id="paint89_linear_276_18" x1="33.9852" y1="0.802926" x2="53.0947" y2="143.037" gradientUnits="userSpaceOnUse">
<stop stop-color="#94458C"/>
<stop offset="1" stop-color="#DD0E1D"/>
</linearGradient>
<linearGradient id="paint90_linear_276_18" x1="100.622" y1="312.319" x2="54.5112" y2="8.23313" gradientUnits="userSpaceOnUse">
<stop stop-color="#94458C"/>
<stop offset="1" stop-color="#DD0E1D"/>
</linearGradient>
<linearGradient id="paint91_linear_276_18" x1="101.259" y1="312.228" x2="55.1473" y2="8.13473" gradientUnits="userSpaceOnUse">
<stop stop-color="#94458C"/>
<stop offset="1" stop-color="#DD0E1D"/>
</linearGradient>
<linearGradient id="paint92_linear_276_18" x1="101.531" y1="312.183" x2="55.4125" y2="8.09693" gradientUnits="userSpaceOnUse">
<stop stop-color="#94458C"/>
<stop offset="1" stop-color="#DD0E1D"/>
</linearGradient>
<linearGradient id="paint93_linear_276_18" x1="98.5926" y1="312.629" x2="52.4737" y2="8.54358" gradientUnits="userSpaceOnUse">
<stop stop-color="#94458C"/>
<stop offset="1" stop-color="#DD0E1D"/>
</linearGradient>
<linearGradient id="paint94_linear_276_18" x1="99.3121" y1="312.524" x2="53.1933" y2="8.4302" gradientUnits="userSpaceOnUse">
<stop stop-color="#94458C"/>
<stop offset="1" stop-color="#DD0E1D"/>
</linearGradient>
<linearGradient id="paint95_linear_276_18" x1="101.198" y1="312.236" x2="55.0792" y2="8.1497" gradientUnits="userSpaceOnUse">
<stop stop-color="#94458C"/>
<stop offset="1" stop-color="#DD0E1D"/>
</linearGradient>
<linearGradient id="paint96_linear_276_18" x1="98.9182" y1="312.577" x2="52.7994" y2="8.49067" gradientUnits="userSpaceOnUse">
<stop stop-color="#94458C"/>
<stop offset="1" stop-color="#DD0E1D"/>
</linearGradient>
<linearGradient id="paint97_linear_276_18" x1="57.874" y1="30.7283" x2="62.2821" y2="40.4156" gradientUnits="userSpaceOnUse">
<stop stop-color="#FDB543"/>
<stop offset="0.5" stop-color="#ED7941"/>
<stop offset="0.8" stop-color="#E03D3B"/>
<stop offset="1" stop-color="#D91C4D"/>
</linearGradient>
<linearGradient id="paint98_linear_276_18" x1="62.1231" y1="40.1656" x2="96.2294" y2="115.074" gradientUnits="userSpaceOnUse">
<stop stop-color="#FDB543"/>
<stop offset="0.5" stop-color="#ED7941"/>
<stop offset="0.8" stop-color="#E03D3B"/>
<stop offset="1" stop-color="#D91C4D"/>
</linearGradient>
<linearGradient id="paint99_linear_276_18" x1="75.1506" y1="62.7517" x2="57.98" y2="63.3652" gradientUnits="userSpaceOnUse">
<stop stop-color="#FDB543"/>
<stop offset="0.5" stop-color="#ED7941"/>
<stop offset="0.8" stop-color="#E03D3B"/>
<stop offset="1" stop-color="#D91C4D"/>
</linearGradient>
<linearGradient id="paint100_linear_276_18" x1="42.5667" y1="33.7276" x2="90.0035" y2="88.7461" gradientUnits="userSpaceOnUse">
<stop stop-color="#94458C"/>
<stop offset="1" stop-color="#DD0E1D"/>
</linearGradient>
<linearGradient id="paint101_linear_276_18" x1="50.3983" y1="26.9714" x2="97.8427" y2="81.9898" gradientUnits="userSpaceOnUse">
<stop stop-color="#94458C"/>
<stop offset="1" stop-color="#DD0E1D"/>
</linearGradient>
<linearGradient id="paint102_linear_276_18" x1="59.1616" y1="116.778" x2="61.911" y2="137.243" gradientUnits="userSpaceOnUse">
<stop stop-color="#FDB543"/>
<stop offset="0.5" stop-color="#ED7941"/>
<stop offset="0.8" stop-color="#E03D3B"/>
<stop offset="1" stop-color="#D91C4D"/>
</linearGradient>
<linearGradient id="paint103_linear_276_18" x1="96.3354" y1="77.3926" x2="96.9338" y2="77.3926" gradientUnits="userSpaceOnUse">
<stop stop-color="#94458C"/>
<stop offset="1" stop-color="#DD0E1D"/>
</linearGradient>
<linearGradient id="paint104_linear_276_18" x1="99.8574" y1="77.2865" x2="100.524" y2="77.2865" gradientUnits="userSpaceOnUse">
<stop stop-color="#94458C"/>
<stop offset="1" stop-color="#DD0E1D"/>
</linearGradient>
<linearGradient id="paint105_linear_276_18" x1="104" y1="84.4062" x2="94.9342" y2="110.196" gradientUnits="userSpaceOnUse">
<stop stop-color="#94458C"/>
<stop offset="1" stop-color="#DD0E1D"/>
</linearGradient>
<linearGradient id="paint106_linear_276_18" x1="96.1915" y1="86.3376" x2="100.516" y2="86.3376" gradientUnits="userSpaceOnUse">
<stop stop-color="#823956"/>
<stop offset="1" stop-color="#420D33"/>
</linearGradient>
<linearGradient id="paint107_linear_276_18" x1="96.1386" y1="66.3873" x2="100.797" y2="66.3873" gradientUnits="userSpaceOnUse">
<stop stop-color="#823956"/>
<stop offset="1" stop-color="#420D33"/>
</linearGradient>
<linearGradient id="paint108_linear_276_18" x1="93.0103" y1="137.713" x2="92.6316" y2="231.397" gradientUnits="userSpaceOnUse">
<stop stop-color="#FDAC22"/>
<stop offset="1" stop-color="#D91B16"/>
</linearGradient>
<linearGradient id="paint109_linear_276_18" x1="92.7983" y1="227.186" x2="90.6245" y2="260.429" gradientUnits="userSpaceOnUse">
<stop stop-color="#FDAC22"/>
<stop offset="0.9" stop-color="#DD462E"/>
<stop offset="1" stop-color="#D91B16"/>
</linearGradient>
<linearGradient id="paint110_linear_276_18" x1="93.5178" y1="213.696" x2="91.344" y2="246.947" gradientUnits="userSpaceOnUse">
<stop stop-color="#FDAC22"/>
<stop offset="0.9" stop-color="#DD462E"/>
<stop offset="1" stop-color="#D91B16"/>
</linearGradient>
<linearGradient id="paint111_linear_276_18" x1="89.7989" y1="177.257" x2="93.1542" y2="248.356" gradientUnits="userSpaceOnUse">
<stop stop-color="#FDAC22"/>
<stop offset="0.9" stop-color="#DD462E"/>
<stop offset="1" stop-color="#D91B16"/>
</linearGradient>
<linearGradient id="paint112_linear_276_18" x1="92.5029" y1="217.847" x2="91.3365" y2="248.977" gradientUnits="userSpaceOnUse">
<stop stop-color="#FDAC22"/>
<stop offset="0.9" stop-color="#DD462E"/>
<stop offset="1" stop-color="#D91B16"/>
</linearGradient>
</defs>
</svg>
