<svg width="510" height="511" viewBox="0 0 510 511" fill="none" xmlns="http://www.w3.org/2000/svg">
<g clip-path="url(#clip0_276_1315)">
<path d="M432.661 324.013C393.8 414.851 291.209 453.878 210.818 447.224C188.865 445.41 144.711 441.753 110.234 409.146C44.0167 346.53 54.2167 215.635 117.602 138.571C125.768 128.646 182.267 62.1537 270.314 63.0473C334.785 63.6933 380.026 100.108 385.524 104.645C392.48 110.377 407.808 124 421.623 145.596C454.079 196.362 456.938 267.226 432.648 324L432.661 324.013Z" fill="url(#paint0_linear_276_1315)"/>
<path d="M334.799 232.406C331.981 231.842 329.122 233.121 327.624 235.581C326.579 237.3 325.479 238.977 324.311 240.64C296.955 279.35 243.205 288.602 204.495 261.246C197.086 256.009 190.748 249.795 185.552 242.922L146.072 259.679C155.048 273.811 166.829 286.155 180.988 296.011C208.619 315.257 242.587 322.817 275.771 317.112C309.45 311.325 338.855 292.767 358.567 264.862C362.402 259.445 365.77 253.795 368.685 247.953C370.692 243.925 368.327 239.073 363.915 238.207C354.484 236.337 344.614 234.371 334.785 232.419L334.799 232.406Z" fill="#EE6139"/>
<path d="M202.35 259.404L152.808 280.931C145.838 283.956 138.112 278.594 138.525 271.006L141.769 210.7C142.223 202.287 152.079 197.998 158.54 203.414L204.839 242.193C210.667 247.073 209.32 256.38 202.35 259.404Z" fill="#EE6139"/>
<path d="M175.765 156.593C178.596 157.555 181.703 156.552 183.476 154.146C193.566 140.482 207.78 129.663 225.046 123.821C252.347 114.597 281.119 119.944 302.893 135.629C313.849 125.539 324.558 115.669 334.222 106.761C325.837 99.8331 316.503 93.922 306.344 89.2069C276.431 75.3228 242.133 73.577 210.942 84.2994C183.023 93.8945 159.763 112.425 144.271 137.128C141.934 140.853 143.735 145.802 147.914 147.19C155.859 149.843 165.166 152.978 175.751 156.579L175.765 156.593Z" fill="#EE6139"/>
<path d="M286.095 125.704L327.349 90.829C333.15 85.9214 342.085 88.8357 343.886 96.2314L358.127 154.916C360.121 163.109 351.9 170.051 344.161 166.724L288.666 142.901C281.682 139.904 280.294 130.598 286.095 125.704Z" fill="#EE6139"/>
<path d="M280.527 271.79C280.431 270.607 279.222 269.576 277.173 268.752C279.4 267.528 280.637 266.209 280.527 264.916C280.211 261.012 267.826 258.813 252.869 260.023C237.913 261.232 226.036 265.37 226.352 269.288C226.448 270.47 227.658 271.501 229.706 272.326C227.479 273.549 226.242 274.869 226.352 276.161C226.448 277.343 227.658 278.374 229.706 279.199C227.479 280.423 226.242 281.742 226.352 283.034C226.448 284.217 227.658 285.248 229.706 286.072C227.479 287.296 226.242 288.616 226.352 289.908C226.489 291.64 228.991 293.028 233.033 293.936C232.978 295.214 233.005 296.616 233.129 298.156C233.72 305.359 241.817 311.009 252.539 311.009C263.262 311.009 272.541 303.311 272.637 296.08C272.664 294.307 272.582 292.753 272.431 291.365C277.558 289.647 280.679 287.557 280.514 285.536C280.417 284.354 279.208 283.323 277.16 282.498C279.386 281.275 280.624 279.955 280.514 278.663C280.417 277.481 279.208 276.45 277.16 275.625C279.386 274.402 280.624 273.082 280.514 271.79H280.527Z" fill="url(#paint1_linear_276_1315)"/>
<path d="M245.941 295.503C241.501 295.503 237.432 295.173 234.078 294.527C233.885 294.485 233.761 294.307 233.789 294.1C233.83 293.908 234.009 293.784 234.215 293.812C239.466 294.815 246.491 295.035 253.983 294.43C260.114 293.935 265.846 292.946 270.561 291.571C270.754 291.516 270.946 291.626 271.001 291.818C271.056 292.011 270.946 292.203 270.754 292.258C265.997 293.647 260.21 294.65 254.038 295.145C251.261 295.365 248.539 295.475 245.941 295.475V295.503Z" fill="url(#paint2_linear_276_1315)"/>
<path d="M246.023 288.615C240.25 288.615 235.095 288.079 231.452 287.035C231.26 286.98 231.15 286.787 231.205 286.595C231.26 286.402 231.452 286.292 231.644 286.347C236.827 287.818 245.171 288.286 253.969 287.571C262.671 286.87 270.795 285.096 275.689 282.842C275.867 282.759 276.087 282.842 276.17 283.021C276.252 283.199 276.17 283.419 275.991 283.502C271.029 285.797 262.822 287.585 254.038 288.286C251.302 288.506 248.594 288.615 246.023 288.615Z" fill="url(#paint3_linear_276_1315)"/>
<path d="M245.941 281.756C239.714 281.756 234.256 281.124 230.586 279.914C230.394 279.845 230.297 279.653 230.352 279.46C230.421 279.268 230.613 279.172 230.806 279.227C235.92 280.918 244.58 281.467 253.969 280.711C262.671 280.01 270.795 278.237 275.689 275.983C275.867 275.9 276.087 275.983 276.17 276.161C276.252 276.34 276.17 276.56 275.991 276.642C271.029 278.938 262.822 280.725 254.038 281.426C251.261 281.646 248.539 281.756 245.941 281.756Z" fill="url(#paint4_linear_276_1315)"/>
<path d="M245.996 274.869C241.047 274.869 236.552 274.47 233.06 273.687C232.868 273.645 232.744 273.453 232.785 273.261C232.827 273.068 233.019 272.944 233.212 272.986C238.463 274.154 246.037 274.457 253.983 273.81C262.602 273.109 270.685 271.364 275.579 269.137C275.757 269.054 275.977 269.137 276.06 269.315C276.142 269.494 276.06 269.714 275.881 269.796C270.905 272.065 262.739 273.824 254.038 274.525C251.288 274.745 248.58 274.855 245.996 274.855V274.869Z" fill="url(#paint5_linear_276_1315)"/>
<path d="M216.317 237.093C214.502 230.66 211.409 224.639 207.258 219.401C198.35 208.184 183.82 185.351 182.033 154.201C179.435 108.892 219.616 86.2102 256.292 89.2894C292.954 92.3687 329.149 119.669 325.177 161.83C322.743 187.77 308.227 207.442 297.408 218.741C290.549 225.917 285.655 234.701 283.002 244.269C279.758 255.981 272.032 270.58 253.694 271.46C229.954 272.614 220.097 250.482 216.317 237.093Z" fill="#EFB643"/>
<path d="M235.631 251.678C235.59 251.747 235.562 251.747 235.535 251.747C235.48 251.747 235.411 251.72 235.384 251.678C235.384 251.678 235.356 251.651 235.37 251.582L240.992 190.41C241.102 189.145 240.676 187.866 239.824 186.932C238.958 185.983 237.734 185.447 236.47 185.447H226.627C225.376 185.447 224.221 184.883 223.465 183.894C222.709 182.904 222.448 181.639 222.764 180.43L237.226 125.594C237.679 123.862 239.26 122.639 241.061 122.639H289.188C289.903 122.639 290.26 123.106 290.384 123.299C290.508 123.505 290.769 124.027 290.453 124.673L271.716 162.71C270.795 164.58 270.905 166.752 272.005 168.525C273.104 170.298 275.001 171.357 277.091 171.357H287.236C287.978 171.357 288.624 171.742 288.968 172.401C289.312 173.061 289.27 173.817 288.844 174.422" fill="url(#paint6_linear_276_1315)"/>
<path d="M137.81 337.141L139.556 253.452H144.67V339.189L137.81 337.141Z" fill="#D8201F"/>
<path d="M146.896 339.313C146.896 340.633 146.264 341.678 145.494 341.678H136.6C135.83 341.678 135.198 340.633 135.198 339.313C135.198 337.993 135.83 336.949 136.6 336.949H145.494C146.264 336.949 146.896 337.993 146.896 339.313Z" fill="url(#paint7_linear_276_1315)"/>
<path d="M167.475 211.497C166.499 206.672 150.333 234.578 144.958 241.437C139.583 248.297 143.776 250.455 143.776 250.455L144.477 251.115C146.594 251.527 148.766 250.689 149.811 248.833C154.773 239.994 168.259 215.428 167.461 211.497H167.475Z" fill="#D8201F"/>
<path d="M167.324 296.066C172.025 297.523 155.296 269.961 151.845 261.947C148.395 253.947 144.546 256.655 144.546 256.655L143.68 257.012C142.168 258.51 141.948 260.916 143.075 262.731C148.45 271.322 163.489 294.884 167.324 296.066Z" fill="#D8201F"/>
<path d="M93.8895 261.755C89.7517 259.074 121.63 254.222 129.988 251.733C138.332 249.245 138.497 253.933 138.497 253.933L138.539 254.826C138.539 256.957 136.889 258.675 134.772 258.964C124.737 260.353 97.2574 263.94 93.8757 261.768L93.8895 261.755Z" fill="#D8201F"/>
<path d="M147.116 255.514C146.14 258.098 143.254 259.418 140.655 258.442C138.071 257.466 136.751 254.579 137.727 251.981C138.703 249.383 141.59 248.077 144.188 249.053C146.786 250.029 148.092 252.916 147.116 255.514Z" fill="url(#paint8_linear_276_1315)"/>
<path d="M142.442 257.328C142.016 257.328 141.59 257.246 141.192 257.094C139.349 256.407 138.415 254.345 139.116 252.503C139.446 251.61 140.119 250.909 140.985 250.51C141.851 250.111 142.814 250.084 143.707 250.427C145.549 251.115 146.484 253.177 145.783 255.019C145.453 255.912 144.779 256.613 143.913 257.012C143.446 257.218 142.951 257.328 142.442 257.328ZM142.442 250.675C142.003 250.675 141.576 250.771 141.164 250.95C140.408 251.293 139.831 251.898 139.542 252.682C138.937 254.276 139.748 256.064 141.343 256.668C142.113 256.957 142.951 256.93 143.707 256.586C144.463 256.242 145.041 255.637 145.329 254.854C145.934 253.259 145.123 251.472 143.528 250.867C143.171 250.73 142.8 250.661 142.442 250.661V250.675Z" fill="url(#paint9_linear_276_1315)"/>
<path d="M97.546 394.973L99.2918 323.271H103.168V396.815L97.546 394.973Z" fill="#D8201F"/>
<path d="M105.574 396.856C105.574 397.984 105.038 398.74 104.378 398.74H96.7625C96.1026 398.74 95.5665 397.984 95.5665 396.856C95.5665 395.729 96.1026 394.973 96.7625 394.973H104.378C105.038 394.973 105.574 395.729 105.574 396.856Z" fill="url(#paint10_linear_276_1315)"/>
<path d="M123.184 287.516C122.345 283.392 108.502 307.27 103.911 313.14C99.3194 319.009 102.907 320.865 102.907 320.865L103.512 321.429C105.327 321.786 107.182 321.071 108.076 319.477C112.324 311.916 123.871 290.884 123.184 287.516Z" fill="#D8201F"/>
<path d="M123.06 359.906C127.088 361.143 112.764 337.554 109.808 330.708C106.852 323.862 103.567 326.171 103.567 326.171L102.825 326.474C101.533 327.766 101.34 329.814 102.302 331.368C106.907 338.722 119.774 358.888 123.06 359.906Z" fill="#D8201F"/>
<path d="M60.2102 330.543C56.6773 328.247 83.9644 324.096 91.0989 321.965C98.2471 319.834 98.3983 323.848 98.3983 323.848L98.4533 324.618C98.4533 326.446 97.0374 327.903 95.2229 328.165C86.6312 329.36 63.097 332.426 60.2102 330.556V330.543Z" fill="#D8201F"/>
<path d="M105.767 325.195C104.928 327.409 102.454 328.536 100.24 327.697C98.0272 326.859 96.9 324.384 97.7385 322.171C98.5771 319.958 101.051 318.831 103.265 319.669C105.478 320.508 106.605 322.982 105.767 325.195Z" fill="url(#paint11_linear_276_1315)"/>
<path d="M101.766 326.79C101.409 326.79 101.038 326.721 100.68 326.598C99.0858 325.993 98.2885 324.219 98.8796 322.625C99.4844 321.03 101.258 320.233 102.852 320.824C104.447 321.429 105.244 323.202 104.653 324.797C104.186 326.034 103.017 326.79 101.766 326.79ZM101.766 321.085C100.708 321.085 99.7181 321.731 99.3195 322.776C98.8108 324.123 99.4982 325.635 100.845 326.144C102.193 326.653 103.705 325.965 104.213 324.618C104.722 323.271 104.035 321.759 102.687 321.25C102.385 321.14 102.069 321.085 101.766 321.085Z" fill="url(#paint12_linear_276_1315)"/>
<path d="M311.512 337.059C311.512 336.289 311.182 335.547 310.633 335.011C310.083 334.474 309.354 334.186 308.598 334.213L247.398 336.22C245.845 336.275 244.621 337.609 244.663 339.203L247.687 443.142C247.728 444.722 249.006 445.973 250.532 445.96L310.908 445.767C311.664 445.767 311.98 445.039 312.502 444.489C313.025 443.939 313.313 443.183 313.299 442.413L311.512 337.059Z" fill="#C03E22"/>
<g opacity="0.4">
<path d="M255.151 346.214L255.055 343.616L274.96 342.695L275.043 345.307L255.151 346.214Z" fill="white"/>
<path d="M255.412 353.5L255.316 350.902L275.208 350.008L275.29 352.606L255.412 353.5Z" fill="white"/>
<path d="M255.674 360.772L255.591 358.174L275.455 357.294L275.537 359.892L255.674 360.772Z" fill="white"/>
<path d="M255.948 368.03L255.852 365.446L275.702 364.58L275.785 367.164L255.948 368.03Z" fill="white"/>
<path d="M256.21 375.275L256.113 372.69L275.95 371.838L276.032 374.436L256.21 375.275Z" fill="white"/>
<path d="M256.746 389.722L256.65 387.152L276.445 386.341L276.541 388.911L256.746 389.722Z" fill="white"/>
<path d="M257.543 411.291L257.447 408.734L277.187 407.978L277.27 410.535L257.543 411.291Z" fill="white"/>
<path d="M256.485 382.505L256.388 379.921L276.197 379.096L276.293 381.68L256.485 382.505Z" fill="white"/>
<path d="M257.007 396.926L256.911 394.355L276.692 393.558L276.775 396.128L257.007 396.926Z" fill="white"/>
<path d="M257.268 404.115L257.172 401.558L276.94 400.774L277.022 403.345L257.268 404.115Z" fill="white"/>
<path d="M257.804 418.453L257.708 415.909L277.434 415.153L277.517 417.71L257.804 418.453Z" fill="white"/>
<path d="M258.065 425.615L257.969 423.058L277.682 422.329L277.764 424.886L258.065 425.615Z" fill="white"/>
<path d="M258.327 432.749L258.23 430.206L277.916 429.491L278.012 432.034L258.327 432.749Z" fill="white"/>
<path d="M258.588 439.87L258.492 437.327L278.163 436.639L278.259 439.183L258.588 439.87Z" fill="white"/>
<path d="M281.105 345.032L281.022 342.42L301.037 341.499L301.12 344.111L281.105 345.032Z" fill="white"/>
<path d="M281.352 352.331L281.27 349.733L301.257 348.826L301.34 351.438L281.352 352.331Z" fill="white"/>
<path d="M281.6 359.631L281.503 357.033L301.491 356.139L301.573 358.751L281.6 359.631Z" fill="white"/>
<path d="M281.833 366.903L281.751 364.318L301.711 363.452L301.793 366.05L281.833 366.903Z" fill="white"/>
<path d="M282.081 374.175L281.998 371.59L301.945 370.738L302.013 373.336L282.081 374.175Z" fill="white"/>
<path d="M282.562 388.664L282.479 386.093L302.385 385.268L302.467 387.853L282.562 388.664Z" fill="white"/>
<path d="M283.291 410.301L283.208 407.744L303.058 406.974L303.141 409.545L283.291 410.301Z" fill="white"/>
<path d="M282.328 381.433L282.232 378.849L302.165 378.01L302.247 380.594L282.328 381.433Z" fill="white"/>
<path d="M282.809 395.894L282.727 393.324L302.618 392.513L302.687 395.097L282.809 395.894Z" fill="white"/>
<path d="M283.043 403.112L282.961 400.541L302.838 399.757L302.921 402.328L283.043 403.112Z" fill="white"/>
<path d="M283.524 417.49L283.442 414.934L303.278 414.177L303.361 416.748L283.524 417.49Z" fill="white"/>
<path d="M283.772 424.666L283.689 422.109L303.498 421.367L303.581 423.938L283.772 424.666Z" fill="white"/>
<path d="M284.005 431.814L283.923 429.271L303.718 428.556L303.8 431.113L284.005 431.814Z" fill="white"/>
<path d="M284.239 438.963L284.157 436.42L303.952 435.719L304.02 438.262L284.239 438.963Z" fill="white"/>
</g>
<path d="M439.177 309.937C439.164 309.002 438.408 308.26 437.473 308.26H381.167C380.232 308.26 379.228 309.029 379.228 309.964V441.382C379.228 442.083 379.627 442.757 380.122 443.251C380.617 443.746 381.359 444.021 382.06 444.021L438.985 443.87C439.7 443.87 440.387 443.581 440.882 443.073C441.377 442.564 441.652 441.877 441.638 441.176L439.177 309.923V309.937Z" fill="#C03E22"/>
<path d="M406.845 317.58L388.425 317.511V315.202L406.831 315.27L406.845 317.58Z" fill="white"/>
<path d="M406.886 326.061L388.397 325.979V323.656L406.873 323.738L406.886 326.061Z" fill="white"/>
<path d="M406.941 334.626L388.37 334.516L388.384 332.179L406.928 332.275L406.941 334.626Z" fill="white"/>
<path d="M406.996 343.259L388.342 343.121L388.356 340.771L406.983 340.88L406.996 343.259Z" fill="white"/>
<path d="M407.051 351.96L388.315 351.809L388.328 349.431L407.038 349.568L407.051 351.96Z" fill="white"/>
<path d="M407.148 369.583L388.273 369.391V366.971L407.134 367.15L407.148 369.583Z" fill="white"/>
<path d="M407.313 396.582L388.191 396.32V393.832L407.299 394.093L407.313 396.582Z" fill="white"/>
<path d="M407.093 360.731L388.287 360.566L388.301 358.16L407.079 358.325L407.093 360.731Z" fill="white"/>
<path d="M407.203 378.505L388.246 378.285V375.852L407.189 376.058L407.203 378.505Z" fill="white"/>
<path d="M407.258 387.509L388.219 387.261V384.801L407.244 385.034L407.258 387.509Z" fill="white"/>
<path d="M407.368 405.737L388.164 405.448V402.946L407.354 403.221L407.368 405.737Z" fill="white"/>
<path d="M407.423 414.961L388.136 414.659V412.129L407.409 412.432L407.423 414.961Z" fill="white"/>
<path d="M407.478 424.281L388.109 423.937V421.394L407.464 421.724L407.478 424.281Z" fill="white"/>
<path d="M407.533 433.67L388.081 433.313V430.742L407.519 431.1L407.533 433.67Z" fill="white"/>
<path d="M430.998 317.662L412.454 317.594L412.44 315.284L430.957 315.339L430.998 317.662Z" fill="white"/>
<path d="M431.149 326.171L412.536 326.089L412.509 323.752L431.108 323.834L431.149 326.171Z" fill="white"/>
<path d="M431.3 334.763L412.605 334.653L412.591 332.302L431.259 332.399L431.3 334.763Z" fill="white"/>
<path d="M431.452 343.424L412.674 343.3L412.66 340.922L431.41 341.045L431.452 343.424Z" fill="white"/>
<path d="M431.603 352.153L412.756 352.001L412.729 349.609L431.562 349.761L431.603 352.153Z" fill="white"/>
<path d="M431.919 369.831L412.907 369.638L412.894 367.205L431.878 367.398L431.919 369.831Z" fill="white"/>
<path d="M432.4 396.925L413.141 396.664L413.127 394.162L432.345 394.424L432.4 396.925Z" fill="white"/>
<path d="M431.754 360.951L412.839 360.786L412.811 358.38L431.713 358.545L431.754 360.951Z" fill="white"/>
<path d="M432.07 378.794L412.99 378.574L412.962 376.127L432.029 376.333L432.07 378.794Z" fill="white"/>
<path d="M432.235 387.811L413.059 387.578L413.045 385.103L432.194 385.337L432.235 387.811Z" fill="white"/>
<path d="M432.551 406.108L413.224 405.819L413.196 403.304L432.51 403.592L432.551 406.108Z" fill="white"/>
<path d="M432.716 415.373L413.306 415.057L413.279 412.528L432.675 412.83L432.716 415.373Z" fill="white"/>
<path d="M432.881 424.721L413.389 424.377L413.361 421.821L432.84 422.15L432.881 424.721Z" fill="white"/>
<path d="M433.046 434.138L413.471 433.78L413.444 431.196L433.005 431.553L433.046 434.138Z" fill="white"/>
<path d="M378.019 290.403C378.019 289.44 377.606 288.533 376.905 287.873C376.204 287.213 375.283 286.87 374.321 286.897L301.615 289.812C300.364 289.867 299.388 290.898 299.415 292.149L302.989 442.908C303.044 445.492 305.175 447.54 307.76 447.513L376.616 446.674C377.565 446.674 378.458 446.276 379.118 445.602C379.778 444.929 380.136 444.021 380.122 443.073L378.005 290.389L378.019 290.403Z" fill="#BF0402"/>
<g opacity="0.5">
<path d="M319.266 314.679L308.529 314.707L307.993 299.214H318.798L319.266 314.679Z" fill="white"/>
<path d="M336.009 314.638L325.795 314.666L325.369 299.214H335.652L336.009 314.638Z" fill="white"/>
<path d="M353.123 314.597L342.497 314.624L342.181 299.214H352.876L353.123 314.597Z" fill="white"/>
<path d="M370.142 314.556L359.571 314.583L359.364 299.214H370.004L370.142 314.556Z" fill="white"/>
<path d="M320.022 339.877L309.395 339.946L308.873 324.769L319.568 324.728L320.022 339.877Z" fill="white"/>
<path d="M336.6 339.781L326.482 339.836L326.07 324.701L336.243 324.659L336.6 339.781Z" fill="white"/>
<path d="M353.536 339.671L343.02 339.74L342.703 324.632L353.288 324.591L353.536 339.671Z" fill="white"/>
<path d="M370.376 339.561L359.914 339.63L359.708 324.563L370.238 324.522L370.376 339.561Z" fill="white"/>
<path d="M320.778 364.566L310.248 364.676L309.739 349.816L320.324 349.719L320.778 364.566Z" fill="white"/>
<path d="M337.164 364.401L327.156 364.497L326.757 349.678L336.82 349.596L337.164 364.401Z" fill="white"/>
<path d="M353.935 364.222L343.515 364.332L343.212 349.541L353.687 349.458L353.935 364.222Z" fill="white"/>
<path d="M370.595 364.043L360.244 364.153L360.052 349.403L370.458 349.321L370.595 364.043Z" fill="white"/>
<path d="M321.492 388.76L311.086 388.911L310.578 374.34L321.066 374.216L321.492 388.76Z" fill="white"/>
<path d="M337.727 388.526L327.816 388.664L327.417 374.133L337.397 374.01L337.727 388.526Z" fill="white"/>
<path d="M354.319 388.293L344.009 388.43L343.721 373.941L354.086 373.817L354.319 388.293Z" fill="white"/>
<path d="M370.829 388.045L360.574 388.196L360.382 373.735L370.692 373.611L370.829 388.045Z" fill="white"/>
<path d="M322.207 412.459L311.911 412.652L311.416 398.369L321.781 398.204L322.207 412.459Z" fill="white"/>
<path d="M338.277 412.171L328.476 412.349L328.077 398.108L337.947 397.957L338.277 412.171Z" fill="white"/>
<path d="M354.704 411.868L344.504 412.061L344.216 397.847L354.471 397.695L354.704 411.868Z" fill="white"/>
<path d="M371.035 411.579L360.89 411.758L360.698 397.585L370.912 397.434L371.035 411.579Z" fill="white"/>
<path d="M322.908 435.691L312.708 435.911L312.227 421.917L322.496 421.724L322.908 435.691Z" fill="white"/>
<path d="M338.813 435.347L329.108 435.553L328.723 421.6L338.497 421.408L338.813 435.347Z" fill="white"/>
<path d="M355.075 434.99L344.985 435.21L344.697 421.284L354.856 421.092L355.075 434.99Z" fill="white"/>
<path d="M371.255 434.632L361.207 434.852L361.014 420.968L371.132 420.762L371.255 434.632Z" fill="white"/>
</g>
<path d="M447.742 341.004C445.061 338.653 440.786 336.014 434.614 335.258L432.524 336.536C432.524 336.536 433.857 338.502 436.291 340.578C438.531 341.87 441.982 343.63 444.841 344.014C447.618 344.386 448.03 342.708 447.755 341.004H447.742Z" fill="url(#paint13_linear_276_1315)"/>
<path d="M449.762 343.011C449.24 342.406 448.553 341.719 447.742 341.004C448.03 342.695 447.618 344.386 444.827 344.015C441.968 343.63 438.518 341.87 436.277 340.578C439.081 342.97 443.343 345.499 448.718 345.348C449.914 345.32 450.546 343.905 449.749 343.011H449.762Z" fill="#ABC3FD"/>
<path d="M420.001 302.761C420.001 302.761 416.963 302.926 416.592 309.167C416.592 309.167 423.63 315.476 433.143 316.975C433.857 317.085 432.139 312.109 431.892 311.421C430.668 308.204 426.805 306.142 420.015 302.747L420.001 302.761Z" fill="url(#paint14_linear_276_1315)"/>
<path d="M431.878 311.421C430.228 311.957 429.5 314.294 425.307 312.755C421.252 311.256 418.228 309.318 416.674 308.205C416.633 308.507 416.605 308.823 416.592 309.153C416.592 309.153 424.015 316.205 433.514 317.717C434.229 317.827 434.792 317.112 434.531 316.439C434.064 315.229 433.239 313.387 431.878 311.421Z" fill="#ABC3FD"/>
<path d="M385.813 295.42H392.219C392.219 295.42 411.877 273.714 424.771 271.515C424.771 271.515 433.747 282.966 424.29 304.383C423.534 306.101 421.403 306.871 419.822 305.854C419.341 305.551 419.011 305.139 418.805 304.63L419.561 286.347C419.561 286.347 402.79 301.015 399.876 303.847C396.961 306.679 382.143 304.946 385.813 295.406V295.42Z" fill="#022E9E"/>
<path d="M436.208 336.151C433.101 314.542 415.973 300.369 415.973 300.369L385.978 300.039L381.936 301.675L380.603 300.603L373.097 305.263C373.097 305.263 382.803 315.779 393.236 310.775C397.36 309.565 409.705 307.215 416.523 319.298C423.273 331.258 433.638 338.021 433.638 338.021C436.731 337.746 436.222 336.165 436.222 336.165L436.208 336.151Z" fill="#0030C9"/>
<path d="M386.762 275.886C386.762 275.886 389.992 292.066 405.814 298.472L411.437 297.812L412.77 299.929L399.573 300.355C399.573 300.355 388.287 295.888 382.308 283.708C382.115 283.309 378.816 276.505 386.762 275.9V275.886Z" fill="url(#paint15_linear_276_1315)"/>
<path d="M388.494 299.792C388.494 299.792 384.823 289.811 384.026 280.106C384.026 280.106 386.707 277.797 388.397 276.807C388.947 276.491 389.14 275.804 388.865 275.226C387.628 272.669 380.163 262.634 379.6 262.483C376.562 261.727 364.093 255.802 355.309 267.803C351.543 272.958 355.79 289.289 372.877 305.73L374.953 307.325L388.466 299.778L388.494 299.792Z" fill="#CC0000"/>
<path d="M374.335 282.292C374.335 282.292 384.535 294.375 397.58 296.135C397.58 296.135 400.948 293.056 403.464 294.155C405.966 295.255 409.402 300.094 409.402 300.094H392.659C392.659 300.094 376.823 299.53 368.918 289.935C369.551 286.581 371.461 284.574 374.348 282.292H374.335Z" fill="url(#paint16_linear_276_1315)"/>
<path d="M368.396 254.015L366.169 261.466C366.073 261.809 366.197 262.181 366.485 262.373C367.557 263.115 370.362 264.573 374.225 263.157C374.664 262.992 374.967 262.579 375.008 262.112L375.53 255.624L368.396 254.015Z" fill="url(#paint17_linear_276_1315)"/>
<path d="M408.564 301.042L416.083 275.969C416.386 274.951 417.293 274.223 418.365 274.14L428.524 273.439C429.555 273.37 430.325 274.374 429.981 275.35L421.582 299.297C421.307 300.066 420.619 300.616 419.808 300.699L409.815 301.812L408.591 301.029L408.564 301.042Z" fill="#CC0000"/>
<path d="M409.787 301.812C409.773 301.812 409.76 301.812 409.732 301.812L388.425 300.74C387.902 300.712 387.49 300.259 387.518 299.736C387.545 299.214 387.999 298.802 388.521 298.829L409.828 299.901C410.351 299.929 410.763 300.383 410.736 300.905C410.708 301.414 410.282 301.812 409.787 301.812Z" fill="#CC0000"/>
<path d="M384.026 280.299C383.916 280.299 383.833 280.216 383.833 280.106C383.847 275.653 382.129 269.755 382.115 269.7C382.088 269.604 382.143 269.494 382.239 269.467C382.335 269.439 382.445 269.494 382.473 269.59C382.486 269.645 384.218 275.611 384.205 280.106C384.205 280.216 384.122 280.299 384.012 280.299H384.026Z" fill="url(#paint18_linear_276_1315)"/>
<path d="M374.335 282.484C374.28 282.484 374.225 282.457 374.183 282.416C374.142 282.361 369.482 276.436 367.874 272.367C367.832 272.271 367.874 272.161 367.984 272.119C368.08 272.078 368.19 272.119 368.231 272.229C369.812 276.243 374.444 282.127 374.486 282.182C374.554 282.264 374.541 282.388 374.458 282.457C374.417 282.484 374.376 282.498 374.335 282.498V282.484Z" fill="url(#paint19_linear_276_1315)"/>
<path d="M367.791 291.544L367.654 291.489C360.904 288.602 356.739 280.546 356.698 280.464C356.656 280.368 356.698 280.258 356.78 280.203C356.876 280.148 356.986 280.203 357.041 280.285C357.083 280.368 361.124 288.189 367.668 291.076L368.355 290.114C368.41 290.031 368.534 290.004 368.616 290.073C368.699 290.128 368.726 290.251 368.657 290.334L367.791 291.557V291.544Z" fill="url(#paint20_linear_276_1315)"/>
<path d="M382.72 243.252C382.72 243.252 381.95 251.5 380.218 255.088C378.486 258.675 377.991 261.356 373.579 259.844C369.152 258.318 366.87 254.441 366.939 249.946C366.939 249.946 367.008 243.004 368.863 241.162C370.719 239.32 382.72 243.238 382.72 243.238V243.252Z" fill="url(#paint21_linear_276_1315)"/>
<path d="M369.688 248.214L369.977 248.242C370.334 248.269 370.65 247.994 370.664 247.637C370.705 246.221 370.98 243.1 372.74 243.293C375.008 243.554 383.146 246.097 386.143 244.365C389.03 242.702 389.47 238.743 387.944 236.722C387.847 236.585 387.655 236.543 387.518 236.64L387.174 236.859C386.94 237.011 386.638 236.804 386.693 236.53C386.748 236.268 386.473 236.048 386.239 236.186C385.332 236.694 383.325 237.231 379.462 235.952C373.977 234.124 369.578 234.33 367.599 237.725C367.475 237.945 367.173 237.932 367.049 237.725C366.801 237.299 366.279 236.873 365.124 237.093C363.131 237.492 362.045 240.777 363.681 244.887C363.763 245.08 363.64 245.3 363.42 245.314C362.677 245.369 361.413 245.767 362.884 248.035C364.409 250.386 366.087 251.183 366.774 251.431C366.939 251.486 367.131 251.39 367.173 251.225L368.176 247.829C368.231 247.637 368.451 247.541 368.63 247.637L369.674 248.214H369.688Z" fill="url(#paint22_linear_276_1315)"/>
<path d="M369.468 248.915C369.468 248.915 370.705 244.063 368.149 244.2C365.592 244.338 366.513 249.506 367.956 250.51L369.468 248.915Z" fill="url(#paint23_linear_276_1315)"/>
<path d="M170.706 444.461H189.676L185.69 345.609H174.197L170.706 444.461Z" fill="url(#paint24_linear_276_1315)"/>
<path d="M166.719 446.014C166.719 446.152 166.898 446.276 167.063 446.276L192.48 446.454C193.044 446.454 193.676 446.001 193.676 445.437V444.172C193.676 443.898 193.415 443.623 193.209 443.43C193.003 443.238 192.659 443.128 192.37 443.128L167.077 443.554C166.912 443.554 166.719 443.664 166.719 443.801V446.001V446.014Z" fill="url(#paint25_linear_276_1315)"/>
<path d="M123.28 311.875L219.63 313.071C220.166 313.071 220.798 313.483 221.059 313.978L247.329 365.789C247.59 366.298 247.357 366.71 246.821 366.71L150.608 367.288C150.044 367.288 149.371 366.875 149.11 366.353L122.702 312.796C122.455 312.287 122.702 311.875 123.28 311.875Z" fill="url(#paint26_linear_276_1315)"/>
<path d="M148.436 366.683L122.029 313.126C121.795 312.645 121.795 312.136 122.043 311.737C122.29 311.339 122.757 311.133 123.28 311.133L219.63 312.329C220.441 312.329 221.334 312.906 221.706 313.648L247.975 365.459C248.223 365.94 248.223 366.449 247.975 366.848C247.742 367.233 247.316 367.453 246.807 367.453L150.594 368.03C149.742 368.03 148.821 367.453 148.436 366.669V366.683ZM220.386 314.322C220.262 314.074 219.877 313.827 219.616 313.827L123.445 312.631L149.77 366.023C149.893 366.284 150.306 366.545 150.581 366.545L246.546 365.968L220.358 314.322H220.386Z" fill="url(#paint27_linear_276_1315)"/>
<path d="M192.137 316.343L218.352 316.631C218.888 316.631 219.52 317.044 219.781 317.539L225.816 329.457C226.063 329.952 225.843 330.364 225.307 330.35L199.106 330.185C198.556 330.185 197.91 329.773 197.663 329.264L191.614 317.236C191.367 316.728 191.601 316.329 192.15 316.343H192.137Z" fill="url(#paint28_linear_276_1315)"/>
<path d="M160.616 315.985L187.394 316.288C187.944 316.288 188.59 316.7 188.837 317.209L194.886 329.251C195.133 329.759 194.9 330.158 194.35 330.158L167.585 329.979C167.022 329.979 166.375 329.553 166.114 329.044L160.052 316.892C159.805 316.384 160.052 315.971 160.602 315.985H160.616Z" fill="url(#paint29_linear_276_1315)"/>
<path d="M128.407 315.628L155.763 315.93C156.327 315.93 156.973 316.356 157.234 316.865L163.296 329.031C163.544 329.539 163.296 329.952 162.746 329.952L135.404 329.773C134.841 329.773 134.167 329.347 133.92 328.838L127.857 316.549C127.61 316.04 127.857 315.628 128.435 315.628H128.407Z" fill="url(#paint30_linear_276_1315)"/>
<path d="M200.385 332.742L226.586 332.893C227.122 332.893 227.754 333.306 228.015 333.801L234.078 345.774C234.325 346.269 234.105 346.681 233.569 346.681L207.368 346.654C206.818 346.654 206.172 346.241 205.924 345.733L199.848 333.649C199.601 333.141 199.835 332.742 200.371 332.742H200.385Z" fill="url(#paint31_linear_276_1315)"/>
<path d="M168.877 332.564L195.642 332.715C196.192 332.715 196.838 333.127 197.085 333.636L203.161 345.733C203.423 346.241 203.175 346.654 202.639 346.654L175.888 346.626C175.338 346.626 174.678 346.214 174.417 345.692L168.327 333.471C168.08 332.962 168.327 332.55 168.877 332.55V332.564Z" fill="url(#paint32_linear_276_1315)"/>
<path d="M136.683 332.385L164.025 332.536C164.588 332.536 165.248 332.962 165.496 333.471L171.585 345.692C171.847 346.2 171.585 346.613 171.036 346.613L143.693 346.585C143.13 346.585 142.456 346.159 142.195 345.65L136.105 333.306C135.844 332.784 136.105 332.371 136.669 332.385H136.683Z" fill="url(#paint33_linear_276_1315)"/>
<path d="M208.674 349.224H234.861C235.397 349.224 236.03 349.637 236.291 350.132L242.381 362.16C242.642 362.669 242.408 363.081 241.872 363.081L215.685 363.205C215.135 363.205 214.489 362.792 214.241 362.284L208.138 350.145C207.877 349.637 208.124 349.224 208.66 349.224H208.674Z" fill="url(#paint34_linear_276_1315)"/>
<path d="M177.18 349.224H203.931C204.481 349.224 205.127 349.637 205.388 350.145L211.492 362.297C211.753 362.806 211.519 363.219 210.969 363.219L184.219 363.342C183.669 363.342 183.009 362.93 182.748 362.421L176.63 350.145C176.369 349.637 176.63 349.211 177.18 349.211V349.224Z" fill="url(#paint35_linear_276_1315)"/>
<path d="M144.999 349.211H172.341C172.905 349.211 173.565 349.623 173.812 350.145L180.397 363.356L152.065 363.493C151.502 363.493 150.828 363.081 150.567 362.559L144.45 350.159C144.188 349.637 144.45 349.224 145.013 349.224L144.999 349.211Z" fill="url(#paint36_linear_276_1315)"/>
<path d="M151.227 365.432C150.567 365.432 149.934 364.786 149.632 364.181L139.899 344.441C139.844 344.317 139.899 344.179 140.009 344.124C140.133 344.069 140.271 344.124 140.326 344.234L150.058 363.975C150.292 364.456 150.787 364.964 151.227 364.964L169.853 364.868C169.977 364.868 170.087 364.978 170.087 365.102C170.087 365.225 169.977 365.335 169.853 365.335L151.227 365.432Z" fill="#FED1E3"/>
<path d="M228.18 331.684C228.098 331.684 228.015 331.643 227.974 331.56L219.657 315.147C219.465 314.762 218.833 314.542 218.338 314.542L197.855 314.294C197.732 314.294 197.622 314.184 197.622 314.061C197.622 313.937 197.732 313.827 197.855 313.827L218.338 314.074C218.97 314.074 219.781 314.349 220.07 314.94L228.387 331.354C228.442 331.464 228.387 331.615 228.277 331.67C228.249 331.684 228.208 331.698 228.167 331.698L228.18 331.684Z" fill="#FED1E3"/>
<path d="M214.324 444.379H229.514L226.311 414.796H217.114L214.324 444.379Z" fill="url(#paint37_linear_276_1315)"/>
<path d="M211.121 445.63C211.121 445.74 211.258 445.836 211.396 445.836L231.755 445.987C232.208 445.987 232.717 445.63 232.717 445.176V444.173C232.717 443.953 232.497 443.733 232.346 443.581C232.181 443.416 231.906 443.334 231.672 443.334L211.423 443.678C211.3 443.678 211.135 443.774 211.135 443.884V445.643L211.121 445.63Z" fill="url(#paint38_linear_276_1315)"/>
<path d="M176.342 384.004L253.502 384.966C253.928 384.966 254.436 385.296 254.643 385.695L275.675 427.182C275.881 427.58 275.702 427.91 275.276 427.924L198.226 428.392C197.773 428.392 197.237 428.062 197.03 427.635L175.874 384.746C175.668 384.334 175.874 384.004 176.328 384.017L176.342 384.004Z" fill="url(#paint39_linear_276_1315)"/>
<path d="M196.494 427.897L175.338 385.007C175.146 384.622 175.146 384.21 175.352 383.894C175.558 383.577 175.929 383.412 176.342 383.399L253.502 384.361C254.148 384.361 254.863 384.828 255.165 385.419L276.197 426.907C276.39 427.292 276.39 427.704 276.197 428.02C276.005 428.323 275.661 428.501 275.263 428.515L198.213 428.983C197.525 428.983 196.783 428.515 196.481 427.897H196.494ZM254.107 385.969C254.01 385.777 253.694 385.571 253.488 385.571L176.479 384.622L197.567 427.374C197.677 427.58 197.993 427.787 198.226 427.787L275.07 427.319L254.107 385.969Z" fill="url(#paint40_linear_276_1315)"/>
<path d="M231.48 387.578L252.471 387.811C252.897 387.811 253.406 388.141 253.612 388.54L258.451 398.08C258.657 398.479 258.464 398.809 258.038 398.795L237.047 398.657C236.607 398.657 236.099 398.328 235.892 397.915L231.054 388.279C230.847 387.88 231.054 387.55 231.48 387.564V387.578Z" fill="url(#paint41_linear_276_1315)"/>
<path d="M206.241 387.303L227.686 387.536C228.125 387.536 228.648 387.866 228.84 388.279L233.679 397.915C233.885 398.314 233.679 398.644 233.253 398.644L211.822 398.506C211.382 398.506 210.846 398.176 210.64 397.764L205.787 388.031C205.581 387.619 205.787 387.303 206.227 387.303H206.241Z" fill="url(#paint42_linear_276_1315)"/>
<path d="M180.452 387.014L202.364 387.262C202.818 387.262 203.34 387.605 203.546 388.004L208.399 397.75C208.605 398.163 208.399 398.493 207.959 398.479L186.061 398.341C185.607 398.341 185.071 397.998 184.865 397.585L180.012 387.743C179.806 387.33 180.012 387 180.466 387.014H180.452Z" fill="url(#paint43_linear_276_1315)"/>
<path d="M238.078 400.719L259.069 400.843C259.495 400.843 260.004 401.173 260.21 401.572L265.063 411.153C265.269 411.552 265.09 411.882 264.65 411.882H243.673C243.233 411.868 242.724 411.538 242.518 411.126L237.652 401.448C237.446 401.049 237.652 400.719 238.078 400.719Z" fill="url(#paint44_linear_276_1315)"/>
<path d="M212.853 400.582L234.284 400.706C234.724 400.706 235.246 401.036 235.439 401.448L240.305 411.139C240.511 411.552 240.319 411.868 239.879 411.868H218.448C218.008 411.854 217.472 411.511 217.266 411.112L212.399 401.338C212.193 400.926 212.399 400.596 212.839 400.61L212.853 400.582Z" fill="url(#paint45_linear_276_1315)"/>
<path d="M187.078 400.431L208.976 400.555C209.43 400.555 209.952 400.885 210.159 401.297L215.025 411.085C215.231 411.497 215.025 411.827 214.585 411.827H192.7C192.247 411.813 191.711 411.469 191.504 411.057L186.624 401.173C186.418 400.761 186.624 400.431 187.078 400.431Z" fill="url(#paint46_linear_276_1315)"/>
<path d="M244.718 413.916H265.695C266.121 413.916 266.63 414.246 266.836 414.645L271.716 424.267C271.922 424.666 271.744 424.996 271.317 424.996L250.354 425.092C249.914 425.092 249.391 424.762 249.199 424.364L244.305 414.645C244.099 414.232 244.291 413.916 244.731 413.916H244.718Z" fill="url(#paint47_linear_276_1315)"/>
<path d="M219.493 413.916H240.924C241.363 413.916 241.886 414.246 242.078 414.659L246.972 424.391C247.178 424.804 246.986 425.134 246.546 425.134L225.129 425.23C224.689 425.23 224.153 424.9 223.946 424.487L219.053 414.659C218.846 414.246 219.053 413.916 219.493 413.916Z" fill="url(#paint48_linear_276_1315)"/>
<path d="M193.731 413.916H215.616C216.07 413.916 216.592 414.246 216.798 414.659L222.063 425.244L199.367 425.354C198.914 425.354 198.378 425.024 198.171 424.597L193.264 414.659C193.058 414.246 193.264 413.903 193.718 413.903L193.731 413.916Z" fill="url(#paint49_linear_276_1315)"/>
<path d="M198.721 426.948C198.172 426.948 197.649 426.412 197.402 425.917L189.607 410.108C189.552 409.985 189.607 409.847 189.717 409.792C189.841 409.737 189.979 409.792 190.034 409.902L197.828 425.711C198.02 426.096 198.405 426.481 198.721 426.481L213.636 426.398C213.788 426.398 213.87 426.508 213.87 426.632C213.87 426.755 213.76 426.865 213.636 426.865L198.721 426.948Z" fill="#FED1E3"/>
<path d="M260.348 399.922C260.265 399.922 260.183 399.881 260.141 399.799L253.474 386.657C253.337 386.382 252.842 386.203 252.457 386.203L236.044 386.011C235.92 386.011 235.81 385.901 235.81 385.777C235.81 385.653 235.934 385.53 236.044 385.543L252.457 385.736C252.979 385.736 253.639 385.969 253.887 386.451L260.554 399.592C260.609 399.702 260.554 399.854 260.444 399.909C260.416 399.922 260.375 399.936 260.334 399.936L260.348 399.922Z" fill="#FED1E3"/>
<path d="M114.702 444.104H132.49L128.737 409.476H117.974L114.702 444.104Z" fill="url(#paint50_linear_276_1315)"/>
<path d="M110.963 445.561C110.963 445.698 111.128 445.808 111.279 445.808L135.116 445.987C135.652 445.987 136.243 445.561 136.243 445.038V443.856C136.243 443.595 135.996 443.348 135.803 443.155C135.611 442.963 135.281 442.866 135.019 442.866L111.307 443.265C111.155 443.265 110.963 443.375 110.963 443.499V445.561Z" fill="url(#paint51_linear_276_1315)"/>
<path d="M70.2453 373.446L160.561 374.559C161.056 374.559 161.66 374.944 161.894 375.412L186.514 423.979C186.748 424.446 186.542 424.831 186.047 424.845L95.869 425.381C95.3329 425.381 94.7005 424.996 94.4669 424.501L69.7092 374.298C69.4755 373.817 69.7092 373.432 70.2453 373.446Z" fill="url(#paint52_linear_276_1315)"/>
<path d="M93.8345 424.817L69.0769 374.614C68.8569 374.161 68.8569 373.693 69.0906 373.322C69.3243 372.951 69.7642 372.759 70.2453 372.745L160.561 373.858C161.317 373.858 162.155 374.394 162.513 375.096L187.133 423.662C187.367 424.116 187.367 424.597 187.133 424.968C186.913 425.326 186.514 425.532 186.033 425.546L95.8553 426.082C95.058 426.082 94.1782 425.532 93.8208 424.817H93.8345ZM161.262 375.728C161.152 375.494 160.781 375.261 160.547 375.261L70.4103 374.147L95.0855 424.185C95.2092 424.432 95.5804 424.666 95.8553 424.666L185.799 424.13L161.262 375.728Z" fill="url(#paint53_linear_276_1315)"/>
<path d="M134.786 377.625L159.365 377.9C159.873 377.9 160.464 378.285 160.698 378.752L166.362 389.914C166.595 390.382 166.389 390.753 165.881 390.753L141.315 390.588C140.807 390.588 140.202 390.203 139.954 389.722L134.291 378.45C134.057 377.982 134.277 377.597 134.786 377.611V377.625Z" fill="url(#paint54_linear_276_1315)"/>
<path d="M105.244 377.295L130.346 377.57C130.854 377.57 131.459 377.969 131.706 378.436L137.37 389.722C137.604 390.189 137.384 390.574 136.875 390.574L111.788 390.409C111.265 390.409 110.647 390.011 110.413 389.543L104.736 378.147C104.502 377.666 104.736 377.295 105.258 377.295H105.244Z" fill="url(#paint55_linear_276_1315)"/>
<path d="M75.0566 376.965L100.694 377.254C101.216 377.254 101.835 377.652 102.069 378.134L107.746 389.543C107.98 390.024 107.746 390.409 107.224 390.409L81.5862 390.244C81.0501 390.244 80.4315 389.846 80.1841 389.365L74.493 377.845C74.2593 377.364 74.493 376.979 75.0291 376.979L75.0566 376.965Z" fill="url(#paint56_linear_276_1315)"/>
<path d="M142.511 393.007L167.076 393.145C167.571 393.145 168.176 393.53 168.41 393.997L174.087 405.214C174.321 405.682 174.115 406.067 173.606 406.067L149.055 406.039C148.546 406.039 147.941 405.654 147.694 405.173L142.003 393.846C141.769 393.379 141.989 392.994 142.498 392.994L142.511 393.007Z" fill="url(#paint57_linear_276_1315)"/>
<path d="M112.984 392.843L138.071 392.98C138.58 392.98 139.185 393.365 139.432 393.846L145.123 405.187C145.357 405.668 145.137 406.053 144.628 406.053L119.554 406.026C119.032 406.026 118.413 405.641 118.18 405.159L112.475 393.709C112.241 393.227 112.475 392.843 112.984 392.843Z" fill="url(#paint58_linear_276_1315)"/>
<path d="M82.8097 392.664L108.447 392.815C108.97 392.815 109.588 393.214 109.822 393.681L115.527 405.146C115.76 405.627 115.527 406.012 115.018 406.012L89.3943 405.984C88.8582 405.984 88.2396 405.586 87.9922 405.105L82.2873 393.53C82.0536 393.049 82.2873 392.664 82.8234 392.664H82.8097Z" fill="url(#paint59_linear_276_1315)"/>
<path d="M150.278 408.445H174.83C175.325 408.445 175.929 408.83 176.163 409.297L181.868 420.569C182.102 421.037 181.895 421.422 181.401 421.435L156.863 421.545C156.354 421.545 155.749 421.161 155.502 420.679L149.783 409.297C149.55 408.816 149.77 408.431 150.278 408.431V408.445Z" fill="url(#paint60_linear_276_1315)"/>
<path d="M120.764 408.445H145.838C146.347 408.445 146.965 408.83 147.199 409.311L152.917 420.707C153.151 421.188 152.931 421.573 152.423 421.573L127.362 421.697C126.84 421.697 126.221 421.312 125.988 420.831L120.255 409.325C120.022 408.843 120.255 408.459 120.764 408.459V408.445Z" fill="url(#paint61_linear_276_1315)"/>
<path d="M90.6041 408.445H116.228C116.75 408.445 117.369 408.83 117.602 409.311L123.775 421.697L97.2162 421.82C96.6801 421.82 96.0615 421.435 95.814 420.941L90.0679 409.311C89.8342 408.83 90.0679 408.431 90.6041 408.431V408.445Z" fill="url(#paint62_linear_276_1315)"/>
<path d="M96.4464 423.663C95.8141 423.663 95.223 423.044 94.948 422.48L85.8203 403.991C85.7653 403.881 85.8203 403.73 85.9302 403.675C86.054 403.62 86.1914 403.675 86.2464 403.785L95.3742 422.274C95.5941 422.728 96.0615 423.209 96.4602 423.195L113.918 423.099C114.042 423.099 114.152 423.209 114.152 423.333C114.152 423.456 114.042 423.566 113.918 423.566L96.4602 423.663H96.4464Z" fill="#FED1E3"/>
<path d="M168.575 392.031C168.492 392.031 168.41 391.99 168.369 391.908L160.574 376.525C160.396 376.168 159.805 375.975 159.351 375.962L140.147 375.728C140.023 375.728 139.913 375.618 139.913 375.494C139.913 375.371 140.009 375.247 140.147 375.261L159.351 375.494C159.942 375.494 160.712 375.755 160.987 376.305L168.781 391.688C168.836 391.798 168.781 391.949 168.671 392.004C168.644 392.018 168.602 392.031 168.561 392.031H168.575Z" fill="#FED1E3"/>
<path opacity="0.3" d="M891.882 336.193C853.583 425.463 752.463 463.816 673.255 457.273C651.618 455.486 608.11 451.898 574.128 419.855C508.873 358.311 518.922 229.684 581.386 153.953C589.428 144.207 645.116 78.8556 731.898 79.7354C795.435 80.3815 840.029 116.164 845.445 120.618C852.291 126.254 867.399 139.629 881.022 160.868C913.01 210.755 915.828 280.409 891.895 336.193H891.882Z" fill="url(#paint63_linear_276_1315)"/>
</g>
<defs>
<linearGradient id="paint0_linear_276_1315" x1="472.073" y1="497.991" x2="189.222" y2="192.692" gradientUnits="userSpaceOnUse">
<stop stop-color="#A8B9F7"/>
<stop offset="1" stop-color="#C0DEF7"/>
</linearGradient>
<linearGradient id="paint1_linear_276_1315" x1="255.137" y1="266.236" x2="244.126" y2="338.86" gradientUnits="userSpaceOnUse">
<stop stop-color="#0A0066"/>
<stop offset="1" stop-color="#272966"/>
</linearGradient>
<linearGradient id="paint2_linear_276_1315" x1="250.78" y1="298.939" x2="227.314" y2="384.43" gradientUnits="userSpaceOnUse">
<stop stop-color="#4443EF"/>
<stop offset="1" stop-color="#4245B1"/>
</linearGradient>
<linearGradient id="paint3_linear_276_1315" x1="249.914" y1="298.692" x2="226.448" y2="384.196" gradientUnits="userSpaceOnUse">
<stop stop-color="#4443EF"/>
<stop offset="1" stop-color="#4245B1"/>
</linearGradient>
<linearGradient id="paint4_linear_276_1315" x1="247.742" y1="298.101" x2="224.263" y2="383.605" gradientUnits="userSpaceOnUse">
<stop stop-color="#4443EF"/>
<stop offset="1" stop-color="#4245B1"/>
</linearGradient>
<linearGradient id="paint5_linear_276_1315" x1="247.151" y1="297.936" x2="223.685" y2="383.44" gradientUnits="userSpaceOnUse">
<stop stop-color="#4443EF"/>
<stop offset="1" stop-color="#4245B1"/>
</linearGradient>
<linearGradient id="paint6_linear_276_1315" x1="379.393" y1="-16.4635" x2="331.995" y2="51.4724" gradientUnits="userSpaceOnUse">
<stop stop-color="#0A0066"/>
<stop offset="1" stop-color="#272966"/>
</linearGradient>
<linearGradient id="paint7_linear_276_1315" x1="137.631" y1="278.828" x2="142.511" y2="365.28" gradientUnits="userSpaceOnUse">
<stop stop-color="#632643"/>
<stop offset="1" stop-color="#78231A"/>
</linearGradient>
<linearGradient id="paint8_linear_276_1315" x1="138.027" y1="251.023" x2="146.514" y2="256.343" gradientUnits="userSpaceOnUse">
<stop stop-color="#410015"/>
<stop offset="1" stop-color="#41080D"/>
</linearGradient>
<linearGradient id="paint9_linear_276_1315" x1="139.259" y1="251.809" x2="145.293" y2="255.605" gradientUnits="userSpaceOnUse">
<stop stop-color="#9E4241"/>
<stop offset="1" stop-color="#CE5B39"/>
</linearGradient>
<linearGradient id="paint10_linear_276_1315" x1="102.165" y1="361.102" x2="97.9585" y2="455.362" gradientUnits="userSpaceOnUse">
<stop stop-color="#632643"/>
<stop offset="1" stop-color="#78231A"/>
</linearGradient>
<linearGradient id="paint11_linear_276_1315" x1="97.9919" y1="321.357" x2="105.262" y2="325.926" gradientUnits="userSpaceOnUse">
<stop stop-color="#410015"/>
<stop offset="1" stop-color="#41080D"/>
</linearGradient>
<linearGradient id="paint12_linear_276_1315" x1="99.0324" y1="322.028" x2="104.251" y2="325.296" gradientUnits="userSpaceOnUse">
<stop stop-color="#9E4241"/>
<stop offset="1" stop-color="#CE5B39"/>
</linearGradient>
<linearGradient id="paint13_linear_276_1315" x1="437.665" y1="337.54" x2="458.478" y2="352.812" gradientUnits="userSpaceOnUse">
<stop stop-color="#0A0066"/>
<stop offset="1" stop-color="#272966"/>
</linearGradient>
<linearGradient id="paint14_linear_276_1315" x1="423.066" y1="308.699" x2="434.064" y2="320.192" gradientUnits="userSpaceOnUse">
<stop stop-color="#0A0066"/>
<stop offset="1" stop-color="#272966"/>
</linearGradient>
<linearGradient id="paint15_linear_276_1315" x1="404.041" y1="281.082" x2="389.91" y2="297.881" gradientUnits="userSpaceOnUse">
<stop stop-color="#F3AB26"/>
<stop offset="1" stop-color="#F27136"/>
</linearGradient>
<linearGradient id="paint16_linear_276_1315" x1="387.559" y1="296.369" x2="415.808" y2="257.727" gradientUnits="userSpaceOnUse">
<stop stop-color="#F3AB26"/>
<stop offset="1" stop-color="#F27136"/>
</linearGradient>
<linearGradient id="paint17_linear_276_1315" x1="370.279" y1="264.353" x2="371.324" y2="254.991" gradientUnits="userSpaceOnUse">
<stop stop-color="#F3AB26"/>
<stop offset="1" stop-color="#F27136"/>
</linearGradient>
<linearGradient id="paint18_linear_276_1315" x1="383.16" y1="274.883" x2="376.41" y2="287.805" gradientUnits="userSpaceOnUse">
<stop stop-color="#D72D1B"/>
<stop offset="1" stop-color="#E14434"/>
</linearGradient>
<linearGradient id="paint19_linear_276_1315" x1="371.571" y1="294.361" x2="371.187" y2="276.601" gradientUnits="userSpaceOnUse">
<stop stop-color="#D72D1B"/>
<stop offset="1" stop-color="#E14434"/>
</linearGradient>
<linearGradient id="paint20_linear_276_1315" x1="362.884" y1="294.54" x2="362.499" y2="276.793" gradientUnits="userSpaceOnUse">
<stop stop-color="#D72D1B"/>
<stop offset="1" stop-color="#E14434"/>
</linearGradient>
<linearGradient id="paint21_linear_276_1315" x1="380.342" y1="249.788" x2="356.817" y2="253.32" gradientUnits="userSpaceOnUse">
<stop stop-color="#F3AB26"/>
<stop offset="1" stop-color="#F27136"/>
</linearGradient>
<linearGradient id="paint22_linear_276_1315" x1="374.22" y1="233.344" x2="378.676" y2="261.681" gradientUnits="userSpaceOnUse">
<stop stop-color="#0A0066"/>
<stop offset="1" stop-color="#272966"/>
</linearGradient>
<linearGradient id="paint23_linear_276_1315" x1="379.759" y1="245.98" x2="356.241" y2="249.5" gradientUnits="userSpaceOnUse">
<stop stop-color="#F3AB26"/>
<stop offset="1" stop-color="#F27136"/>
</linearGradient>
<linearGradient id="paint24_linear_276_1315" x1="209.21" y1="325.278" x2="195.683" y2="359.864" gradientUnits="userSpaceOnUse">
<stop stop-color="#660300"/>
<stop offset="1" stop-color="#662731"/>
</linearGradient>
<linearGradient id="paint25_linear_276_1315" x1="-184.342" y1="-487.485" x2="-170.829" y2="-452.885" gradientUnits="userSpaceOnUse">
<stop stop-color="#660300"/>
<stop offset="1" stop-color="#662731"/>
</linearGradient>
<linearGradient id="paint26_linear_276_1315" x1="211.217" y1="337.444" x2="94.9479" y2="345.637" gradientUnits="userSpaceOnUse">
<stop stop-color="#660300"/>
<stop offset="1" stop-color="#662731"/>
</linearGradient>
<linearGradient id="paint27_linear_276_1315" x1="141.48" y1="391.028" x2="235.191" y2="279.694" gradientUnits="userSpaceOnUse">
<stop stop-color="#EF2837"/>
<stop offset="1" stop-color="#B12E45"/>
</linearGradient>
<linearGradient id="paint28_linear_276_1315" x1="191.504" y1="323.34" x2="225.926" y2="323.34" gradientUnits="userSpaceOnUse">
<stop stop-color="#EF2837"/>
<stop offset="1" stop-color="#B12E45"/>
</linearGradient>
<linearGradient id="paint29_linear_276_1315" x1="159.969" y1="323.065" x2="194.982" y2="323.065" gradientUnits="userSpaceOnUse">
<stop stop-color="#EF2837"/>
<stop offset="1" stop-color="#B12E45"/>
</linearGradient>
<linearGradient id="paint30_linear_276_1315" x1="127.734" y1="322.79" x2="163.392" y2="322.79" gradientUnits="userSpaceOnUse">
<stop stop-color="#EF2837"/>
<stop offset="1" stop-color="#B12E45"/>
</linearGradient>
<linearGradient id="paint31_linear_276_1315" x1="199.752" y1="339.712" x2="234.188" y2="339.712" gradientUnits="userSpaceOnUse">
<stop stop-color="#EF2837"/>
<stop offset="1" stop-color="#B12E45"/>
</linearGradient>
<linearGradient id="paint32_linear_276_1315" x1="168.231" y1="339.602" x2="203.271" y2="339.602" gradientUnits="userSpaceOnUse">
<stop stop-color="#EF2837"/>
<stop offset="1" stop-color="#B12E45"/>
</linearGradient>
<linearGradient id="paint33_linear_276_1315" x1="136.009" y1="339.506" x2="171.682" y2="339.506" gradientUnits="userSpaceOnUse">
<stop stop-color="#EF2837"/>
<stop offset="1" stop-color="#B12E45"/>
</linearGradient>
<linearGradient id="paint34_linear_276_1315" x1="208.042" y1="356.208" x2="242.491" y2="356.208" gradientUnits="userSpaceOnUse">
<stop stop-color="#EF2837"/>
<stop offset="1" stop-color="#B12E45"/>
</linearGradient>
<linearGradient id="paint35_linear_276_1315" x1="176.534" y1="356.276" x2="211.588" y2="356.276" gradientUnits="userSpaceOnUse">
<stop stop-color="#EF2837"/>
<stop offset="1" stop-color="#B12E45"/>
</linearGradient>
<linearGradient id="paint36_linear_276_1315" x1="144.326" y1="356.359" x2="180.383" y2="356.359" gradientUnits="userSpaceOnUse">
<stop stop-color="#EF2837"/>
<stop offset="1" stop-color="#B12E45"/>
</linearGradient>
<linearGradient id="paint37_linear_276_1315" x1="228.895" y1="391.358" x2="226.861" y2="405.366" gradientUnits="userSpaceOnUse">
<stop stop-color="#660300"/>
<stop offset="1" stop-color="#662731"/>
</linearGradient>
<linearGradient id="paint38_linear_276_1315" x1="227.452" y1="407.978" x2="225.101" y2="423.539" gradientUnits="userSpaceOnUse">
<stop stop-color="#660300"/>
<stop offset="1" stop-color="#662731"/>
</linearGradient>
<linearGradient id="paint39_linear_276_1315" x1="246.766" y1="404.486" x2="153.646" y2="411.043" gradientUnits="userSpaceOnUse">
<stop stop-color="#660300"/>
<stop offset="1" stop-color="#662731"/>
</linearGradient>
<linearGradient id="paint40_linear_276_1315" x1="177.538" y1="378.519" x2="256.32" y2="424.432" gradientUnits="userSpaceOnUse">
<stop stop-color="#EF2837"/>
<stop offset="1" stop-color="#B12E45"/>
</linearGradient>
<linearGradient id="paint41_linear_276_1315" x1="230.971" y1="393.2" x2="258.533" y2="393.2" gradientUnits="userSpaceOnUse">
<stop stop-color="#EF2837"/>
<stop offset="1" stop-color="#B12E45"/>
</linearGradient>
<linearGradient id="paint42_linear_276_1315" x1="205.718" y1="392.98" x2="233.762" y2="392.98" gradientUnits="userSpaceOnUse">
<stop stop-color="#EF2837"/>
<stop offset="1" stop-color="#B12E45"/>
</linearGradient>
<linearGradient id="paint43_linear_276_1315" x1="179.916" y1="392.746" x2="208.468" y2="392.746" gradientUnits="userSpaceOnUse">
<stop stop-color="#EF2837"/>
<stop offset="1" stop-color="#B12E45"/>
</linearGradient>
<linearGradient id="paint44_linear_276_1315" x1="237.583" y1="406.301" x2="265.145" y2="406.301" gradientUnits="userSpaceOnUse">
<stop stop-color="#EF2837"/>
<stop offset="1" stop-color="#B12E45"/>
</linearGradient>
<linearGradient id="paint45_linear_276_1315" x1="212.331" y1="406.218" x2="240.387" y2="406.218" gradientUnits="userSpaceOnUse">
<stop stop-color="#EF2837"/>
<stop offset="1" stop-color="#B12E45"/>
</linearGradient>
<linearGradient id="paint46_linear_276_1315" x1="186.542" y1="406.136" x2="215.107" y2="406.136" gradientUnits="userSpaceOnUse">
<stop stop-color="#EF2837"/>
<stop offset="1" stop-color="#B12E45"/>
</linearGradient>
<linearGradient id="paint47_linear_276_1315" x1="244.223" y1="419.511" x2="271.798" y2="419.511" gradientUnits="userSpaceOnUse">
<stop stop-color="#EF2837"/>
<stop offset="1" stop-color="#B12E45"/>
</linearGradient>
<linearGradient id="paint48_linear_276_1315" x1="218.984" y1="419.566" x2="247.055" y2="419.566" gradientUnits="userSpaceOnUse">
<stop stop-color="#EF2837"/>
<stop offset="1" stop-color="#B12E45"/>
</linearGradient>
<linearGradient id="paint49_linear_276_1315" x1="193.195" y1="419.635" x2="222.063" y2="419.635" gradientUnits="userSpaceOnUse">
<stop stop-color="#EF2837"/>
<stop offset="1" stop-color="#B12E45"/>
</linearGradient>
<linearGradient id="paint50_linear_276_1315" x1="132.188" y1="425.284" x2="111.568" y2="429.78" gradientUnits="userSpaceOnUse">
<stop stop-color="#660300"/>
<stop offset="1" stop-color="#662731"/>
</linearGradient>
<linearGradient id="paint51_linear_276_1315" x1="135.803" y1="441.89" x2="111.32" y2="447.224" gradientUnits="userSpaceOnUse">
<stop stop-color="#660300"/>
<stop offset="1" stop-color="#662731"/>
</linearGradient>
<linearGradient id="paint52_linear_276_1315" x1="133.205" y1="389.804" x2="192.645" y2="280.684" gradientUnits="userSpaceOnUse">
<stop stop-color="#660300"/>
<stop offset="1" stop-color="#662731"/>
</linearGradient>
<linearGradient id="paint53_linear_276_1315" x1="90.7415" y1="424.006" x2="121.245" y2="403.716" gradientUnits="userSpaceOnUse">
<stop stop-color="#EF2837"/>
<stop offset="1" stop-color="#B12E45"/>
</linearGradient>
<linearGradient id="paint54_linear_276_1315" x1="134.195" y1="384.196" x2="166.458" y2="384.196" gradientUnits="userSpaceOnUse">
<stop stop-color="#EF2837"/>
<stop offset="1" stop-color="#B12E45"/>
</linearGradient>
<linearGradient id="paint55_linear_276_1315" x1="104.639" y1="383.935" x2="137.466" y2="383.935" gradientUnits="userSpaceOnUse">
<stop stop-color="#EF2837"/>
<stop offset="1" stop-color="#B12E45"/>
</linearGradient>
<linearGradient id="paint56_linear_276_1315" x1="74.4243" y1="383.673" x2="107.842" y2="383.673" gradientUnits="userSpaceOnUse">
<stop stop-color="#EF2837"/>
<stop offset="1" stop-color="#B12E45"/>
</linearGradient>
<linearGradient id="paint57_linear_276_1315" x1="141.934" y1="399.537" x2="174.197" y2="399.537" gradientUnits="userSpaceOnUse">
<stop stop-color="#EF2837"/>
<stop offset="1" stop-color="#B12E45"/>
</linearGradient>
<linearGradient id="paint58_linear_276_1315" x1="112.379" y1="399.441" x2="145.219" y2="399.441" gradientUnits="userSpaceOnUse">
<stop stop-color="#EF2837"/>
<stop offset="1" stop-color="#B12E45"/>
</linearGradient>
<linearGradient id="paint59_linear_276_1315" x1="82.1911" y1="399.345" x2="115.623" y2="399.345" gradientUnits="userSpaceOnUse">
<stop stop-color="#EF2837"/>
<stop offset="1" stop-color="#B12E45"/>
</linearGradient>
<linearGradient id="paint60_linear_276_1315" x1="149.701" y1="415.002" x2="181.978" y2="415.002" gradientUnits="userSpaceOnUse">
<stop stop-color="#EF2837"/>
<stop offset="1" stop-color="#B12E45"/>
</linearGradient>
<linearGradient id="paint61_linear_276_1315" x1="120.159" y1="415.071" x2="153.014" y2="415.071" gradientUnits="userSpaceOnUse">
<stop stop-color="#EF2837"/>
<stop offset="1" stop-color="#B12E45"/>
</linearGradient>
<linearGradient id="paint62_linear_276_1315" x1="89.9717" y1="415.14" x2="123.775" y2="415.14" gradientUnits="userSpaceOnUse">
<stop stop-color="#EF2837"/>
<stop offset="1" stop-color="#B12E45"/>
</linearGradient>
<linearGradient id="paint63_linear_276_1315" x1="930.413" y1="507.489" x2="652.085" y2="207.07" gradientUnits="userSpaceOnUse">
<stop stop-color="#FF1B2B"/>
<stop offset="1" stop-color="#F87637"/>
</linearGradient>
<clipPath id="clip0_276_1315">
<rect width="510" height="510" fill="white" transform="translate(0 0.5)"/>
</clipPath>
</defs>
</svg>
