<svg width="276" height="214" viewBox="0 0 276 214" fill="none" xmlns="http://www.w3.org/2000/svg">
<g clip-path="url(#clip0_274_959)">
<path d="M280.762 176.361C190.942 210.422 91.8199 210.422 2 176.361C44.0503 121.898 97.3405 71.1733 106.232 13C129.662 13 153.1 13 176.531 13C185.422 71.1804 238.712 121.898 280.762 176.361Z" fill="#404041"/>
<path d="M19.8846 183.062C17.0069 182.165 14.1437 181.232 11.2805 180.27C53.0668 122.845 101.938 71.1804 110.345 13C111.083 13 111.828 13 112.565 13C104.721 71.1875 60.1809 123.529 19.8773 183.069L19.8846 183.062Z" fill="#FFDD00"/>
<path d="M276 180.278C273.144 181.239 270.273 182.172 267.396 183.069C227.092 123.536 182.552 71.1947 174.708 13C175.445 13 176.19 13 176.928 13C185.335 71.1875 234.206 122.852 275.993 180.278H276Z" fill="#FFDD00"/>
<path d="M152.303 201.791C146.856 201.905 141.402 201.933 135.956 201.884C135.981 201.093 135.997 200.296 136.022 199.512C141.402 199.562 146.782 199.534 152.17 199.42C152.22 200.21 152.261 201.001 152.311 201.791H152.303Z" fill="white"/>
<path d="M151.986 196.578C146.69 196.685 141.385 196.714 136.089 196.664C136.255 190.49 136.422 184.429 136.58 178.476C141.352 178.519 146.132 178.49 150.904 178.405C151.254 184.351 151.62 190.404 151.986 196.578ZM150.279 167.801C145.807 167.88 141.335 167.901 136.863 167.865C137.022 162.033 137.171 156.301 137.313 150.661C141.302 150.689 145.291 150.675 149.288 150.611C149.613 156.251 149.938 161.976 150.279 167.801ZM148.722 140.563C145.008 140.612 141.294 140.627 137.571 140.605C137.713 135.065 137.846 129.61 137.979 124.227C141.26 124.248 144.541 124.234 147.831 124.191C148.114 129.575 148.414 135.022 148.722 140.555V140.563ZM147.331 114.584C144.292 114.62 141.252 114.627 138.212 114.613C138.337 109.308 138.454 104.073 138.562 98.8892C141.227 98.8963 143.892 98.8892 146.557 98.8678C146.798 104.052 147.065 109.286 147.331 114.584ZM146.124 89.596C143.667 89.6174 141.21 89.6174 138.745 89.6102C138.845 84.4901 138.945 79.4126 139.037 74.3708C141.185 74.3708 143.326 74.3708 145.474 74.3637C145.674 79.3984 145.891 84.4758 146.115 89.596H146.124ZM145.141 65.334C143.159 65.3411 141.177 65.3411 139.203 65.334C139.287 60.3349 139.362 55.3643 139.428 50.415C141.169 50.415 142.909 50.415 144.65 50.415C144.8 55.3643 144.966 60.3349 145.149 65.334H145.141ZM144.392 41.5206C142.776 41.5206 141.152 41.5206 139.537 41.5206C139.595 36.5856 139.645 31.6648 139.686 26.7441C141.144 26.7441 142.601 26.7441 144.05 26.7441C144.142 31.6648 144.258 36.5856 144.383 41.5206H144.392ZM143.909 17.8852C142.526 17.8852 141.144 17.8852 139.761 17.8852C139.761 17.0805 139.77 16.283 139.778 15.4783C141.144 15.4783 142.51 15.4783 143.884 15.4783C143.892 16.283 143.909 17.0805 143.917 17.8852H143.909Z" fill="white"/>
<path d="M143.859 14.3531C142.501 14.3531 141.135 14.3531 139.778 14.3531C139.778 13.7265 139.778 13.0998 139.786 12.4731C141.135 12.4731 142.485 12.4731 143.834 12.4731C143.834 13.0998 143.85 13.7265 143.859 14.3531Z" fill="white"/>
</g>
<defs>
<clipPath id="clip0_274_959">
<rect width="276" height="214" fill="white"/>
</clipPath>
</defs>
</svg>
